<svg width="32" height="32" viewBox="0 0 32 32" fill="none" xmlns="http://www.w3.org/2000/svg">
<path d="M9.57087 9.47141C8.70346 9.47141 7.85553 9.72863 7.1343 10.2105C6.41307 10.6924 5.85094 11.3774 5.519 12.1788C5.18706 12.9802 5.1002 13.862 5.26943 14.7127C5.43865 15.5635 5.85635 16.3449 6.4697 16.9583C7.08306 17.5716 7.86452 17.9893 8.71526 18.1586C9.56601 18.3278 10.4478 18.2409 11.2492 17.909C12.0506 17.5771 12.7356 17.0149 13.2175 16.2937C13.6994 15.5725 13.9566 14.7245 13.9566 13.8571C13.9566 12.694 13.4945 11.5784 12.672 10.756C11.8496 9.93348 10.734 9.47141 9.57087 9.47141ZM9.57087 16.9714C8.95492 16.9714 8.35281 16.7888 7.84067 16.4466C7.32853 16.1044 6.92936 15.618 6.69365 15.0489C6.45793 14.4798 6.39626 13.8537 6.51643 13.2496C6.63659 12.6454 6.9332 12.0905 7.36874 11.655C7.80428 11.2195 8.35919 10.9228 8.9633 10.8027C9.56742 10.6825 10.1936 10.7442 10.7627 10.9799C11.3317 11.2156 11.8181 11.6148 12.1603 12.1269C12.5025 12.6391 12.6852 13.2412 12.6852 13.8571C12.6852 14.6831 12.357 15.4752 11.773 16.0593C11.189 16.6433 10.3968 16.9714 9.57087 16.9714Z" fill="#4B4EFF" stroke="#4B4EFF" stroke-width="0.2"/>
<path d="M16 0.9C13.0135 0.9 10.0941 1.7856 7.61089 3.44481C5.12771 5.10402 3.19231 7.46231 2.04943 10.2215C0.906543 12.9806 0.607512 16.0167 1.19015 18.9459C1.77279 21.875 3.21092 24.5655 5.32269 26.6773C7.43447 28.7891 10.125 30.2272 13.0541 30.8098C15.9833 31.3925 19.0194 31.0935 21.7785 29.9506C24.5377 28.8077 26.896 26.8723 28.5552 24.3891C30.2144 21.9059 31.1 18.9865 31.1 16C31.1 11.9952 29.5091 8.15448 26.6773 5.32269C23.8455 2.49089 20.0048 0.9 16 0.9ZM16 29.8286C13.265 29.8286 10.5914 29.0175 8.31726 27.498C6.04317 25.9785 4.27072 23.8188 3.22407 21.292C2.17742 18.7651 1.90357 15.9847 2.43715 13.3022C2.97073 10.6197 4.28777 8.15568 6.22173 6.22172C8.15569 4.28776 10.6197 2.97072 13.3022 2.43714C15.9847 1.90356 18.7651 2.17741 21.292 3.22407C23.8188 4.27072 25.9785 6.04316 27.498 8.31726C29.0175 10.5914 29.8286 13.265 29.8286 16C29.8286 19.6676 28.3716 23.1849 25.7783 25.7783C23.1849 28.3716 19.6676 29.8286 16 29.8286Z" fill="#4B4EFF" stroke="#4B4EFF" stroke-width="0.2"/>
<path d="M17.6074 20.1857H14.3931C14.2245 20.1857 14.0628 20.2527 13.9436 20.3719C13.8244 20.4911 13.7574 20.6528 13.7574 20.8214C13.7574 20.99 13.8244 21.1517 13.9436 21.271C14.0628 21.3902 14.2245 21.4571 14.3931 21.4571H17.6074C17.776 21.4571 17.9377 21.3902 18.0569 21.271C18.1762 21.1517 18.2431 20.99 18.2431 20.8214C18.2431 20.6528 18.1762 20.4911 18.0569 20.3719C17.9377 20.2527 17.776 20.1857 17.6074 20.1857Z" fill="#4B4EFF" stroke="#4B4EFF" stroke-width="0.2"/>
<path d="M9.57143 12.8857C10.2184 12.8857 10.7429 12.3612 10.7429 11.7142C10.7429 11.0673 10.2184 10.5428 9.57143 10.5428C8.92447 10.5428 8.4 11.0673 8.4 11.7142C8.4 12.3612 8.92447 12.8857 9.57143 12.8857Z" fill="#4B4EFF" stroke="#4B4EFF" stroke-width="0.2"/>
<path d="M22.4283 9.47141C21.5609 9.47141 20.7129 9.72863 19.9917 10.2105C19.2705 10.6924 18.7084 11.3774 18.3764 12.1788C18.0445 12.9802 17.9576 13.862 18.1269 14.7127C18.2961 15.5635 18.7138 16.3449 19.3271 16.9583C19.9405 17.5716 20.7219 17.9893 21.5727 18.1586C22.4234 18.3278 23.3052 18.2409 24.1066 17.909C24.908 17.5771 25.593 17.0149 26.0749 16.2937C26.5568 15.5725 26.814 14.7245 26.814 13.8571C26.814 12.694 26.3519 11.5784 25.5295 10.756C24.707 9.93348 23.5915 9.47141 22.4283 9.47141ZM22.4283 16.9714C21.8123 16.9714 21.2102 16.7888 20.6981 16.4466C20.1859 16.1044 19.7868 15.618 19.5511 15.0489C19.3154 14.4798 19.2537 13.8537 19.3738 13.2496C19.494 12.6454 19.7906 12.0905 20.2262 11.655C20.6617 11.2195 21.2166 10.9228 21.8207 10.8027C22.4248 10.6825 23.051 10.7442 23.6201 10.9799C24.1891 11.2156 24.6755 11.6148 25.0177 12.1269C25.3599 12.6391 25.5426 13.2412 25.5426 13.8571C25.5426 14.6831 25.2145 15.4752 24.6304 16.0593C24.0464 16.6433 23.2543 16.9714 22.4283 16.9714Z" fill="#4B4EFF" stroke="#4B4EFF" stroke-width="0.2"/>
<path d="M22.4289 12.8857C23.0758 12.8857 23.6003 12.3612 23.6003 11.7142C23.6003 11.0673 23.0758 10.5428 22.4289 10.5428C21.7819 10.5428 21.2574 11.0673 21.2574 11.7142C21.2574 12.3612 21.7819 12.8857 22.4289 12.8857Z" fill="#4B4EFF" stroke="#4B4EFF" stroke-width="0.2"/>
</svg>
