<svg width="30" height="30" viewBox="0 0 30 30" fill="none" xmlns="http://www.w3.org/2000/svg">
<g id="Group 137">
<g id="Vector">
<path d="M8.57087 8.57141C7.72324 8.57141 6.89464 8.82276 6.18986 9.29368C5.48507 9.7646 4.93576 10.4339 4.61139 11.2171C4.28701 12.0002 4.20214 12.8619 4.36751 13.6932C4.53287 14.5246 4.94105 15.2882 5.54041 15.8876C6.13978 16.4869 6.90342 16.8951 7.73477 17.0605C8.56612 17.2259 9.42783 17.141 10.2109 16.8166C10.9941 16.4922 11.6634 15.9429 12.1343 15.2381C12.6052 14.5334 12.8566 13.7048 12.8566 12.8571C12.8566 11.7205 12.4051 10.6304 11.6013 9.82667C10.7976 9.02294 9.70751 8.57141 8.57087 8.57141ZM8.57087 16.0714C7.93515 16.0714 7.3137 15.8829 6.78511 15.5297C6.25652 15.1765 5.84454 14.6745 5.60126 14.0872C5.35798 13.4998 5.29432 12.8536 5.41835 12.23C5.54237 11.6065 5.8485 11.0338 6.29803 10.5843C6.74755 10.1348 7.32029 9.82862 7.9438 9.7046C8.56731 9.58058 9.21359 9.64423 9.80093 9.88751C10.3883 10.1308 10.8903 10.5428 11.2435 11.0714C11.5966 11.5999 11.7852 12.2214 11.7852 12.8571C11.7852 13.7096 11.4465 14.5272 10.8437 15.13C10.2409 15.7328 9.42335 16.0714 8.57087 16.0714Z" fill="#4B4EFF"/>
<path d="M8.57087 8.57141C7.72324 8.57141 6.89464 8.82276 6.18986 9.29368C5.48507 9.7646 4.93576 10.4339 4.61139 11.2171C4.28701 12.0002 4.20214 12.8619 4.36751 13.6932C4.53287 14.5246 4.94105 15.2882 5.54041 15.8876C6.13978 16.4869 6.90342 16.8951 7.73477 17.0605C8.56612 17.2259 9.42783 17.141 10.2109 16.8166C10.9941 16.4922 11.6634 15.9429 12.1343 15.2381C12.6052 14.5334 12.8566 13.7048 12.8566 12.8571C12.8566 11.7205 12.4051 10.6304 11.6013 9.82667C10.7976 9.02294 9.70751 8.57141 8.57087 8.57141ZM8.57087 16.0714C7.93515 16.0714 7.3137 15.8829 6.78511 15.5297C6.25652 15.1765 5.84454 14.6745 5.60126 14.0872C5.35798 13.4998 5.29432 12.8536 5.41835 12.23C5.54237 11.6065 5.8485 11.0338 6.29803 10.5843C6.74755 10.1348 7.32029 9.82862 7.9438 9.7046C8.56731 9.58058 9.21359 9.64423 9.80093 9.88751C10.3883 10.1308 10.8903 10.5428 11.2435 11.0714C11.5966 11.5999 11.7852 12.2214 11.7852 12.8571C11.7852 13.7096 11.4465 14.5272 10.8437 15.13C10.2409 15.7328 9.42335 16.0714 8.57087 16.0714Z" stroke="#4B4EFF"/>
</g>
<g id="Vector_2">
<path d="M15 0C12.0333 0 9.13319 0.879735 6.66645 2.52796C4.19971 4.17618 2.27713 6.51886 1.14181 9.25975C0.00649925 12.0006 -0.290551 15.0166 0.288227 17.9263C0.867006 20.8361 2.29562 23.5088 4.3934 25.6066C6.49119 27.7044 9.16394 29.133 12.0736 29.7118C14.9834 30.2905 17.9994 29.9935 20.7403 28.8582C23.4811 27.7229 25.8238 25.8003 27.472 23.3335C29.1203 20.8668 30 17.9667 30 15C30 11.0217 28.4196 7.20644 25.6066 4.3934C22.7936 1.58035 18.9783 0 15 0ZM15 28.9286C12.2452 28.9286 9.55225 28.1117 7.2617 26.5812C4.97116 25.0507 3.1859 22.8753 2.13168 20.3302C1.07746 17.7851 0.801632 14.9845 1.33907 12.2827C1.87651 9.58079 3.20307 7.09896 5.15102 5.15101C7.09896 3.20307 9.5808 1.8765 12.2827 1.33906C14.9846 0.801625 17.7851 1.07746 20.3302 2.13168C22.8753 3.1859 25.0507 4.97116 26.5812 7.2617C28.1117 9.55224 28.9286 12.2452 28.9286 15C28.9286 18.6941 27.4611 22.2369 24.849 24.849C22.2369 27.4611 18.6941 28.9286 15 28.9286Z" fill="#4B4EFF"/>
<path d="M15 0C12.0333 0 9.13319 0.879735 6.66645 2.52796C4.19971 4.17618 2.27713 6.51886 1.14181 9.25975C0.00649925 12.0006 -0.290551 15.0166 0.288227 17.9263C0.867006 20.8361 2.29562 23.5088 4.3934 25.6066C6.49119 27.7044 9.16394 29.133 12.0736 29.7118C14.9834 30.2905 17.9994 29.9935 20.7403 28.8582C23.4811 27.7229 25.8238 25.8003 27.472 23.3335C29.1203 20.8668 30 17.9667 30 15C30 11.0217 28.4196 7.20644 25.6066 4.3934C22.7936 1.58035 18.9783 0 15 0ZM15 28.9286C12.2452 28.9286 9.55225 28.1117 7.2617 26.5812C4.97116 25.0507 3.1859 22.8753 2.13168 20.3302C1.07746 17.7851 0.801632 14.9845 1.33907 12.2827C1.87651 9.58079 3.20307 7.09896 5.15102 5.15101C7.09896 3.20307 9.5808 1.8765 12.2827 1.33906C14.9846 0.801625 17.7851 1.07746 20.3302 2.13168C22.8753 3.1859 25.0507 4.97116 26.5812 7.2617C28.1117 9.55224 28.9286 12.2452 28.9286 15C28.9286 18.6941 27.4611 22.2369 24.849 24.849C22.2369 27.4611 18.6941 28.9286 15 28.9286Z" stroke="#4B4EFF"/>
</g>
<g id="Vector_3">
<path d="M16.6074 19.2857H13.3931C13.2511 19.2857 13.1148 19.3421 13.0143 19.4426C12.9139 19.5431 12.8574 19.6793 12.8574 19.8214C12.8574 19.9635 12.9139 20.0998 13.0143 20.2002C13.1148 20.3007 13.2511 20.3571 13.3931 20.3571H16.6074C16.7495 20.3571 16.8858 20.3007 16.9862 20.2002C17.0867 20.0998 17.1431 19.9635 17.1431 19.8214C17.1431 19.6793 17.0867 19.5431 16.9862 19.4426C16.8858 19.3421 16.7495 19.2857 16.6074 19.2857Z" fill="#4B4EFF"/>
<path d="M16.6074 19.2857H13.3931C13.2511 19.2857 13.1148 19.3421 13.0143 19.4426C12.9139 19.5431 12.8574 19.6793 12.8574 19.8214C12.8574 19.9635 12.9139 20.0998 13.0143 20.2002C13.1148 20.3007 13.2511 20.3571 13.3931 20.3571H16.6074C16.7495 20.3571 16.8858 20.3007 16.9862 20.2002C17.0867 20.0998 17.1431 19.9635 17.1431 19.8214C17.1431 19.6793 17.0867 19.5431 16.9862 19.4426C16.8858 19.3421 16.7495 19.2857 16.6074 19.2857Z" stroke="#4B4EFF"/>
</g>
<g id="Vector_4">
<path d="M8.57143 11.7857C9.16316 11.7857 9.64286 11.306 9.64286 10.7143C9.64286 10.1225 9.16316 9.64282 8.57143 9.64282C7.97969 9.64282 7.5 10.1225 7.5 10.7143C7.5 11.306 7.97969 11.7857 8.57143 11.7857Z" fill="#4B4EFF"/>
<path d="M8.57143 11.7857C9.16316 11.7857 9.64286 11.306 9.64286 10.7143C9.64286 10.1225 9.16316 9.64282 8.57143 9.64282C7.97969 9.64282 7.5 10.1225 7.5 10.7143C7.5 11.306 7.97969 11.7857 8.57143 11.7857Z" stroke="#4B4EFF"/>
</g>
<g id="Vector_5">
<path d="M21.4293 8.57141C20.5816 8.57141 19.753 8.82276 19.0483 9.29368C18.3435 9.7646 17.7942 10.4339 17.4698 11.2171C17.1454 12.0002 17.0605 12.8619 17.2259 13.6932C17.3913 14.5246 17.7994 15.2882 18.3988 15.8876C18.9982 16.4869 19.7618 16.8951 20.5932 17.0605C21.4245 17.2259 22.2862 17.141 23.0693 16.8166C23.8525 16.4922 24.5218 15.9429 24.9927 15.2381C25.4636 14.5334 25.715 13.7048 25.715 12.8571C25.715 11.7205 25.2635 10.6304 24.4597 9.82667C23.656 9.02294 22.5659 8.57141 21.4293 8.57141ZM21.4293 16.0714C20.7935 16.0714 20.1721 15.8829 19.6435 15.5297C19.1149 15.1765 18.7029 14.6745 18.4597 14.0872C18.2164 13.4998 18.1527 12.8536 18.2767 12.23C18.4008 11.6065 18.7069 11.0338 19.1564 10.5843C19.606 10.1348 20.1787 9.82862 20.8022 9.7046C21.4257 9.58058 22.072 9.64423 22.6593 9.88751C23.2467 10.1308 23.7487 10.5428 24.1019 11.0714C24.455 11.5999 24.6436 12.2214 24.6436 12.8571C24.6436 13.7096 24.3049 14.5272 23.7021 15.13C23.0993 15.7328 22.2818 16.0714 21.4293 16.0714Z" fill="#4B4EFF"/>
<path d="M21.4293 8.57141C20.5816 8.57141 19.753 8.82276 19.0483 9.29368C18.3435 9.7646 17.7942 10.4339 17.4698 11.2171C17.1454 12.0002 17.0605 12.8619 17.2259 13.6932C17.3913 14.5246 17.7994 15.2882 18.3988 15.8876C18.9982 16.4869 19.7618 16.8951 20.5932 17.0605C21.4245 17.2259 22.2862 17.141 23.0693 16.8166C23.8525 16.4922 24.5218 15.9429 24.9927 15.2381C25.4636 14.5334 25.715 13.7048 25.715 12.8571C25.715 11.7205 25.2635 10.6304 24.4597 9.82667C23.656 9.02294 22.5659 8.57141 21.4293 8.57141ZM21.4293 16.0714C20.7935 16.0714 20.1721 15.8829 19.6435 15.5297C19.1149 15.1765 18.7029 14.6745 18.4597 14.0872C18.2164 13.4998 18.1527 12.8536 18.2767 12.23C18.4008 11.6065 18.7069 11.0338 19.1564 10.5843C19.606 10.1348 20.1787 9.82862 20.8022 9.7046C21.4257 9.58058 22.072 9.64423 22.6593 9.88751C23.2467 10.1308 23.7487 10.5428 24.1019 11.0714C24.455 11.5999 24.6436 12.2214 24.6436 12.8571C24.6436 13.7096 24.3049 14.5272 23.7021 15.13C23.0993 15.7328 22.2818 16.0714 21.4293 16.0714Z" stroke="#4B4EFF"/>
</g>
<g id="Vector_6">
<path d="M21.4279 11.7857C22.0196 11.7857 22.4993 11.306 22.4993 10.7143C22.4993 10.1225 22.0196 9.64282 21.4279 9.64282C20.8361 9.64282 20.3564 10.1225 20.3564 10.7143C20.3564 11.306 20.8361 11.7857 21.4279 11.7857Z" fill="#4B4EFF"/>
<path d="M21.4279 11.7857C22.0196 11.7857 22.4993 11.306 22.4993 10.7143C22.4993 10.1225 22.0196 9.64282 21.4279 9.64282C20.8361 9.64282 20.3564 10.1225 20.3564 10.7143C20.3564 11.306 20.8361 11.7857 21.4279 11.7857Z" stroke="#4B4EFF"/>
</g>
</g>
</svg>
