<svg width="32" height="32" viewBox="0 0 32 32" fill="none" xmlns="http://www.w3.org/2000/svg">
<path d="M12.8849 14.3929C12.8849 13.8434 12.7219 13.3062 12.4166 12.8492C12.1113 12.3923 11.6773 12.0362 11.1696 11.8259C10.6619 11.6156 10.1032 11.5605 9.56423 11.6677C9.02524 11.775 8.53015 12.0396 8.14156 12.4282C7.75297 12.8168 7.48834 13.3119 7.38113 13.8509C7.27391 14.3898 7.32894 14.9485 7.53924 15.4562C7.74955 15.964 8.10568 16.3979 8.56262 16.7032C9.01955 17.0085 9.55676 17.1715 10.1063 17.1715C10.8432 17.1715 11.55 16.8788 12.0711 16.3577C12.5921 15.8366 12.8849 15.1299 12.8849 14.3929ZM8.59916 14.3929C8.59916 14.0948 8.68756 13.8035 8.85316 13.5556C9.01877 13.3078 9.25415 13.1146 9.52955 13.0005C9.80494 12.8864 10.108 12.8566 10.4003 12.9147C10.6927 12.9729 10.9612 13.1164 11.172 13.3272C11.3828 13.538 11.5263 13.8065 11.5845 14.0989C11.6426 14.3913 11.6128 14.6943 11.4987 14.9697C11.3847 15.2451 11.1915 15.4805 10.9436 15.6461C10.6958 15.8117 10.4044 15.9001 10.1063 15.9001C9.70659 15.9001 9.32324 15.7413 9.0406 15.4586C8.75795 15.176 8.59916 14.7926 8.59916 14.3929Z" fill="#4B4EFF" stroke="#4B4EFF" stroke-width="0.2"/>
<path d="M21.8915 11.6144C21.3419 11.6144 20.8047 11.7773 20.3478 12.0826C19.8908 12.3879 19.5347 12.8219 19.3244 13.3296C19.1141 13.8373 19.0591 14.396 19.1663 14.935C19.2735 15.474 19.5381 15.9691 19.9267 16.3577C20.3153 16.7463 20.8104 17.0109 21.3494 17.1181C21.8884 17.2253 22.4471 17.1703 22.9548 16.96C23.4625 16.7497 23.8964 16.3936 24.2018 15.9366C24.5071 15.4797 24.67 14.9425 24.67 14.3929C24.67 14.028 24.5982 13.6667 24.4585 13.3296C24.3189 12.9925 24.1142 12.6862 23.8562 12.4282C23.5982 12.1702 23.2919 11.9655 22.9548 11.8259C22.6177 11.6862 22.2564 11.6144 21.8915 11.6144ZM21.8915 15.9001C21.5934 15.9001 21.302 15.8117 21.0541 15.6461C20.8063 15.4805 20.6131 15.2451 20.499 14.9697C20.385 14.6943 20.3551 14.3913 20.4133 14.0989C20.4714 13.8065 20.615 13.538 20.8258 13.3272C21.0365 13.1164 21.3051 12.9729 21.5974 12.9147C21.8898 12.8566 22.1928 12.8864 22.4682 13.0005C22.7436 13.1146 22.979 13.3078 23.1446 13.5556C23.3102 13.8035 23.3986 14.0948 23.3986 14.3929C23.3986 14.7926 23.2398 15.176 22.9572 15.4586C22.6745 15.7413 22.2912 15.9001 21.8915 15.9001Z" fill="#4B4EFF" stroke="#4B4EFF" stroke-width="0.2"/>
<path d="M16 0.9C13.0135 0.9 10.0941 1.7856 7.61089 3.44481C5.12771 5.10402 3.19231 7.46231 2.04943 10.2215C0.906543 12.9806 0.607512 16.0167 1.19015 18.9459C1.77279 21.875 3.21092 24.5655 5.32269 26.6773C7.43447 28.7891 10.125 30.2272 13.0541 30.8098C15.9833 31.3925 19.0194 31.0935 21.7785 29.9506C24.5377 28.8077 26.896 26.8723 28.5552 24.3891C30.2144 21.9059 31.1 18.9865 31.1 16C31.1 11.9952 29.5091 8.15448 26.6773 5.32269C23.8455 2.49089 20.0048 0.9 16 0.9ZM16 29.8286C13.265 29.8286 10.5914 29.0175 8.31726 27.498C6.04317 25.9785 4.27072 23.8188 3.22407 21.292C2.17742 18.7651 1.90357 15.9847 2.43715 13.3022C2.97073 10.6197 4.28777 8.15568 6.22173 6.22172C8.15569 4.28776 10.6197 2.97072 13.3022 2.43714C15.9847 1.90356 18.7651 2.17741 21.292 3.22407C23.8188 4.27072 25.9785 6.04316 27.498 8.31726C29.0175 10.5914 29.8286 13.265 29.8286 16C29.8286 19.6676 28.3716 23.1849 25.7783 25.7783C23.1849 28.3716 19.6676 29.8286 16 29.8286Z" fill="#4B4EFF" stroke="#4B4EFF" stroke-width="0.2"/>
<path d="M15.9999 19.2911L15.9994 19.2911C14.6048 19.294 13.2258 19.5837 11.9479 20.1422C10.671 20.7002 9.52239 21.5146 8.57332 22.5349C8.51092 22.5939 8.46113 22.665 8.42697 22.7439C8.39233 22.8239 8.37451 22.9101 8.37461 22.9973C8.37471 23.0844 8.39273 23.1706 8.42755 23.2505C8.46237 23.3304 8.51325 23.4023 8.57702 23.4617C8.64079 23.5211 8.7161 23.5668 8.79826 23.5959C8.88042 23.6249 8.96769 23.6368 9.05463 23.6307C9.14157 23.6247 9.22634 23.6008 9.30366 23.5605C9.37995 23.5209 9.44738 23.4661 9.50189 23.3997C10.3315 22.5064 11.3365 21.7937 12.4539 21.3063C13.5723 20.8184 14.7794 20.5665 15.9996 20.5665C17.2199 20.5665 18.4269 20.8184 19.5454 21.3063C20.6628 21.7937 21.6677 22.5064 22.4974 23.3997C22.5519 23.4661 22.6193 23.5209 22.6956 23.5605C22.7729 23.6008 22.8577 23.6247 22.9447 23.6307C23.0316 23.6368 23.1189 23.6249 23.201 23.5959C23.2832 23.5668 23.3585 23.5211 23.4223 23.4617C23.486 23.4023 23.5369 23.3304 23.5717 23.2505C23.6066 23.1706 23.6246 23.0844 23.6247 22.9973C23.6248 22.9101 23.607 22.8239 23.5723 22.7439C23.5382 22.665 23.4884 22.5939 23.426 22.5349C22.4769 21.5146 21.3283 20.7002 20.0514 20.1422C18.7735 19.5837 17.3944 19.294 15.9999 19.2911Z" fill="#4B4EFF" stroke="#4B4EFF" stroke-width="0.2"/>
</svg>
