<svg width="32" height="32" viewBox="0 0 32 32" fill="none" xmlns="http://www.w3.org/2000/svg">
<path d="M24.7922 17.2536L24.7919 17.2531L24.7827 17.2585C22.1187 18.8251 19.0845 19.6511 15.9941 19.6511C12.9036 19.6511 9.8694 18.8251 7.20547 17.2585L7.20576 17.258L7.19596 17.2536C7.05255 17.1888 6.8902 17.1795 6.74031 17.2275C6.59043 17.2754 6.46367 17.3773 6.38457 17.5134C6.30547 17.6494 6.27965 17.81 6.3121 17.964C6.34455 18.118 6.43297 18.2545 6.56025 18.347L6.55997 18.3474L6.56841 18.3524C9.42596 20.031 12.6799 20.9161 15.9941 20.9161C19.3082 20.9161 22.5622 20.031 25.4197 18.3524L25.42 18.3528L25.4279 18.347C25.5552 18.2545 25.6436 18.118 25.676 17.964C25.7085 17.81 25.6827 17.6494 25.6036 17.5134C25.5245 17.3773 25.3977 17.2754 25.2478 17.2275C25.0979 17.1795 24.9356 17.1888 24.7922 17.2536Z" fill="#4B4EFF" stroke="#4B4EFF" stroke-width="0.2"/>
<path d="M16 0.9C13.0135 0.9 10.0941 1.7856 7.61089 3.44481C5.12771 5.10402 3.19231 7.46231 2.04943 10.2215C0.906543 12.9806 0.607512 16.0167 1.19015 18.9459C1.77279 21.875 3.21092 24.5655 5.32269 26.6773C7.43447 28.7891 10.125 30.2272 13.0541 30.8098C15.9833 31.3925 19.0194 31.0935 21.7785 29.9506C24.5377 28.8077 26.896 26.8723 28.5552 24.3891C30.2144 21.9059 31.1 18.9865 31.1 16C31.1 11.9952 29.5091 8.15448 26.6773 5.32269C23.8455 2.49089 20.0048 0.9 16 0.9ZM16 29.8286C13.265 29.8286 10.5914 29.0175 8.31726 27.498C6.04317 25.9785 4.27072 23.8188 3.22407 21.292C2.17742 18.7651 1.90357 15.9847 2.43715 13.3022C2.97073 10.6197 4.28777 8.15568 6.22173 6.22172C8.15569 4.28776 10.6197 2.97072 13.3022 2.43714C15.9847 1.90356 18.7651 2.17741 21.292 3.22407C23.8188 4.27072 25.9785 6.04316 27.498 8.31726C29.0175 10.5914 29.8286 13.265 29.8286 16C29.8286 19.6676 28.3716 23.1849 25.7783 25.7783C23.1849 28.3716 19.6676 29.8286 16 29.8286Z" fill="#4B4EFF" stroke="#4B4EFF" stroke-width="0.2"/>
<path d="M7.96345 13.9571C8.13205 13.9571 8.29375 13.8901 8.41297 13.7709C8.53219 13.6517 8.59916 13.49 8.59916 13.3214C8.59916 12.9217 8.75795 12.5383 9.04059 12.2557C9.32324 11.973 9.70659 11.8143 10.1063 11.8143C10.506 11.8143 10.8894 11.973 11.172 12.2557C11.4547 12.5383 11.6134 12.9217 11.6134 13.3214C11.6134 13.49 11.6804 13.6517 11.7996 13.7709C11.9189 13.8901 12.0806 13.9571 12.2492 13.9571C12.4178 13.9571 12.5795 13.8901 12.6987 13.7709C12.8179 13.6517 12.8849 13.49 12.8849 13.3214C12.8849 12.5845 12.5921 11.8777 12.0711 11.3566C11.55 10.8356 10.8432 10.5428 10.1063 10.5428C9.36938 10.5428 8.66264 10.8356 8.14156 11.3566C7.62048 11.8777 7.32773 12.5845 7.32773 13.3214C7.32773 13.49 7.39471 13.6517 7.51393 13.7709C7.63315 13.8901 7.79485 13.9571 7.96345 13.9571Z" fill="#4B4EFF" stroke="#4B4EFF" stroke-width="0.2"/>
<path d="M19.7506 13.9571C19.9192 13.9571 20.0809 13.8901 20.2001 13.7709C20.3193 13.6517 20.3863 13.49 20.3863 13.3214C20.3863 12.9217 20.5451 12.5383 20.8277 12.2557C21.1103 11.973 21.4937 11.8143 21.8934 11.8143C22.2931 11.8143 22.6765 11.973 22.9591 12.2557C23.2418 12.5383 23.4006 12.9217 23.4006 13.3214C23.4006 13.49 23.4675 13.6517 23.5868 13.7709C23.706 13.8901 23.8677 13.9571 24.0363 13.9571C24.2049 13.9571 24.3666 13.8901 24.4858 13.7709C24.605 13.6517 24.672 13.49 24.672 13.3214C24.672 12.5845 24.3792 11.8777 23.8582 11.3566C23.3371 10.8356 22.6303 10.5428 21.8934 10.5428C21.1565 10.5428 20.4498 10.8356 19.9287 11.3566C19.4076 11.8777 19.1148 12.5845 19.1148 13.3214C19.1148 13.49 19.1818 13.6517 19.301 13.7709C19.4203 13.8901 19.582 13.9571 19.7506 13.9571Z" fill="#4B4EFF" stroke="#4B4EFF" stroke-width="0.2"/>
</svg>
