<svg width="30" height="30" viewBox="0 0 30 30" fill="none" xmlns="http://www.w3.org/2000/svg">
<g id="Group 138">
<path id="Vector" d="M7.89596 8.36716C8.25422 8.12777 8.67543 8 9.10631 8C9.6841 8 10.2382 8.22953 10.6468 8.63809C11.0554 9.04665 11.2849 9.60078 11.2849 10.1786C11.2849 10.6095 11.1571 11.0307 10.9177 11.3889C10.6783 11.7472 10.3381 12.0264 9.94001 12.1913C9.54193 12.3562 9.10389 12.3993 8.68129 12.3153C8.25869 12.2312 7.8705 12.0237 7.56582 11.7191C7.26115 11.4144 7.05366 11.0262 6.9696 10.6036C6.88554 10.181 6.92868 9.74295 7.09357 9.34487C7.25846 8.94679 7.53769 8.60654 7.89596 8.36716ZM7.93564 11.9306C8.28216 12.1621 8.68955 12.2857 9.10631 12.2857C9.66516 12.2857 10.2011 12.0637 10.5963 11.6685C10.9914 11.2734 11.2134 10.7374 11.2134 10.1786C11.2134 9.76182 11.0899 9.35442 10.8583 9.00791C10.6268 8.66139 10.2977 8.39131 9.91268 8.23182C9.52765 8.07234 9.10397 8.03061 8.69522 8.11192C8.28648 8.19322 7.91102 8.39391 7.61633 8.6886C7.32164 8.98329 7.12096 9.35874 7.03965 9.76749C6.95835 10.1762 7.00008 10.5999 7.15956 10.9849C7.31905 11.37 7.58912 11.6991 7.93564 11.9306Z" fill="#8C27E7" stroke="#4B4EFF"/>
<path id="Vector_2" d="M19.6811 8.36716C20.0394 8.12777 20.4606 8 20.8915 8C21.1776 8 21.4609 8.05635 21.7252 8.16583C21.9895 8.27532 22.2296 8.43579 22.4319 8.63809C22.6342 8.84039 22.7947 9.08055 22.9042 9.34487C23.0137 9.60918 23.07 9.89248 23.07 10.1786C23.07 10.6095 22.9423 11.0307 22.7029 11.3889C22.4635 11.7472 22.1232 12.0264 21.7252 12.1913C21.3271 12.3562 20.889 12.3993 20.4664 12.3153C20.0438 12.2312 19.6557 12.0237 19.351 11.7191C19.0463 11.4144 18.8388 11.0262 18.7548 10.6036C18.6707 10.181 18.7138 9.74295 18.8787 9.34487C19.0436 8.94679 19.3228 8.60654 19.6811 8.36716ZM19.7208 11.9306C20.0673 12.1621 20.4747 12.2857 20.8915 12.2857C21.4503 12.2857 21.9863 12.0637 22.3814 11.6685C22.7766 11.2734 22.9986 10.7374 22.9986 10.1786C22.9986 9.76182 22.875 9.35442 22.6435 9.00791C22.412 8.66139 22.0829 8.39131 21.6978 8.23182C21.3128 8.07234 20.8891 8.03061 20.4804 8.11192C20.0716 8.19322 19.6962 8.39391 19.4015 8.6886C19.1068 8.98328 18.9061 9.35874 18.8248 9.76749C18.7435 10.1762 18.7852 10.5999 18.9447 10.9849C19.1042 11.37 19.3743 11.6991 19.7208 11.9306Z" fill="#8C27E7" stroke="#4B4EFF"/>
<path id="Vector_3" d="M6.94424 2.94369C9.32875 1.35041 12.1322 0.5 15 0.5C18.8456 0.5 22.5338 2.02767 25.253 4.74695C27.9723 7.46623 29.5 11.1544 29.5 15C29.5 17.8678 28.6496 20.6712 27.0563 23.0558C25.463 25.4403 23.1984 27.2988 20.5489 28.3962C17.8994 29.4937 14.9839 29.7809 12.1712 29.2214C9.35847 28.6619 6.77482 27.2809 4.74696 25.253C2.7191 23.2252 1.33811 20.6415 0.77862 17.8288C0.219135 15.0161 0.506283 12.1006 1.60375 9.45109C2.70122 6.80156 4.55972 4.53697 6.94424 2.94369ZM6.98392 26.9969C9.35669 28.5823 12.1463 29.4286 15 29.4286C18.8267 29.4286 22.4967 27.9084 25.2025 25.2025C27.9084 22.4967 29.4286 18.8267 29.4286 15C29.4286 12.1463 28.5823 9.35668 26.9969 6.98391C25.4115 4.61115 23.1581 2.7618 20.5216 1.66974C17.8851 0.577673 14.984 0.29194 12.1851 0.848669C9.38626 1.4054 6.81534 2.77959 4.79746 4.79746C2.77959 6.81533 1.40541 9.38626 0.848676 12.1851C0.291947 14.984 0.57768 17.8851 1.66974 20.5216C2.76181 23.158 4.61115 25.4115 6.98392 26.9969Z" fill="#8C27E7" stroke="#4B4EFF"/>
<path id="Vector_4" d="M12.3209 16.5714H17.678C17.6875 16.5714 17.6966 16.5752 17.7033 16.5819L18.0523 16.2328L17.7033 16.5819C17.71 16.5886 17.7137 16.5977 17.7137 16.6071C17.7137 16.6166 17.71 16.6257 17.7033 16.6324L18.0568 16.9859L17.7033 16.6324C17.6966 16.6391 17.6875 16.6428 17.678 16.6428H12.3209C12.3114 16.6428 12.3023 16.6391 12.2956 16.6324C12.2889 16.6257 12.2852 16.6166 12.2852 16.6071C12.2852 16.5977 12.2889 16.5886 12.2956 16.5819C12.3023 16.5752 12.3114 16.5714 12.3209 16.5714Z" fill="#8C27E7" stroke="#4B4EFF"/>
</g>
</svg>
