<svg width="32" height="32" viewBox="0 0 32 32" fill="none" xmlns="http://www.w3.org/2000/svg">
<path d="M10.1083 13.9571C10.6578 13.9571 11.195 13.7942 11.6519 13.4889C12.1089 13.1836 12.465 12.7496 12.6753 12.2419C12.8856 11.7342 12.9407 11.1755 12.8334 10.6365C12.7262 10.0975 12.4616 9.60242 12.073 9.21383C11.6844 8.82524 11.1893 8.5606 10.6503 8.45339C10.1113 8.34618 9.55266 8.4012 9.04495 8.61151C8.53723 8.82181 8.10327 9.17795 7.79796 9.63488C7.49265 10.0918 7.32969 10.629 7.32969 11.1786C7.32969 11.9155 7.62243 12.6222 8.14351 13.1433C8.6646 13.6644 9.37134 13.9571 10.1083 13.9571ZM10.1083 9.67143C10.4063 9.67143 10.6977 9.75982 10.9456 9.92543C11.1934 10.091 11.3866 10.3264 11.5007 10.6018C11.6147 10.8772 11.6446 11.1802 11.5864 11.4726C11.5283 11.765 11.3847 12.0335 11.174 12.2443C10.9632 12.4551 10.6946 12.5986 10.4023 12.6568C10.1099 12.7149 9.80689 12.6851 9.5315 12.571C9.25611 12.4569 9.02072 12.2637 8.85511 12.0159C8.68951 11.768 8.60112 11.4767 8.60112 11.1786C8.60112 10.7789 8.7599 10.3955 9.04255 10.1129C9.32519 9.83022 9.70854 9.67143 10.1083 9.67143Z" fill="#4B4EFF" stroke="#4B4EFF" stroke-width="0.2"/>
<path d="M21.8934 13.9571C22.443 13.9571 22.9802 13.7942 23.4371 13.4889C23.894 13.1836 24.2502 12.7496 24.4605 12.2419C24.6708 11.7342 24.7258 11.1755 24.6186 10.6365C24.5114 10.0975 24.2468 9.60242 23.8582 9.21383C23.4696 8.82524 22.9745 8.5606 22.4355 8.45339C21.8965 8.34618 21.3378 8.4012 20.8301 8.61151C20.3224 8.82181 19.8884 9.17795 19.5831 9.63488C19.2778 10.0918 19.1148 10.629 19.1148 11.1786C19.1148 11.9155 19.4076 12.6222 19.9287 13.1433C20.4498 13.6644 21.1565 13.9571 21.8934 13.9571ZM21.8934 9.67143C22.1915 9.67143 22.4829 9.75982 22.7307 9.92543C22.9786 10.091 23.1718 10.3264 23.2858 10.6018C23.3999 10.8772 23.4298 11.1802 23.3716 11.4726C23.3134 11.765 23.1699 12.0335 22.9591 12.2443C22.7483 12.4551 22.4798 12.5986 22.1874 12.6568C21.8951 12.7149 21.5921 12.6851 21.3167 12.571C21.0413 12.4569 20.8059 12.2637 20.6403 12.0159C20.4747 11.768 20.3863 11.4767 20.3863 11.1786C20.3863 10.7789 20.5451 10.3955 20.8277 10.1129C21.1103 9.83022 21.4937 9.67143 21.8934 9.67143Z" fill="#4B4EFF" stroke="#4B4EFF" stroke-width="0.2"/>
<path d="M16 0.9C13.0135 0.9 10.0941 1.7856 7.61089 3.44481C5.12771 5.10402 3.19231 7.46231 2.04943 10.2215C0.906543 12.9806 0.607512 16.0167 1.19015 18.9459C1.77279 21.875 3.21092 24.5655 5.32269 26.6773C7.43447 28.7891 10.125 30.2272 13.0541 30.8098C15.9833 31.3925 19.0194 31.0935 21.7785 29.9506C24.5377 28.8077 26.896 26.8723 28.5552 24.3891C30.2144 21.9059 31.1 18.9865 31.1 16C31.1 11.9952 29.5091 8.15448 26.6773 5.32269C23.8455 2.49089 20.0048 0.9 16 0.9ZM16 29.8286C13.265 29.8286 10.5914 29.0175 8.31726 27.498C6.04317 25.9785 4.27072 23.8188 3.22407 21.292C2.17742 18.7651 1.90357 15.9847 2.43715 13.3022C2.97073 10.6197 4.28777 8.15568 6.22173 6.22172C8.15569 4.28776 10.6197 2.97072 13.3022 2.43714C15.9847 1.90356 18.7651 2.17741 21.292 3.22407C23.8188 4.27072 25.9785 6.04316 27.498 8.31726C29.0175 10.5914 29.8286 13.265 29.8286 16C29.8286 19.6676 28.3716 23.1849 25.7783 25.7783C23.1849 28.3716 19.6676 29.8286 16 29.8286Z" fill="#4B4EFF" stroke="#4B4EFF" stroke-width="0.2"/>
<path d="M15.0727 23.136L15.0726 23.136L15.0743 23.1381C15.1838 23.2792 15.3241 23.3934 15.4845 23.472C15.6449 23.5505 15.8211 23.5913 15.9997 23.5913C16.1783 23.5913 16.3545 23.5505 16.5149 23.472C16.6753 23.3934 16.8156 23.2792 16.9251 23.1381L16.9252 23.1381L16.9267 23.136C17.0815 22.9253 17.2883 22.7585 17.527 22.6519C17.7655 22.5454 18.0275 22.5028 18.2874 22.5281C18.5982 22.5633 18.8904 22.6943 19.1234 22.903C19.3371 23.0944 19.4913 23.3425 19.5687 23.6177C18.458 24.1607 17.2379 24.4441 16.0008 24.4459C14.7636 24.4477 13.5426 24.1678 12.4303 23.6279C12.5057 23.3514 12.6586 23.1016 12.8717 22.9083C13.1038 22.6978 13.3958 22.5649 13.707 22.528C13.9677 22.5018 14.2307 22.5441 14.4702 22.6506C14.7098 22.7572 14.9175 22.9245 15.0727 23.136ZM15.9978 22.2634C15.7221 21.9262 15.3706 21.6581 14.9711 21.4813C14.5308 21.2865 14.0474 21.2094 13.5683 21.2577L13.5683 21.2577L13.5671 21.2578C13.0559 21.3152 12.5707 21.5134 12.1654 21.8303C11.7944 22.1205 11.5038 22.4998 11.3201 22.9319C10.0689 22.022 9.11332 20.7637 8.57273 19.3143H23.4268C22.8848 20.7715 21.9235 22.0358 20.6641 22.9478C20.482 22.512 20.1915 22.129 19.8193 21.8359C19.4129 21.5159 18.9252 21.3157 18.4112 21.2578C17.9339 21.2014 17.4502 21.2751 17.0114 21.471C16.6133 21.6487 16.2655 21.921 15.9978 22.2634ZM24.5711 15.9H7.42829C7.25969 15.9 7.09799 15.967 6.97877 16.0862C6.85956 16.2054 6.79258 16.3671 6.79258 16.5357C6.79258 18.9776 7.76261 21.3195 9.48929 23.0462C11.216 24.7729 13.5578 25.7429 15.9997 25.7429C18.4416 25.7429 20.7835 24.7729 22.5102 23.0462C24.2368 21.3195 25.2069 18.9776 25.2069 16.5357C25.2069 16.3671 25.1399 16.2054 25.0207 16.0862C24.9014 15.967 24.7397 15.9 24.5711 15.9ZM8.07383 17.1715H23.9277C23.9041 17.4639 23.8643 17.7548 23.8087 18.0429H8.21053C8.14896 17.7551 8.10332 17.4642 8.07383 17.1715Z" fill="#4B4EFF" stroke="#4B4EFF" stroke-width="0.2"/>
</svg>
