<svg width="32" height="32" viewBox="0 0 32 32" fill="none" xmlns="http://www.w3.org/2000/svg">
<path d="M10.1063 8.40002C9.55676 8.40002 9.01955 8.56298 8.56262 8.86829C8.10568 9.1736 7.74955 9.60756 7.53924 10.1153C7.32894 10.623 7.27391 11.1817 7.38113 11.7207C7.48834 12.2596 7.75297 12.7547 8.14156 13.1433C8.53015 13.5319 9.02524 13.7966 9.56423 13.9038C10.1032 14.011 10.6619 13.956 11.1696 13.7457C11.6773 13.5353 12.1113 13.1792 12.4166 12.7223C12.7219 12.2653 12.8849 11.7281 12.8849 11.1786C12.8849 10.4417 12.5921 9.73492 12.0711 9.21384C11.55 8.69276 10.8432 8.40002 10.1063 8.40002ZM10.1063 12.6857C9.80822 12.6857 9.51683 12.5973 9.26898 12.4317C9.02114 12.2661 8.82796 12.0307 8.71389 11.7553C8.59982 11.48 8.56997 11.1769 8.62812 10.8846C8.68628 10.5922 8.82982 10.3237 9.0406 10.1129C9.25137 9.9021 9.51992 9.75856 9.81228 9.7004C10.1046 9.64225 10.4077 9.6721 10.6831 9.78617C10.9585 9.90024 11.1938 10.0934 11.3595 10.3413C11.5251 10.5891 11.6134 10.8805 11.6134 11.1786C11.6134 11.5783 11.4547 11.9617 11.172 12.2443C10.8894 12.5269 10.506 12.6857 10.1063 12.6857Z" fill="#4B4EFF" stroke="#4B4EFF" stroke-width="0.2"/>
<path d="M21.8915 8.40002C21.3419 8.40002 20.8047 8.56298 20.3478 8.86829C19.8908 9.1736 19.5347 9.60756 19.3244 10.1153C19.1141 10.623 19.0591 11.1817 19.1663 11.7207C19.2735 12.2596 19.5381 12.7547 19.9267 13.1433C20.3153 13.5319 20.8104 13.7966 21.3494 13.9038C21.8884 14.011 22.4471 13.956 22.9548 13.7457C23.4625 13.5353 23.8964 13.1792 24.2018 12.7223C24.5071 12.2653 24.67 11.7281 24.67 11.1786C24.67 10.8137 24.5982 10.4524 24.4585 10.1153C24.3189 9.77816 24.1142 9.47185 23.8562 9.21384C23.5982 8.95583 23.2919 8.75116 22.9548 8.61152C22.6177 8.47188 22.2564 8.40002 21.8915 8.40002ZM21.8915 12.6857C21.5934 12.6857 21.302 12.5973 21.0541 12.4317C20.8063 12.2661 20.6131 12.0307 20.499 11.7553C20.385 11.48 20.3551 11.1769 20.4133 10.8846C20.4714 10.5922 20.615 10.3237 20.8258 10.1129C21.0365 9.9021 21.3051 9.75856 21.5974 9.7004C21.8898 9.64225 22.1928 9.6721 22.4682 9.78617C22.7436 9.90024 22.979 10.0934 23.1446 10.3413C23.3102 10.5891 23.3986 10.8805 23.3986 11.1786C23.3986 11.5783 23.2398 11.9617 22.9572 12.2443C22.6745 12.5269 22.2912 12.6857 21.8915 12.6857Z" fill="#4B4EFF" stroke="#4B4EFF" stroke-width="0.2"/>
<path d="M16 0.9C13.0135 0.9 10.0941 1.7856 7.61089 3.44481C5.12771 5.10402 3.19231 7.46231 2.04943 10.2215C0.906543 12.9806 0.607512 16.0167 1.19015 18.9459C1.77279 21.875 3.21092 24.5655 5.32269 26.6773C7.43447 28.7891 10.125 30.2272 13.0541 30.8098C15.9833 31.3925 19.0194 31.0935 21.7785 29.9506C24.5377 28.8077 26.896 26.8723 28.5552 24.3891C30.2144 21.9059 31.1 18.9865 31.1 16C31.1 11.9952 29.5091 8.15448 26.6773 5.32269C23.8455 2.49089 20.0048 0.9 16 0.9ZM16 29.8286C13.265 29.8286 10.5914 29.0175 8.31726 27.498C6.04317 25.9785 4.27072 23.8188 3.22407 21.292C2.17742 18.7651 1.90357 15.9847 2.43715 13.3022C2.97073 10.6197 4.28777 8.15568 6.22173 6.22172C8.15569 4.28776 10.6197 2.97072 13.3022 2.43714C15.9847 1.90356 18.7651 2.17741 21.292 3.22407C23.8188 4.27072 25.9785 6.04316 27.498 8.31726C29.0175 10.5914 29.8286 13.265 29.8286 16C29.8286 19.6676 28.3716 23.1849 25.7783 25.7783C23.1849 28.3716 19.6676 29.8286 16 29.8286Z" fill="#4B4EFF" stroke="#4B4EFF" stroke-width="0.2"/>
<path d="M18.678 16.9714H13.3209C13.1523 16.9714 12.9906 17.0384 12.8714 17.1576C12.7521 17.2768 12.6852 17.4385 12.6852 17.6071C12.6852 17.7757 12.7521 17.9374 12.8714 18.0566C12.9906 18.1759 13.1523 18.2428 13.3209 18.2428H18.678C18.8466 18.2428 19.0083 18.1759 19.1275 18.0566C19.2468 17.9374 19.3137 17.7757 19.3137 17.6071C19.3137 17.4385 19.2468 17.2768 19.1275 17.1576C19.0083 17.0384 18.8466 16.9714 18.678 16.9714Z" fill="#4B4EFF" stroke="#4B4EFF" stroke-width="0.2"/>
</svg>
