<svg width="32" height="32" viewBox="0 0 32 32" fill="none" xmlns="http://www.w3.org/2000/svg">
<path d="M9.57087 9.47141C8.70346 9.47141 7.85553 9.72863 7.1343 10.2105C6.41307 10.6924 5.85094 11.3774 5.519 12.1788C5.18706 12.9802 5.1002 13.862 5.26943 14.7127C5.43865 15.5635 5.85635 16.3449 6.4697 16.9583C7.08306 17.5716 7.86452 17.9893 8.71526 18.1586C9.56601 18.3278 10.4478 18.2409 11.2492 17.909C12.0506 17.5771 12.7356 17.0149 13.2175 16.2937C13.6994 15.5725 13.9566 14.7245 13.9566 13.8571C13.9566 12.694 13.4945 11.5784 12.672 10.756C11.8496 9.93348 10.734 9.47141 9.57087 9.47141ZM9.57087 16.9714C8.95492 16.9714 8.35281 16.7888 7.84067 16.4466C7.32853 16.1044 6.92936 15.618 6.69365 15.0489C6.45793 14.4798 6.39626 13.8537 6.51643 13.2496C6.63659 12.6454 6.9332 12.0905 7.36874 11.655C7.80428 11.2195 8.35919 10.9228 8.9633 10.8027C9.56742 10.6825 10.1936 10.7442 10.7627 10.9799C11.3317 11.2156 11.8181 11.6148 12.1603 12.1269C12.5025 12.6391 12.6852 13.2412 12.6852 13.8571C12.6852 14.6831 12.357 15.4752 11.773 16.0593C11.189 16.6433 10.3968 16.9714 9.57087 16.9714Z" fill="#4B4EFF" stroke="#4B4EFF" stroke-width="0.2"/>
<path d="M16 0.9C13.0135 0.9 10.0941 1.7856 7.61089 3.44481C5.12771 5.10402 3.19231 7.46231 2.04943 10.2215C0.906543 12.9806 0.607512 16.0167 1.19015 18.9459C1.77279 21.875 3.21092 24.5655 5.32269 26.6773C7.43447 28.7891 10.125 30.2272 13.0541 30.8098C15.9833 31.3925 19.0194 31.0935 21.7785 29.9506C24.5377 28.8077 26.896 26.8723 28.5552 24.3891C30.2144 21.9059 31.1 18.9865 31.1 16C31.1 11.9952 29.5091 8.15448 26.6773 5.32269C23.8455 2.49089 20.0048 0.9 16 0.9ZM16 29.8286C13.265 29.8286 10.5914 29.0175 8.31726 27.498C6.04317 25.9785 4.27072 23.8188 3.22407 21.292C2.17742 18.7651 1.90357 15.9847 2.43715 13.3022C2.97073 10.6197 4.28777 8.15568 6.22173 6.22172C8.15569 4.28776 10.6197 2.97072 13.3022 2.43714C15.9847 1.90356 18.7651 2.17741 21.292 3.22407C23.8188 4.27072 25.9785 6.04316 27.498 8.31726C29.0175 10.5914 29.8286 13.265 29.8286 16C29.8286 19.6676 28.3716 23.1849 25.7783 25.7783C23.1849 28.3716 19.6676 29.8286 16 29.8286Z" fill="#4B4EFF" stroke="#4B4EFF" stroke-width="0.2"/>
<path d="M17.6074 19.1143H14.3931C14.2245 19.1143 14.0628 19.1812 13.9436 19.3005C13.8244 19.4197 13.7574 19.5814 13.7574 19.75C13.7574 19.9186 13.8244 20.0803 13.9436 20.1995C14.0628 20.3187 14.2245 20.3857 14.3931 20.3857H17.6074C17.776 20.3857 17.9377 20.3187 18.0569 20.1995C18.1762 20.0803 18.2431 19.9186 18.2431 19.75C18.2431 19.5814 18.1762 19.4197 18.0569 19.3005C17.9377 19.1812 17.776 19.1143 17.6074 19.1143Z" fill="#4B4EFF" stroke="#4B4EFF" stroke-width="0.2"/>
<path d="M9.57143 15.0286C10.2184 15.0286 10.7429 14.5041 10.7429 13.8571C10.7429 13.2102 10.2184 12.6857 9.57143 12.6857C8.92447 12.6857 8.4 13.2102 8.4 13.8571C8.4 14.5041 8.92447 15.0286 9.57143 15.0286Z" fill="#4B4EFF" stroke="#4B4EFF" stroke-width="0.2"/>
<path d="M22.4283 9.47141C21.5609 9.47141 20.7129 9.72863 19.9917 10.2105C19.2705 10.6924 18.7084 11.3774 18.3764 12.1788C18.0445 12.9802 17.9576 13.862 18.1269 14.7127C18.2961 15.5635 18.7138 16.3449 19.3271 16.9583C19.9405 17.5716 20.7219 17.9893 21.5727 18.1586C22.4234 18.3278 23.3052 18.2409 24.1066 17.909C24.908 17.5771 25.593 17.0149 26.0749 16.2937C26.5568 15.5725 26.814 14.7245 26.814 13.8571C26.814 12.694 26.3519 11.5784 25.5295 10.756C24.707 9.93348 23.5915 9.47141 22.4283 9.47141ZM22.4283 16.9714C21.8123 16.9714 21.2102 16.7888 20.6981 16.4466C20.1859 16.1044 19.7868 15.618 19.5511 15.0489C19.3154 14.4798 19.2537 13.8537 19.3738 13.2496C19.494 12.6454 19.7906 12.0905 20.2262 11.655C20.6617 11.2195 21.2166 10.9228 21.8207 10.8027C22.4248 10.6825 23.051 10.7442 23.6201 10.9799C24.1891 11.2156 24.6755 11.6148 25.0177 12.1269C25.3599 12.6391 25.5426 13.2412 25.5426 13.8571C25.5426 14.6831 25.2145 15.4752 24.6304 16.0593C24.0464 16.6433 23.2543 16.9714 22.4283 16.9714Z" fill="#4B4EFF" stroke="#4B4EFF" stroke-width="0.2"/>
<path d="M22.4289 15.0286C23.0758 15.0286 23.6003 14.5041 23.6003 13.8571C23.6003 13.2102 23.0758 12.6857 22.4289 12.6857C21.7819 12.6857 21.2574 13.2102 21.2574 13.8571C21.2574 14.5041 21.7819 15.0286 22.4289 15.0286Z" fill="#4B4EFF" stroke="#4B4EFF" stroke-width="0.2"/>
<path d="M8.50028 20.1857C8.05668 20.1857 7.62305 20.3173 7.25422 20.5637C6.88538 20.8102 6.59791 21.1605 6.42815 21.5703C6.25839 21.9801 6.21398 22.4311 6.30052 22.8662C6.38706 23.3012 6.60067 23.7009 6.91434 24.0145C7.22801 24.3282 7.62765 24.5418 8.06272 24.6284C8.49779 24.7149 8.94876 24.6705 9.35858 24.5007C9.76841 24.331 10.1187 24.0435 10.3651 23.6747C10.6116 23.3058 10.7431 22.8722 10.7431 22.4286C10.7431 21.8338 10.5068 21.2633 10.0862 20.8427C9.6656 20.422 9.09512 20.1857 8.50028 20.1857ZM8.50028 23.4C8.30815 23.4 8.12033 23.343 7.96058 23.2363C7.80083 23.1296 7.67632 22.9778 7.6028 22.8003C7.52927 22.6228 7.51003 22.4275 7.54752 22.2391C7.585 22.0506 7.67752 21.8775 7.81338 21.7417C7.94923 21.6058 8.12232 21.5133 8.31076 21.4758C8.4992 21.4383 8.69452 21.4576 8.87203 21.5311C9.04954 21.6046 9.20125 21.7291 9.30799 21.8889C9.41474 22.0486 9.47171 22.2365 9.47171 22.4286C9.47171 22.6862 9.36936 22.9333 9.18718 23.1155C9.00501 23.2977 8.75792 23.4 8.50028 23.4Z" fill="#4B4EFF" stroke="#4B4EFF" stroke-width="0.2"/>
<path d="M23.5003 20.1857C23.0567 20.1857 22.6231 20.3173 22.2542 20.5637C21.8854 20.8102 21.5979 21.1605 21.4282 21.5703C21.2584 21.9801 21.214 22.4311 21.3005 22.8662C21.3871 23.3012 21.6007 23.7009 21.9143 24.0145C22.228 24.3282 22.6276 24.5418 23.0627 24.6284C23.4978 24.7149 23.9488 24.6705 24.3586 24.5007C24.7684 24.331 25.1187 24.0435 25.3651 23.6747C25.6116 23.3058 25.7431 22.8722 25.7431 22.4286C25.7431 21.8338 25.5068 21.2633 25.0862 20.8427C24.6656 20.422 24.0951 20.1857 23.5003 20.1857ZM23.5003 23.4C23.3081 23.4 23.1203 23.343 22.9606 23.2363C22.8008 23.1296 22.6763 22.9778 22.6028 22.8003C22.5293 22.6228 22.51 22.4275 22.5475 22.2391C22.585 22.0506 22.6775 21.8775 22.8134 21.7417C22.9492 21.6058 23.1223 21.5133 23.3108 21.4758C23.4992 21.4383 23.6945 21.4576 23.872 21.5311C24.0495 21.6046 24.2013 21.7291 24.308 21.8889C24.4147 22.0486 24.4717 22.2365 24.4717 22.4286C24.4717 22.6862 24.3694 22.9333 24.1872 23.1155C24.005 23.2977 23.7579 23.4 23.5003 23.4Z" fill="#4B4EFF" stroke="#4B4EFF" stroke-width="0.2"/>
</svg>
