<svg width="58" height="58" viewBox="0 0 58 58" fill="none" xmlns="http://www.w3.org/2000/svg">
<g id="Group 140">
<path id="Vector" d="M46.0793 31.5997C40.8993 34.6459 34.9993 36.2521 28.99 36.2521C22.9808 36.2521 17.0807 34.6459 11.9007 31.5997C11.6671 31.4941 11.4026 31.479 11.1584 31.5571C10.9142 31.6353 10.7077 31.8013 10.5788 32.023C10.4499 32.2446 10.4079 32.5062 10.4607 32.7571C10.5136 33.008 10.6577 33.2303 10.865 33.3812C16.3599 36.6091 22.6172 38.311 28.99 38.311C35.3629 38.311 41.6201 36.6091 47.115 33.3812C47.3224 33.2303 47.4664 33.008 47.5193 32.7571C47.5722 32.5062 47.5301 32.2446 47.4012 32.023C47.2724 31.8013 47.0658 31.6353 46.8217 31.5571C46.5775 31.479 46.313 31.4941 46.0793 31.5997Z" fill="#4B4EFF"/>
<path id="Vector_2" d="M29 0C23.2643 0 17.6575 1.70082 12.8885 4.88738C8.11945 8.07394 4.40245 12.6031 2.20751 17.9022C0.0125652 23.2012 -0.561731 29.0322 0.55724 34.6576C1.67621 40.2831 4.43819 45.4504 8.49391 49.5061C12.5496 53.5618 17.7169 56.3238 23.3424 57.4428C28.9678 58.5617 34.7988 57.9874 40.0978 55.7925C45.3969 53.5975 49.9261 49.8806 53.1126 45.1115C56.2992 40.3425 58 34.7356 58 29C58 21.3087 54.9446 13.9325 49.5061 8.4939C44.0675 3.05535 36.6913 0 29 0ZM29 55.9286C23.674 55.9286 18.4677 54.3492 14.0393 51.3903C9.61092 48.4313 6.15942 44.2257 4.12126 39.3051C2.0831 34.3846 1.54982 28.9701 2.58887 23.7465C3.62791 18.5229 6.19261 13.7246 9.95864 9.95862C13.7247 6.1926 18.5229 3.6279 23.7465 2.58885C28.9701 1.54981 34.3846 2.08308 39.3051 4.12124C44.2257 6.1594 48.4313 9.6109 51.3903 14.0393C54.3492 18.4677 55.9286 23.674 55.9286 29C55.9286 36.1419 53.0915 42.9913 48.0414 48.0414C42.9913 53.0914 36.1419 55.9286 29 55.9286Z" fill="#4B4EFF"/>
<path id="Vector_3" d="M13.4644 24.8571C13.7391 24.8571 14.0026 24.748 14.1968 24.5538C14.391 24.3595 14.5001 24.0961 14.5001 23.8214C14.5001 22.9973 14.8275 22.207 15.4102 21.6243C15.9929 21.0416 16.7832 20.7143 17.6073 20.7143C18.4313 20.7143 19.2217 21.0416 19.8044 21.6243C20.3871 22.207 20.7144 22.9973 20.7144 23.8214C20.7144 24.0961 20.8235 24.3595 21.0178 24.5538C21.212 24.748 21.4754 24.8571 21.7501 24.8571C22.0248 24.8571 22.2883 24.748 22.4825 24.5538C22.6767 24.3595 22.7859 24.0961 22.7859 23.8214C22.7859 22.448 22.2403 21.1308 21.2691 20.1596C20.2979 19.1884 18.9807 18.6428 17.6073 18.6428C16.2338 18.6428 14.9166 19.1884 13.9455 20.1596C12.9743 21.1308 12.4287 22.448 12.4287 23.8214C12.4287 24.0961 12.5378 24.3595 12.7321 24.5538C12.9263 24.748 13.1897 24.8571 13.4644 24.8571Z" fill="#4B4EFF"/>
<path id="Vector_4" d="M36.2496 24.8571C36.5243 24.8571 36.7877 24.748 36.9819 24.5538C37.1762 24.3595 37.2853 24.0961 37.2853 23.8214C37.2853 22.9973 37.6127 22.207 38.1954 21.6243C38.7781 21.0416 39.5684 20.7143 40.3924 20.7143C41.2165 20.7143 42.0068 21.0416 42.5895 21.6243C43.1722 22.207 43.4996 22.9973 43.4996 23.8214C43.4996 24.0961 43.6087 24.3595 43.8029 24.5538C43.9972 24.748 44.2606 24.8571 44.5353 24.8571C44.81 24.8571 45.0734 24.748 45.2677 24.5538C45.4619 24.3595 45.571 24.0961 45.571 23.8214C45.571 22.448 45.0254 21.1308 44.0542 20.1596C43.0831 19.1884 41.7659 18.6428 40.3924 18.6428C39.019 18.6428 37.7018 19.1884 36.7306 20.1596C35.7595 21.1308 35.2139 22.448 35.2139 23.8214C35.2139 24.0961 35.323 24.3595 35.5172 24.5538C35.7115 24.748 35.9749 24.8571 36.2496 24.8571Z" fill="#4B4EFF"/>
</g>
</svg>
