<svg width="30" height="30" viewBox="0 0 30 30" fill="none" xmlns="http://www.w3.org/2000/svg">
<g id="Group 135">
<path id="Vector" d="M8.57185 8.57141C7.72421 8.57141 6.89562 8.82276 6.19083 9.29368C5.48605 9.7646 4.93674 10.4339 4.61237 11.2171C4.28799 12.0002 4.20312 12.8619 4.36848 13.6932C4.53385 14.5246 4.94202 15.2882 5.54139 15.8876C6.14076 16.4869 6.9044 16.8951 7.73575 17.0605C8.56709 17.2259 9.42881 17.141 10.2119 16.8166C10.995 16.4922 11.6644 15.9429 12.1353 15.2381C12.6062 14.5334 12.8576 13.7048 12.8576 12.8571C12.8576 11.7205 12.406 10.6304 11.6023 9.82667C10.7986 9.02294 9.70849 8.57141 8.57185 8.57141ZM8.57185 16.0714C7.93612 16.0714 7.31467 15.8829 6.78609 15.5297C6.2575 15.1765 5.84552 14.6745 5.60224 14.0872C5.35895 13.4998 5.2953 12.8536 5.41932 12.23C5.54335 11.6065 5.84948 11.0338 6.29901 10.5843C6.74853 10.1348 7.32126 9.82862 7.94477 9.7046C8.56828 9.58058 9.21457 9.64423 9.8019 9.88751C10.3892 10.1308 10.8912 10.5428 11.2444 11.0714C11.5976 11.5999 11.7861 12.2214 11.7861 12.8571C11.7861 13.7096 11.4475 14.5272 10.8447 15.13C10.2419 15.7328 9.42433 16.0714 8.57185 16.0714Z" fill="#4B4EFF"/>
<path id="Vector_2" d="M15 0C12.0333 0 9.13319 0.879735 6.66645 2.52796C4.19971 4.17618 2.27713 6.51886 1.14181 9.25975C0.00649925 12.0006 -0.290551 15.0166 0.288227 17.9263C0.867006 20.8361 2.29562 23.5088 4.3934 25.6066C6.49119 27.7044 9.16394 29.133 12.0736 29.7118C14.9834 30.2905 17.9994 29.9935 20.7403 28.8582C23.4811 27.7229 25.8238 25.8003 27.472 23.3335C29.1203 20.8668 30 17.9667 30 15C30 11.0217 28.4196 7.20644 25.6066 4.3934C22.7936 1.58035 18.9783 0 15 0ZM15 28.9286C12.2452 28.9286 9.55225 28.1117 7.2617 26.5812C4.97116 25.0507 3.1859 22.8753 2.13168 20.3302C1.07746 17.7851 0.801632 14.9845 1.33907 12.2827C1.87651 9.58079 3.20307 7.09896 5.15102 5.15101C7.09896 3.20307 9.5808 1.8765 12.2827 1.33906C14.9846 0.801625 17.7851 1.07746 20.3302 2.13168C22.8753 3.1859 25.0507 4.97116 26.5812 7.2617C28.1117 9.55224 28.9286 12.2452 28.9286 15C28.9286 18.6941 27.4611 22.2369 24.849 24.849C22.2369 27.4611 18.6941 28.9286 15 28.9286Z" fill="#4B4EFF"/>
<path id="Vector_3" d="M16.6074 18.2142H13.3931C13.2511 18.2142 13.1148 18.2707 13.0143 18.3711C12.9139 18.4716 12.8574 18.6079 12.8574 18.7499C12.8574 18.892 12.9139 19.0283 13.0143 19.1288C13.1148 19.2292 13.2511 19.2857 13.3931 19.2857H16.6074C16.7495 19.2857 16.8858 19.2292 16.9862 19.1288C17.0867 19.0283 17.1431 18.892 17.1431 18.7499C17.1431 18.6079 17.0867 18.4716 16.9862 18.3711C16.8858 18.2707 16.7495 18.2142 16.6074 18.2142Z" fill="#4B4EFF"/>
<path id="Vector_4" d="M8.57143 13.9286C9.16316 13.9286 9.64286 13.4489 9.64286 12.8571C9.64286 12.2654 9.16316 11.7857 8.57143 11.7857C7.97969 11.7857 7.5 12.2654 7.5 12.8571C7.5 13.4489 7.97969 13.9286 8.57143 13.9286Z" fill="#4B4EFF"/>
<path id="Vector_5" d="M21.4283 8.57141C20.5807 8.57141 19.7521 8.82276 19.0473 9.29368C18.3425 9.7646 17.7932 10.4339 17.4688 11.2171C17.1444 12.0002 17.0596 12.8619 17.2249 13.6932C17.3903 14.5246 17.7985 15.2882 18.3978 15.8876C18.9972 16.4869 19.7608 16.8951 20.5922 17.0605C21.4235 17.2259 22.2853 17.141 23.0684 16.8166C23.8515 16.4922 24.5208 15.9429 24.9917 15.2381C25.4627 14.5334 25.714 13.7048 25.714 12.8571C25.714 11.7205 25.2625 10.6304 24.4588 9.82667C23.655 9.02294 22.5649 8.57141 21.4283 8.57141ZM21.4283 16.0714C20.7926 16.0714 20.1711 15.8829 19.6425 15.5297C19.1139 15.1765 18.702 14.6745 18.4587 14.0872C18.2154 13.4998 18.1517 12.8536 18.2758 12.23C18.3998 11.6065 18.7059 11.0338 19.1555 10.5843C19.605 10.1348 20.1777 9.82862 20.8012 9.7046C21.4247 9.58058 22.071 9.64423 22.6583 9.88751C23.2457 10.1308 23.7477 10.5428 24.1009 11.0714C24.4541 11.5999 24.6426 12.2214 24.6426 12.8571C24.6426 13.7096 24.3039 14.5272 23.7011 15.13C23.0983 15.7328 22.2808 16.0714 21.4283 16.0714Z" fill="#4B4EFF"/>
<path id="Vector_6" d="M21.4289 13.9286C22.0206 13.9286 22.5003 13.4489 22.5003 12.8571C22.5003 12.2654 22.0206 11.7857 21.4289 11.7857C20.8371 11.7857 20.3574 12.2654 20.3574 12.8571C20.3574 13.4489 20.8371 13.9286 21.4289 13.9286Z" fill="#4B4EFF"/>
<path id="Vector_7" d="M7.50028 19.2857C7.07646 19.2857 6.66216 19.4114 6.30977 19.6468C5.95738 19.8823 5.68273 20.217 5.52054 20.6085C5.35835 21.0001 5.31591 21.4309 5.3986 21.8466C5.48128 22.2623 5.68537 22.6441 5.98505 22.9438C6.28474 23.2435 6.66656 23.4476 7.08223 23.5302C7.4979 23.6129 7.92876 23.5705 8.32032 23.4083C8.71187 23.2461 9.04654 22.9715 9.282 22.6191C9.51746 22.2667 9.64314 21.8524 9.64314 21.4286C9.64314 20.8602 9.41737 20.3152 9.01551 19.9133C8.61364 19.5115 8.0686 19.2857 7.50028 19.2857ZM7.50028 22.5C7.28837 22.5 7.08122 22.4372 6.90503 22.3194C6.72883 22.2017 6.5915 22.0344 6.51041 21.8386C6.42932 21.6428 6.4081 21.4274 6.44944 21.2195C6.49078 21.0117 6.59282 20.8208 6.74267 20.6709C6.89251 20.5211 7.08342 20.4191 7.29125 20.3777C7.49909 20.3364 7.71452 20.3576 7.9103 20.4387C8.10608 20.5198 8.27341 20.6571 8.39114 20.8333C8.50887 21.0095 8.57171 21.2167 8.57171 21.4286C8.57171 21.7127 8.45883 21.9852 8.25789 22.1862C8.05696 22.3871 7.78444 22.5 7.50028 22.5Z" fill="#4B4EFF"/>
<path id="Vector_8" d="M22.5003 19.2857C22.0765 19.2857 21.6622 19.4114 21.3098 19.6468C20.9574 19.8823 20.6827 20.217 20.5205 20.6085C20.3584 21.0001 20.3159 21.4309 20.3986 21.8466C20.4813 22.2623 20.6854 22.6441 20.9851 22.9438C21.2847 23.2435 21.6666 23.4476 22.0822 23.5302C22.4979 23.6129 22.9288 23.5705 23.3203 23.4083C23.7119 23.2461 24.0465 22.9715 24.282 22.6191C24.5175 22.2667 24.6431 21.8524 24.6431 21.4286C24.6431 20.8602 24.4174 20.3152 24.0155 19.9133C23.6136 19.5115 23.0686 19.2857 22.5003 19.2857ZM22.5003 22.5C22.2884 22.5 22.0812 22.4372 21.905 22.3194C21.7288 22.2017 21.5915 22.0344 21.5104 21.8386C21.4293 21.6428 21.4081 21.4274 21.4494 21.2195C21.4908 21.0117 21.5928 20.8208 21.7427 20.6709C21.8925 20.5211 22.0834 20.4191 22.2913 20.3777C22.4991 20.3364 22.7145 20.3576 22.9103 20.4387C23.1061 20.5198 23.2734 20.6571 23.3911 20.8333C23.5089 21.0095 23.5717 21.2167 23.5717 21.4286C23.5717 21.7127 23.4588 21.9852 23.2579 22.1862C23.057 22.3871 22.7844 22.5 22.5003 22.5Z" fill="#4B4EFF"/>
</g>
</svg>
