<svg width="30" height="28" viewBox="0 0 30 28" fill="none" xmlns="http://www.w3.org/2000/svg">
<path id="Vector" d="M27.5773 2.60135C26.0079 0.935427 23.9277 0.0231378 21.7075 0.0231378C19.4872 0.0231378 17.4009 0.942037 15.8314 2.60796L15.0125 3.47728L14.1779 2.59143C12.6085 0.925511 10.5159 0 8.29563 0C6.08161 0 3.99525 0.9189 2.43204 2.57821C0.859488 4.25074 -0.00619456 6.46535 3.33714e-05 8.81879C3.33714e-05 11.1755 0.871943 13.3835 2.44138 15.0495L14.3865 27.729C14.5516 27.9041 14.7758 28 14.9907 28C15.2055 28 15.4297 27.9108 15.5948 27.7356L27.5648 15.0759C29.1343 13.41 30 11.1954 30 8.83863C30.0062 6.48518 29.1467 4.27057 27.5773 2.60135ZM26.3566 13.7901L14.9907 25.8085L3.6496 13.7703C2.40401 12.4481 1.71583 10.693 1.71583 8.8221C1.71583 6.95125 2.39779 5.19608 3.64337 3.88053C4.88273 2.56499 6.53624 1.83449 8.29252 1.83449C10.055 1.83449 11.7148 2.56499 12.9604 3.88714L14.399 5.41424C14.7353 5.77122 15.2771 5.77122 15.6135 5.41424L17.0396 3.90037C18.2852 2.57821 19.945 1.84772 21.7013 1.84772C23.4575 1.84772 25.111 2.57821 26.3566 3.89376C27.6022 5.21591 28.2842 6.97108 28.2842 8.84193C28.2904 10.7095 27.6022 12.4646 26.3566 13.7901Z" fill="#4B4EFF"/>
</svg>
