<svg width="32" height="32" viewBox="0 0 32 32" fill="none" xmlns="http://www.w3.org/2000/svg">
<path d="M16 0.9C13.0135 0.9 10.0941 1.7856 7.61089 3.44481C5.12771 5.10402 3.19231 7.46231 2.04943 10.2215C0.906543 12.9806 0.607512 16.0167 1.19015 18.9459C1.77279 21.875 3.21092 24.5655 5.32269 26.6773C7.43447 28.7891 10.125 30.2272 13.0541 30.8098C15.9833 31.3925 19.0194 31.0935 21.7785 29.9506C24.5377 28.8077 26.896 26.8723 28.5552 24.3891C30.2144 21.9059 31.1 18.9865 31.1 16C31.1 11.9952 29.5091 8.15448 26.6773 5.32269C23.8455 2.49089 20.0048 0.9 16 0.9ZM16 29.8286C13.265 29.8286 10.5914 29.0175 8.31726 27.498C6.04317 25.9785 4.27072 23.8188 3.22407 21.292C2.17742 18.7651 1.90357 15.9847 2.43715 13.3022C2.97073 10.6197 4.28777 8.15568 6.22173 6.22172C8.15569 4.28776 10.6197 2.97072 13.3022 2.43714C15.9847 1.90356 18.7651 2.17741 21.292 3.22407C23.8188 4.27072 25.9785 6.04316 27.498 8.31726C29.0175 10.5914 29.8286 13.265 29.8286 16C29.8286 19.6676 28.3716 23.1849 25.7783 25.7783C23.1849 28.3716 19.6676 29.8286 16 29.8286Z" fill="#4B4EFF" stroke="#4B4EFF" stroke-width="0.2"/>
<path d="M13.9566 11.1784L13.9566 11.1774C13.9542 10.9769 13.9298 10.7774 13.884 10.5827L14.1503 10.6923C14.1504 10.6924 14.1504 10.6924 14.1505 10.6924C14.3064 10.7572 14.4816 10.7575 14.6377 10.6932C14.7938 10.6288 14.918 10.5051 14.9829 10.3492C15.0478 10.1932 15.0481 10.0179 14.9837 9.86181C14.9193 9.70568 14.7956 9.58151 14.6397 9.51662L8.21114 6.83806L8.21111 6.83805C8.13391 6.80592 8.05114 6.7893 7.96752 6.78916C7.8839 6.78902 7.80107 6.80535 7.72377 6.83721C7.64646 6.86908 7.57618 6.91586 7.51696 6.97489C7.45773 7.03392 7.41071 7.10403 7.37857 7.18123C7.34644 7.25843 7.32983 7.3412 7.32969 7.42482C7.32955 7.50844 7.34587 7.59126 7.37774 7.66857C7.40961 7.74588 7.45639 7.81615 7.51542 7.87538C7.57438 7.93454 7.64441 7.98153 7.7215 8.01366C7.72159 8.01369 7.72167 8.01373 7.72176 8.01376L9.6811 8.84159C9.32578 9.06881 9.02605 9.37448 8.80559 9.73611C8.54992 10.1555 8.40999 10.6351 8.40004 11.1262C8.39009 11.6172 8.51048 12.1021 8.74894 12.5315C8.9874 12.9609 9.33542 13.3194 9.75753 13.5705C10.1796 13.8216 10.6608 13.9563 11.1519 13.9609C11.643 13.9655 12.1266 13.8399 12.5534 13.5968C12.9801 13.3537 13.3348 13.0018 13.5813 12.577C13.8278 12.1521 13.9573 11.6696 13.9566 11.1784ZM11.178 12.6857C10.88 12.6857 10.5886 12.5973 10.3407 12.4317C10.0929 12.2661 9.89969 12.0307 9.78562 11.7553C9.67155 11.4799 9.6417 11.1769 9.69985 10.8846C9.75801 10.5922 9.90155 10.3236 10.1123 10.1129C10.3231 9.90209 10.5917 9.75855 10.884 9.7004C11.1764 9.64225 11.4794 9.67209 11.7548 9.78616C12.0302 9.90024 12.2656 10.0934 12.4312 10.3413C12.5968 10.5891 12.6852 10.8805 12.6852 11.1786C12.6852 11.5783 12.5264 11.9616 12.2437 12.2443C11.9611 12.5269 11.5778 12.6857 11.178 12.6857Z" fill="#4B4EFF" stroke="#4B4EFF" stroke-width="0.2"/>
<path d="M11.1487 19.4646L11.1487 19.4646L11.1475 19.4673C11.0785 19.6174 11.0707 19.7885 11.1257 19.9443C11.1807 20.1001 11.2942 20.2283 11.4421 20.3019C11.5901 20.3754 11.7608 20.3885 11.9182 20.3383C12.0756 20.2882 12.2073 20.1787 12.2854 20.0331L12.2854 20.0331L12.2867 20.0305C12.3883 19.8273 12.6596 19.3813 13.2318 18.9859C13.8031 18.5912 14.6802 18.243 16.0009 18.243C17.3215 18.243 18.1986 18.5912 18.7706 18.9866C19.3434 19.3826 19.6161 19.83 19.7206 20.0363L19.7205 20.0363L19.7217 20.0384C19.7997 20.184 19.9314 20.2935 20.0888 20.3437C20.2462 20.3939 20.417 20.3808 20.5649 20.3072C20.7129 20.2337 20.8263 20.1054 20.8813 19.9496C20.9363 19.7939 20.9285 19.6228 20.8596 19.4727L20.8596 19.4726L20.8582 19.4697C20.5573 18.868 19.3387 16.9715 16.0009 16.9715C12.6631 16.9715 11.4444 18.8678 11.1487 19.4646Z" fill="#4B4EFF" stroke="#4B4EFF" stroke-width="0.2"/>
<path d="M18.1204 10.5887L17.8556 10.6977C17.8556 10.6977 17.8555 10.6977 17.8554 10.6978C17.6996 10.7626 17.5244 10.7629 17.3683 10.6985C17.2122 10.6342 17.088 10.5104 17.0231 10.3545C16.9582 10.1986 16.9579 10.0233 17.0223 9.86717C17.0866 9.71104 17.2104 9.58687 17.3663 9.52197M18.1204 10.5887L23.6679 7.00463L23.4922 6.96949M18.1204 10.5887C18.0738 10.7811 18.0482 10.9782 18.044 11.1765L18.044 11.1765L18.044 11.178C18.0412 11.6707 18.1694 12.1553 18.4156 12.5821C18.6618 13.009 19.017 13.3626 19.4449 13.6069C19.8728 13.8512 20.358 13.9773 20.8507 13.9723C21.3434 13.9673 21.8259 13.8314 22.2487 13.5785C22.6716 13.3256 23.0196 12.9648 23.2571 12.5331C23.4946 12.1014 23.613 11.6143 23.6002 11.1217C23.5874 10.6292 23.4438 10.1489 23.1842 9.73006C22.9607 9.36936 22.6579 9.06546 22.3001 8.84075L24.2574 8.01376C24.2575 8.01373 24.2576 8.01369 24.2577 8.01365C24.4135 7.94873 24.5371 7.82461 24.6014 7.66857C24.6658 7.51244 24.6655 7.33714 24.6006 7.18123C24.5357 7.02532 24.4115 6.90157 24.2554 6.83721C24.0993 6.77286 23.924 6.77315 23.7681 6.83805L23.4652 6.96409L23.4922 6.96949M18.1204 10.5887L23.8145 6.89055L23.7948 6.84342L23.7739 6.85212L23.4922 6.96949M17.3663 9.52197L17.4047 9.6143L17.3663 9.52199L17.3663 9.52197ZM17.3663 9.52197L23.4922 6.96949M20.8226 12.6857C20.5245 12.6857 20.2331 12.5973 19.9852 12.4317C19.7374 12.2661 19.5442 12.0307 19.4302 11.7553C19.3161 11.4799 19.2862 11.1769 19.3444 10.8846C19.4025 10.5922 19.5461 10.3236 19.7569 10.1129C19.9676 9.90209 20.2362 9.75855 20.5285 9.7004C20.8209 9.64225 21.1239 9.67209 21.3993 9.78616C21.6747 9.90024 21.9101 10.0934 22.0757 10.3413C22.2413 10.5891 22.3297 10.8805 22.3297 11.1786C22.3297 11.5783 22.1709 11.9616 21.8883 12.2443C21.6056 12.5269 21.2223 12.6857 20.8226 12.6857Z" fill="#4B4EFF" stroke="#4B4EFF" stroke-width="0.2"/>
</svg>
