<svg width="30" height="30" viewBox="0 0 30 30" fill="none" xmlns="http://www.w3.org/2000/svg">
<g id="Group 136">
<path id="Vector" d="M9.10728 12.8571C9.63705 12.8571 10.1549 12.7 10.5954 12.4057C11.0359 12.1114 11.3792 11.6931 11.582 11.2036C11.7847 10.7142 11.8377 10.1756 11.7344 9.65601C11.631 9.13642 11.3759 8.65914 11.0013 8.28454C10.6267 7.90993 10.1494 7.65482 9.62985 7.55147C9.11025 7.44812 8.57168 7.50116 8.08224 7.7039C7.59279 7.90663 7.17446 8.24995 6.88013 8.69044C6.58581 9.13093 6.42871 9.6488 6.42871 10.1786C6.42871 10.889 6.71092 11.5703 7.21325 12.0726C7.71558 12.5749 8.39688 12.8571 9.10728 12.8571ZM9.10728 8.57143C9.42514 8.57143 9.73587 8.66569 10.0002 8.84228C10.2645 9.01888 10.4704 9.26988 10.5921 9.56355C10.7137 9.85721 10.7456 10.1804 10.6835 10.4921C10.6215 10.8039 10.4685 11.0902 10.2437 11.315C10.0189 11.5398 9.73258 11.6928 9.42082 11.7548C9.10907 11.8168 8.78592 11.785 8.49226 11.6634C8.19859 11.5417 7.94759 11.3357 7.77099 11.0715C7.5944 10.8072 7.50014 10.4964 7.50014 10.1786C7.50014 9.75233 7.66946 9.34355 7.97086 9.04215C8.27226 8.74075 8.68104 8.57143 9.10728 8.57143Z" fill="#4B4EFF"/>
<path id="Vector_2" d="M20.8924 12.8571C21.4222 12.8571 21.9401 12.7 22.3806 12.4057C22.8211 12.1114 23.1644 11.6931 23.3671 11.2036C23.5698 10.7142 23.6229 10.1756 23.5195 9.65601C23.4162 9.13642 23.1611 8.65914 22.7865 8.28454C22.4119 7.90993 21.9346 7.65482 21.415 7.55147C20.8954 7.44812 20.3568 7.50116 19.8674 7.7039C19.3779 7.90663 18.9596 8.24995 18.6653 8.69044C18.371 9.13093 18.2139 9.6488 18.2139 10.1786C18.2139 10.889 18.4961 11.5703 18.9984 12.0726C19.5007 12.5749 20.182 12.8571 20.8924 12.8571ZM20.8924 8.57143C21.2103 8.57143 21.521 8.66569 21.7853 8.84228C22.0496 9.01888 22.2556 9.26988 22.3772 9.56355C22.4989 9.85721 22.5307 10.1804 22.4687 10.4921C22.4067 10.8039 22.2536 11.0902 22.0289 11.315C21.8041 11.5398 21.5177 11.6928 21.206 11.7548C20.8942 11.8168 20.5711 11.785 20.2774 11.6634C19.9837 11.5417 19.7327 11.3357 19.5561 11.0715C19.3796 10.8072 19.2853 10.4964 19.2853 10.1786C19.2853 9.75233 19.4546 9.34355 19.756 9.04215C20.0574 8.74075 20.4662 8.57143 20.8924 8.57143Z" fill="#4B4EFF"/>
<path id="Vector_3" d="M15 0C12.0333 0 9.13319 0.879735 6.66645 2.52796C4.19971 4.17618 2.27713 6.51886 1.14181 9.25975C0.00649925 12.0006 -0.290551 15.0166 0.288227 17.9263C0.867006 20.8361 2.29562 23.5088 4.3934 25.6066C6.49119 27.7044 9.16394 29.133 12.0736 29.7118C14.9834 30.2905 17.9994 29.9935 20.7403 28.8582C23.4811 27.7229 25.8238 25.8003 27.472 23.3335C29.1203 20.8668 30 17.9667 30 15C30 11.0217 28.4196 7.20644 25.6066 4.3934C22.7936 1.58035 18.9783 0 15 0ZM15 28.9286C12.2452 28.9286 9.55225 28.1117 7.2617 26.5812C4.97116 25.0507 3.1859 22.8753 2.13168 20.3302C1.07746 17.7851 0.801632 14.9845 1.33907 12.2827C1.87651 9.58079 3.20307 7.09896 5.15102 5.15101C7.09896 3.20307 9.5808 1.8765 12.2827 1.33906C14.9846 0.801625 17.7851 1.07746 20.3302 2.13168C22.8753 3.1859 25.0507 4.97116 26.5812 7.2617C28.1117 9.55224 28.9286 12.2452 28.9286 15C28.9286 18.6941 27.4611 22.2369 24.849 24.849C22.2369 27.4611 18.6941 28.9286 15 28.9286Z" fill="#4B4EFF"/>
<path id="Vector_4" d="M23.5711 15.0001H6.42829C6.28621 15.0001 6.14995 15.0565 6.04949 15.157C5.94902 15.2574 5.89258 15.3937 5.89258 15.5358C5.89258 17.9511 6.85208 20.2676 8.56 21.9755C10.2679 23.6834 12.5844 24.6429 14.9997 24.6429C17.4151 24.6429 19.7315 23.6834 21.4394 21.9755C23.1474 20.2676 24.1069 17.9511 24.1069 15.5358C24.1069 15.3937 24.0504 15.2574 23.95 15.157C23.8495 15.0565 23.7132 15.0001 23.5711 15.0001ZM23.0354 16.0715C23.0112 16.4315 22.9628 16.7894 22.8908 17.1429H7.13008C7.05084 16.7899 6.99536 16.4319 6.96401 16.0715H23.0354ZM11.314 22.6822C11.3853 22.3554 11.5568 22.059 11.8045 21.8343C12.0523 21.6096 12.364 21.4678 12.6961 21.4286C12.9744 21.4005 13.2552 21.4456 13.5108 21.5592C13.7664 21.6729 13.9878 21.8513 14.1533 22.0768C14.2534 22.2059 14.3818 22.3103 14.5285 22.3822C14.6752 22.454 14.8364 22.4914 14.9997 22.4914C15.1631 22.4914 15.3243 22.454 15.471 22.3822C15.6177 22.3103 15.746 22.2059 15.8461 22.0768C16.0111 21.8522 16.2317 21.6743 16.4863 21.5606C16.7408 21.447 17.0205 21.4015 17.2979 21.4286C17.6296 21.466 17.9415 21.6058 18.1901 21.8285C18.4388 22.0513 18.6119 22.3459 18.6854 22.6715C17.5417 23.2447 16.2803 23.5441 15.001 23.5459C13.7216 23.5478 12.4594 23.2521 11.314 22.6822ZM19.6176 22.1036C19.4471 21.6349 19.1492 21.2231 18.7574 20.9145C18.3655 20.606 17.8953 20.413 17.3997 20.3572C16.9402 20.3028 16.4746 20.3737 16.0521 20.5623C15.6296 20.7509 15.266 21.0503 14.9997 21.4286C14.7235 21.0555 14.3551 20.7606 13.9307 20.5728C13.5062 20.385 13.0401 20.3107 12.5783 20.3572C12.0855 20.4125 11.6177 20.6036 11.227 20.9091C10.8364 21.2146 10.5383 21.6226 10.3658 22.0876C9.00816 21.1333 7.98194 19.7794 7.43008 18.2143H22.5694C22.0161 19.7874 20.9838 21.1476 19.6176 22.1036Z" fill="#4B4EFF"/>
</g>
</svg>
