<?xml version="1.0" encoding="utf-8"?>
<!-- Generator: Adobe Illustrator 27.6.0, SVG Export Plug-In . SVG Version: 6.00 Build 0)  -->
<svg version="1.1" id="Layer_1" xmlns="http://www.w3.org/2000/svg" xmlns:xlink="http://www.w3.org/1999/xlink" x="0px" y="0px"
	 viewBox="0 0 1366 508.5" style="enable-background:new 0 0 1366 508.5;" xml:space="preserve">
<style type="text/css">
	.st0{fill:#3BEA97;}
	.st1{fill:#84FEAA;}
	.st2{fill:#95FD3E;}
	.st3{fill:#1BE3B5;}
	.st4{fill:#95FE3E;}
</style>
<path id="Path_69559" class="st0" d="M967.3,78.5c0.6-1,1.6-2.3,1.7-2.5c1.4-2,2.6-4.1,3.7-6.2c0.3-0.6,0.5-1.2,1.2-0.9
	c7.9,3.1,15.6,6.4,21.7,12.7c0.4,0.3,0.4,0.9,0.1,1.3c-0.2,0.3-0.3,0.5-0.5,0.8c-0.4,0.6-0.7,1.3-1.1,2c-0.4,0.7-0.8,1.5-1.2,2.3
	c-0.7,1.5-1.4,3-2.1,4.6c-0.3,0.7-0.6,0.8-1.2,0.4c-0.9-0.6-1.7-1.3-2.5-2c-3.7-3.6-8.1-6.4-12.9-8.2c-2.5-0.9-4.9-2.2-7.6-2.8
	C966.6,79.8,966.9,79.2,967.3,78.5"/>
<path id="Path_70047" class="st0" d="M902.6,209.9c0.6-1,1.6-2.3,1.7-2.5c1.4-2,2.6-4.1,3.7-6.2c0.3-0.6,0.5-1.2,1.2-0.9
	c7.9,3.1,15.6,6.4,21.7,12.7c0.4,0.3,0.4,0.9,0.1,1.3c-0.2,0.3-0.3,0.5-0.5,0.8c-0.4,0.6-0.7,1.3-1.1,2s-0.8,1.5-1.2,2.3
	c-0.7,1.5-1.4,3-2.1,4.6c-0.3,0.7-0.6,0.8-1.2,0.4c-0.9-0.6-1.7-1.3-2.5-2c-3.7-3.6-8.1-6.4-12.9-8.2c-2.5-0.9-4.9-2.2-7.6-2.8
	C901.9,211.1,902.2,210.5,902.6,209.9"/>
<path id="Path_70047_00000139977862234589989770000015965240674711843754_" class="st0" d="M1183.4,180.8c0.6-1,1.6-2.3,1.7-2.5
	c1.4-2,2.6-4.1,3.7-6.2c0.3-0.6,0.5-1.2,1.2-0.9c7.9,3.1,15.6,6.4,21.7,12.7c0.4,0.3,0.4,0.9,0.1,1.3c-0.2,0.3-0.3,0.5-0.5,0.8
	c-0.4,0.6-0.7,1.3-1.1,2s-0.8,1.5-1.2,2.3c-0.7,1.5-1.4,3-2.1,4.6c-0.3,0.7-0.6,0.8-1.2,0.4c-0.9-0.6-1.7-1.3-2.5-2
	c-3.7-3.6-8.1-6.4-12.9-8.2c-2.5-0.9-4.9-2.2-7.6-2.8C1182.7,182,1183,181.4,1183.4,180.8"/>
<path id="Path_69713" class="st0" d="M861.1,30.2c0.6-1,1.6-2.3,1.7-2.5c1.4-2,2.6-4.1,3.7-6.2c0.3-0.6,0.5-1.2,1.2-0.9
	c7.9,3.1,15.6,6.4,21.7,12.7c0.4,0.3,0.5,0.9,0.1,1.3c-0.2,0.3-0.3,0.5-0.5,0.8c-0.4,0.6-0.7,1.3-1.1,2c-0.4,0.7-0.8,1.5-1.2,2.3
	c-0.7,1.5-1.4,3-2.1,4.6c-0.3,0.7-0.6,0.8-1.2,0.4c-0.9-0.6-1.7-1.3-2.5-2c-3.7-3.6-8.1-6.4-12.9-8.2c-2.5-0.9-4.9-2.2-7.6-2.8
	C860.4,31.4,860.7,30.9,861.1,30.2"/>
<path id="Path_69700" class="st0" d="M1049.8,43.9c0.6-1,1.6-2.3,1.7-2.5c1.4-2,2.6-4.1,3.7-6.2c0.3-0.6,0.5-1.2,1.2-0.9
	c7.9,3.1,15.6,6.4,21.7,12.7c0.4,0.3,0.5,0.9,0.1,1.3c-0.2,0.3-0.3,0.5-0.5,0.8c-0.4,0.6-0.7,1.3-1.1,2c-0.4,0.7-0.8,1.5-1.2,2.3
	c-0.7,1.5-1.4,3-2.1,4.6c-0.3,0.7-0.6,0.8-1.2,0.4c-0.9-0.6-1.7-1.3-2.5-2c-3.7-3.6-8.1-6.4-12.9-8.2c-2.5-0.9-4.9-2.2-7.6-2.8
	C1049,45.1,1049.3,44.6,1049.8,43.9"/>
<path id="Path_69560" class="st0" d="M892.2,163.8c-0.7-0.6-1.6-1.5-1.7-1.6c-1.4-1.3-2.8-2.6-4.3-3.8c-0.4-0.3-0.9-0.6-0.5-0.9
	c4.2-3.3,8.7-6.5,15.1-8c0.4-0.1,0.8,0,1.1,0.3c0.2,0.2,0.4,0.3,0.6,0.5c0.4,0.4,0.9,0.8,1.4,1.1c0.5,0.4,1.1,0.9,1.6,1.3
	c1.1,0.8,2.2,1.6,3.3,2.4c0.5,0.4,0.5,0.5,0,0.7c-0.7,0.3-1.5,0.6-2.2,0.7c-3.5,0.8-6.8,2.3-9.6,4.5c-1.4,1-2.7,2.1-4,3.2
	C893,164.5,892.6,164.2,892.2,163.8"/>
<path id="Path_69561" class="st1" d="M1063.6,296.7c3.1,2,5.7,4.7,7.8,7.7c3.4,5.2,5.8,11,7.1,17c0.2,0.5,0,1.1-0.5,1.3
	c-2.9,1.7-5.8,3.4-8.8,5.1c-0.5,0.3-0.7,0.3-0.8-0.4c-0.2-2.1-0.5-4.1-1.1-6.1c-1.2-4.2-3.3-8-6-11.4c-1.1-1.2-2.4-2.2-3.8-2.8
	c-1.1-0.5-2.1-1.1-3.2-1.7c-0.4-0.3-0.2-0.5,0.1-0.8c1.6-1.4,3.2-2.7,4.8-4.2c0.8-0.8,1.5-1.5,2.3-2.4
	C1061.9,297.5,1062.8,296.1,1063.6,296.7"/>
<path id="Path_69716" class="st1" d="M816.6,334.8c3.1,2,5.7,4.7,7.8,7.7c3.4,5.2,5.8,11,7.1,17c0.2,0.5,0,1.1-0.5,1.3
	c-2.9,1.7-5.8,3.4-8.8,5.1c-0.5,0.3-0.7,0.3-0.8-0.4c-0.2-2.1-0.5-4.1-1.1-6.1c-1.2-4.2-3.3-8-6-11.4c-1.1-1.2-2.4-2.2-3.8-2.8
	c-1.1-0.5-2.1-1.1-3.2-1.7c-0.4-0.3-0.2-0.5,0.1-0.8c1.6-1.4,3.2-2.7,4.8-4.2c0.8-0.8,1.5-1.5,2.3-2.4
	C814.8,335.7,815.7,334.3,816.6,334.8"/>
<path id="Path_69716_00000070816424346956754360000010395118154876311732_" class="st1" d="M647.3,409.1c3.1,2,5.7,4.7,7.8,7.7
	c3.4,5.2,5.8,11,7.1,17c0.2,0.5,0,1.1-0.5,1.3c-2.9,1.7-5.8,3.4-8.8,5.1c-0.5,0.3-0.7,0.3-0.8-0.4c-0.2-2.1-0.5-4.1-1.1-6.1
	c-1.2-4.2-3.3-8-6-11.4c-1.1-1.2-2.4-2.2-3.8-2.8c-1.1-0.5-2.1-1.1-3.2-1.7c-0.4-0.3-0.2-0.5,0.1-0.8c1.6-1.4,3.2-2.7,4.8-4.2
	c0.8-0.8,1.5-1.5,2.3-2.4C645.5,410,646.4,408.6,647.3,409.1"/>
<path id="Path_69716_00000180364284353677022540000007142587522326477453_" class="st1" d="M531,364.1c3.1,2,5.7,4.7,7.8,7.7
	c3.4,5.2,5.8,11,7.1,17c0.2,0.5,0,1.1-0.5,1.3c-2.9,1.7-5.8,3.4-8.8,5.1c-0.5,0.3-0.7,0.3-0.8-0.4c-0.2-2.1-0.5-4.1-1.1-6.1
	c-1.2-4.2-3.3-8-6-11.4c-1.1-1.2-2.4-2.2-3.8-2.8c-1.1-0.5-2.1-1.1-3.2-1.7c-0.4-0.3-0.2-0.5,0.1-0.8c1.6-1.4,3.2-2.7,4.8-4.2
	c0.8-0.8,1.5-1.5,2.3-2.4C529.2,365,530.1,363.6,531,364.1"/>
<path id="Path_69716_00000127030297316702838960000002575227751029317524_" class="st1" d="M561.6,461.6c3.1,2,5.7,4.7,7.8,7.7
	c3.4,5.2,5.8,11,7.1,17c0.2,0.5,0,1.1-0.5,1.3c-2.9,1.7-5.8,3.4-8.8,5.1c-0.5,0.3-0.7,0.3-0.8-0.4c-0.2-2.1-0.5-4.1-1.1-6.1
	c-1.2-4.2-3.3-8-6-11.4c-1.1-1.2-2.4-2.2-3.8-2.8c-1.1-0.5-2.1-1.1-3.2-1.7c-0.4-0.3-0.2-0.5,0.1-0.8c1.6-1.4,3.2-2.7,4.8-4.2
	c0.8-0.8,1.5-1.5,2.3-2.4C559.8,462.5,560.7,461.1,561.6,461.6"/>
<path id="Path_69716_00000007417935725116100740000011303376877174369692_" class="st1" d="M409.8,3.7c3.1,2,5.7,4.7,7.8,7.7
	c3.4,5.2,5.8,11,7.1,17c0.2,0.5,0,1.1-0.5,1.3c-2.9,1.7-5.8,3.4-8.8,5.1c-0.5,0.3-0.7,0.3-0.8-0.4c-0.2-2.1-0.5-4.1-1.1-6.1
	c-1.2-4.2-3.3-8-6-11.4c-1.1-1.2-2.4-2.2-3.8-2.8c-1.1-0.5-2.1-1.1-3.2-1.7c-0.4-0.3-0.2-0.5,0.1-0.8c1.6-1.4,3.2-2.7,4.8-4.2
	c0.8-0.8,1.5-1.5,2.3-2.4C408,4.6,408.9,3.2,409.8,3.7"/>
<path id="Path_69719" class="st1" d="M684.6,121.9c3.1,2,5.7,4.7,7.8,7.7c3.4,5.2,5.8,11,7.1,17c0.2,0.5,0,1.1-0.5,1.3
	c-2.9,1.7-5.8,3.4-8.8,5.1c-0.5,0.3-0.7,0.3-0.8-0.4c-0.2-2.1-0.5-4.1-1.1-6.1c-1.2-4.2-3.3-8-6-11.4c-1.1-1.2-2.4-2.2-3.8-2.8
	c-1.1-0.5-2.1-1.1-3.2-1.7c-0.4-0.3-0.2-0.5,0.1-0.8c1.6-1.4,3.2-2.7,4.8-4.2c0.8-0.8,1.5-1.5,2.3-2.4
	C682.8,122.7,683.7,121.3,684.6,121.9"/>
<path id="Path_69563" class="st1" d="M942.3,247.4c2-1.8,4.3-3.1,6.4-4.7c2.8-2.2,5.3-4.7,7.4-7.6c1-1.3,2.2-2.6,3.3-3.9
	c0.8,0.4,0.9,1.3,1.4,1.9s0.8,1.3,1.3,1.9c0.9,1.4,1.8,2.7,2.8,4.1c0.1,0.2,0.4,0.4,0.2,0.7c-0.9,1.1-1.9,2.2-2.7,3.3
	c-2,2.6-4.3,4.9-7,6.9c-2.7,2.1-5.6,4.1-8.3,6.2c-0.5,0.3-0.8,0.1-1-0.3c-0.3-0.5-0.6-1-0.8-1.5c-0.5-1.1-1.1-2.2-1.7-3.2
	c-0.4-0.9-0.9-1.7-1.3-2.6C942,248.1,941.9,247.7,942.3,247.4"/>
<path id="Path_69563_00000090275409103843755970000002876640975928483746_" class="st1" d="M1136.6,276.3c2-1.8,4.3-3.1,6.4-4.7
	c2.8-2.2,5.3-4.7,7.4-7.6c1-1.3,2.2-2.6,3.3-3.9c0.8,0.4,0.9,1.3,1.4,1.9s0.8,1.3,1.3,1.9c0.9,1.4,1.8,2.7,2.8,4.1
	c0.1,0.2,0.4,0.4,0.2,0.7c-0.9,1.1-1.9,2.2-2.7,3.3c-2,2.6-4.3,4.9-7,6.9c-2.7,2.1-5.6,4.1-8.3,6.2c-0.5,0.3-0.8,0.1-1-0.3
	c-0.3-0.5-0.6-1-0.8-1.5c-0.5-1.1-1.1-2.2-1.7-3.2c-0.4-0.9-0.9-1.7-1.3-2.6C1136.3,277,1136.2,276.6,1136.6,276.3"/>
<path id="Path_69697" class="st1" d="M832.9,269.5c2-1.8,4.3-3.1,6.4-4.7c2.8-2.2,5.3-4.7,7.4-7.6c1-1.3,2.2-2.6,3.3-3.9
	c0.8,0.4,0.9,1.3,1.4,1.9s0.8,1.3,1.3,1.9c0.9,1.4,1.8,2.7,2.8,4.1c0.1,0.2,0.4,0.4,0.2,0.7c-0.9,1.1-1.9,2.2-2.7,3.3
	c-2,2.6-4.3,4.9-7,6.9c-2.7,2.1-5.6,4.1-8.3,6.2c-0.5,0.3-0.8,0.1-1-0.3c-0.3-0.5-0.6-1-0.8-1.5c-0.5-1.1-1.1-2.2-1.7-3.2
	c-0.4-0.9-0.9-1.7-1.3-2.6C832.6,270.2,832.5,269.8,832.9,269.5"/>
<path id="Path_69721" class="st1" d="M789.5,50.5c2-1.8,4.3-3.1,6.4-4.7c2.8-2.2,5.3-4.7,7.4-7.6c1-1.3,2.2-2.6,3.3-3.9
	c0.8,0.4,0.9,1.3,1.4,1.9s0.8,1.3,1.3,1.9c0.9,1.4,1.8,2.7,2.8,4.1c0.1,0.2,0.4,0.4,0.2,0.7c-0.9,1.1-1.9,2.2-2.7,3.3
	c-2,2.6-4.3,4.9-7,6.9c-2.7,2.1-5.6,4.1-8.3,6.2c-0.5,0.3-0.8,0.1-1-0.3c-0.3-0.5-0.6-1-0.8-1.5c-0.5-1.1-1.1-2.2-1.7-3.2
	c-0.4-0.9-0.9-1.7-1.3-2.6C789.2,51.3,789.1,50.9,789.5,50.5"/>
<path id="Path_69564" class="st1" d="M945.4,244.8c0.5,0.8,0.9,1.7,1.3,2.6c0.5,1.1,1,2.2,1.7,3.2c0.3,0.5,0.6,1,0.9,1.5
	c0.1,0.3,0.5,0.5,0.8,0.4c-1.3,0.7-1.6,0.6-2.3-1c-0.4-1-1.1-1.9-1.6-2.9c-0.3-0.6-0.6-1.2-0.9-1.9c-0.2-0.4-0.4-0.8-0.6-1.1
	c-0.5-0.8-0.2-1.1,0.7-1.8C945.7,243.8,945.1,244.6,945.4,244.8"/>
<path id="Path_69565" class="st1" d="M968.1,236c-0.7-1.2-1.5-2.4-2.3-3.6c-0.2-0.4-0.5-0.8-0.7-1.2c0,0-0.1-0.1,0-0.1l0,0l0,0
	c1.1,1.4,2,2.9,3,4.3C968.2,235.6,968.4,235.8,968.1,236"/>
<path id="Path_69566" class="st1" d="M965.1,231.1v0.2c-0.7-0.9-1.4-1.8-1.9-2.9c-0.2-0.3-0.4-0.7-0.7-1c0.5-0.3,0.5,0.2,0.6,0.4
	C963.7,228.9,964.4,230,965.1,231.1"/>
<path id="Path_69567" class="st1" d="M948.4,250.5c-0.8-0.9-1.3-2-1.7-3.2C947.4,248.3,947.9,249.4,948.4,250.5"/>
<path id="Path_69568" class="st1" d="M746.8,150.4c1.6,1.4,2.9,3,4.4,4.4c2,1.9,4.3,3.6,6.8,4.8c1.2,0.6,2.3,1.4,3.4,2.1
	c-0.3,0.6-1,0.8-1.5,1.2c-0.4,0.4-1,0.7-1.4,1.1c-1,0.8-2.1,1.6-3.1,2.4c-0.2,0.1-0.3,0.3-0.6,0.2c-1-0.6-2-1.2-3-1.8
	c-2.3-1.3-4.3-2.8-6.2-4.6c-1.9-1.9-3.8-3.8-5.7-5.7c-0.3-0.3-0.2-0.6,0.2-0.8c0.4-0.3,0.8-0.5,1.2-0.8c0.9-0.5,1.7-1,2.5-1.5
	c0.7-0.4,1.3-0.8,2-1.2C746.2,150.2,746.5,150.1,746.8,150.4"/>
<path id="Path_69724" class="st1" d="M953.8,394.7c1.6,1.3,2.9,3,4.4,4.4c2,1.9,4.3,3.6,6.8,4.8c1.2,0.6,2.3,1.4,3.4,2.1
	c-0.3,0.6-1,0.8-1.5,1.2c-0.4,0.4-1,0.7-1.4,1.1c-1,0.8-2.1,1.6-3.1,2.4c-0.2,0.1-0.3,0.3-0.6,0.2c-1-0.6-2-1.2-3-1.8
	c-2.3-1.3-4.3-2.8-6.2-4.6c-1.9-1.9-3.8-3.8-5.7-5.7c-0.3-0.3-0.2-0.6,0.2-0.8c0.4-0.3,0.8-0.5,1.2-0.8c0.9-0.5,1.7-1,2.5-1.5
	c0.7-0.4,1.3-0.8,2-1.2C953.2,394.5,953.5,394.4,953.8,394.7"/>
<path id="Path_69724_00000010304043865493623160000009971636529267103156_" class="st1" d="M798.9,390c1.6,1.3,2.9,3,4.4,4.4
	c2,1.9,4.3,3.6,6.8,4.8c1.2,0.6,2.3,1.4,3.4,2.1c-0.3,0.6-1,0.8-1.5,1.2c-0.4,0.4-1,0.7-1.4,1.1c-1,0.8-2.1,1.6-3.1,2.4
	c-0.2,0.1-0.3,0.3-0.6,0.2c-1-0.6-2-1.2-3-1.8c-2.3-1.3-4.3-2.8-6.2-4.6c-1.9-1.9-3.8-3.8-5.7-5.7c-0.3-0.3-0.2-0.6,0.2-0.8
	c0.4-0.3,0.8-0.5,1.2-0.8c0.9-0.5,1.7-1,2.5-1.5c0.7-0.4,1.3-0.8,2-1.2C798.3,389.8,798.6,389.7,798.9,390"/>
<path id="Path_69724_00000130641311577372869790000009833419633661881500_" class="st1" d="M658.5,342.4c1.6,1.3,2.9,3,4.4,4.4
	c2,1.9,4.3,3.6,6.8,4.8c1.2,0.6,2.3,1.4,3.4,2.1c-0.3,0.6-1,0.8-1.5,1.2c-0.4,0.4-1,0.7-1.4,1.1c-1,0.8-2.1,1.6-3.1,2.4
	c-0.2,0.1-0.3,0.3-0.6,0.2c-1-0.6-2-1.2-3-1.8c-2.3-1.3-4.3-2.8-6.2-4.6c-1.9-1.9-3.8-3.8-5.7-5.7c-0.3-0.3-0.2-0.6,0.2-0.8
	c0.4-0.3,0.8-0.5,1.2-0.8c0.9-0.5,1.7-1,2.5-1.5c0.7-0.4,1.3-0.8,2-1.2C657.9,342.2,658.2,342.1,658.5,342.4"/>
<path id="Path_69724_00000023240637364718917770000006668384653824992692_" class="st1" d="M736,468.6c1.6,1.3,2.9,3,4.4,4.4
	c2,1.9,4.3,3.6,6.8,4.8c1.2,0.6,2.3,1.4,3.4,2.1c-0.3,0.6-1,0.8-1.5,1.2c-0.4,0.4-1,0.7-1.4,1.1c-1,0.8-2.1,1.6-3.1,2.4
	c-0.2,0.1-0.3,0.3-0.6,0.2c-1-0.6-2-1.2-3-1.8c-2.3-1.3-4.3-2.8-6.2-4.6c-1.9-1.9-3.8-3.8-5.7-5.7c-0.3-0.3-0.2-0.6,0.2-0.8
	c0.4-0.3,0.8-0.5,1.2-0.8c0.9-0.5,1.7-1,2.5-1.5c0.7-0.4,1.3-0.8,2-1.2C735.4,468.4,735.7,468.3,736,468.6"/>
<path id="Path_69569" class="st1" d="M943.4,29.5c-0.8,0.6-1.7,1.2-2.6,1.6c-1.1,0.7-2.2,1.3-3.2,2.1c-0.5,0.4-0.9,0.8-1.4,1.1
	c-0.4,0.2-0.5,0.6-0.4,0.9c-0.9-1.3-0.8-1.7,0.8-2.6c1-0.6,1.9-1.3,2.9-2c0.6-0.4,1.2-0.8,1.9-1.1c0.4-0.2,0.8-0.5,1.1-0.8
	c0.8-0.6,1.1-0.3,2,0.5C944.5,29.6,943.6,29.1,943.4,29.5"/>
<path id="Path_69573" class="st2" d="M927,77.7c0.4,2.1,0.6,4.3,1,6.4c0.5,2.4,1.3,4.7,1.9,7c0.5,2.5,1.3,5,2.4,7.3
	c1.3,2.3,2.7,4.6,4.1,6.8c0.5,0.7,0.2,1.1-0.2,1.5c-1.8,2-3.7,4-5.4,6.1c-0.1,0.1-0.2,0.2-0.2,0.3c-1,1.3-1,1.3-2.1,0
	c-1.8-2-2.9-4.5-4.4-6.7c-2.4-3.8-4.1-8-5-12.4c-0.6-2.6-1.5-5-2.1-7.6c-0.2-0.8,0-0.9,0.6-1.4c0.6-0.5,1.2-1,1.9-1.5
	c1.9-1.5,3.6-3.1,5.5-4.7c0.4-0.3,0.8-0.7,1.1-1.1C926.4,77.8,926.6,77.5,927,77.7"/>
<path id="Path_69722" class="st2" d="M1037.7,383.8c0.3,1.2,0.4,2.5,0.6,3.8c0.3,1.4,0.8,2.7,1.1,4.1c0.3,1.5,0.7,2.9,1.4,4.3
	c0.8,1.3,1.6,2.7,2.4,4c0.3,0.4,0.1,0.6-0.1,0.9c-1.1,1.2-2.2,2.3-3.2,3.6c0,0.1-0.1,0.1-0.1,0.2c-0.6,0.8-0.6,0.8-1.2,0
	c-0.9-1.3-1.8-2.6-2.6-3.9c-1.4-2.2-2.4-4.7-2.9-7.3c-0.3-1.5-0.9-3-1.2-4.5c-0.1-0.4,0-0.5,0.4-0.8s0.7-0.6,1.1-0.9
	c1.1-0.9,2.1-1.8,3.2-2.7c0.2-0.2,0.4-0.4,0.6-0.6C1037.3,383.8,1037.4,383.6,1037.7,383.8"/>
<path id="Path_69786" class="st2" d="M889.9,414c0.3,1.2,0.4,2.5,0.6,3.8c0.3,1.4,0.8,2.7,1.1,4.1c0.3,1.5,0.7,2.9,1.4,4.3
	c0.8,1.3,1.6,2.7,2.4,4c0.3,0.4,0.1,0.6-0.1,0.9c-1.1,1.2-2.2,2.3-3.2,3.6c0,0.1-0.1,0.1-0.1,0.2c-0.6,0.8-0.6,0.8-1.2,0
	c-0.9-1.3-1.8-2.6-2.6-3.9c-1.4-2.2-2.4-4.7-2.9-7.3c-0.3-1.5-0.9-2.9-1.2-4.5c-0.1-0.4,0-0.5,0.4-0.8c0.4-0.3,0.7-0.6,1.1-0.8
	c1.1-0.9,2.1-1.8,3.2-2.7c0.2-0.2,0.4-0.4,0.6-0.6C889.5,414,889.7,413.8,889.9,414"/>
<path id="Path_69786_00000002377523875286550800000001185826932271996079_" class="st2" d="M791.9,435.6c0.3,1.2,0.4,2.5,0.6,3.8
	c0.3,1.4,0.8,2.7,1.1,4.1c0.3,1.5,0.7,2.9,1.4,4.3c0.8,1.3,1.6,2.7,2.4,4c0.3,0.4,0.1,0.6-0.1,0.9c-1.1,1.2-2.2,2.3-3.2,3.6
	c0,0.1-0.1,0.1-0.1,0.2c-0.6,0.8-0.6,0.8-1.2,0c-0.9-1.3-1.8-2.6-2.6-3.9c-1.4-2.2-2.4-4.7-2.9-7.3c-0.3-1.5-0.9-2.9-1.2-4.5
	c-0.1-0.4,0-0.5,0.4-0.8c0.4-0.3,0.7-0.6,1.1-0.8c1.1-0.9,2.1-1.8,3.2-2.7c0.2-0.2,0.4-0.4,0.6-0.6
	C791.5,435.6,791.7,435.4,791.9,435.6"/>
<path id="Path_69786_00000093872151540376057350000003964509756556531096_" class="st2" d="M860.5,474.6c0.3,1.2,0.4,2.5,0.6,3.8
	c0.3,1.4,0.8,2.7,1.1,4.1c0.3,1.5,0.7,2.9,1.4,4.3c0.8,1.3,1.6,2.7,2.4,4c0.3,0.4,0.1,0.6-0.1,0.9c-1.1,1.2-2.2,2.3-3.2,3.6
	c0,0.1-0.1,0.1-0.1,0.2c-0.6,0.8-0.6,0.8-1.2,0c-0.9-1.3-1.8-2.6-2.6-3.9c-1.4-2.2-2.4-4.7-2.9-7.3c-0.3-1.5-0.9-2.9-1.2-4.5
	c-0.1-0.4,0-0.5,0.4-0.8c0.4-0.3,0.7-0.6,1.1-0.8c1.1-0.9,2.1-1.8,3.2-2.7c0.2-0.2,0.4-0.4,0.6-0.6
	C860.1,474.6,860.3,474.4,860.5,474.6"/>
<path id="Path_69574" class="st2" d="M766.3,201.5c1.3,0.3,2.5,0.8,3.8,1.2c1.4,0.4,2.9,0.5,4.4,0.9s3.1,0.7,4.7,0.7
	c1.6-0.1,3.2-0.2,4.9-0.4c0.5-0.1,0.6,0.2,0.8,0.5c0.6,1.6,1.2,3.2,1.9,4.7c0,0.1,0.1,0.1,0.1,0.2c0.5,0.9,0.5,0.9-0.5,1.2
	c-1.6,0.3-3.3,0.5-4.9,0.6c-2.7,0.3-5.5,0.1-8.2-0.6c-1.6-0.4-3.2-0.5-4.8-0.9c-0.5-0.1-0.5-0.3-0.6-0.7c-0.1-0.4-0.2-0.9-0.3-1.4
	c-0.3-1.4-0.7-2.9-1.1-4.3c-0.1-0.3-0.2-0.6-0.3-0.9C766.2,201.9,766.1,201.7,766.3,201.5"/>
<path id="Path_69574_00000119111393252019868660000012601002552098369680_" class="st2" d="M758.7,8.2c1.3,0.3,2.5,0.8,3.8,1.2
	c1.4,0.4,2.9,0.5,4.4,0.9s3.1,0.7,4.7,0.7c1.6-0.1,3.2-0.2,4.9-0.4c0.5-0.1,0.6,0.2,0.8,0.5c0.6,1.6,1.2,3.2,1.9,4.7
	c0,0.1,0.1,0.1,0.1,0.2c0.5,0.9,0.5,0.9-0.5,1.2c-1.6,0.3-3.3,0.5-4.9,0.6c-2.7,0.3-5.5,0.1-8.2-0.6c-1.6-0.4-3.2-0.5-4.8-0.9
	c-0.5-0.1-0.5-0.3-0.6-0.7c-0.1-0.4-0.2-0.9-0.3-1.4c-0.3-1.4-0.7-2.9-1.1-4.3c-0.1-0.3-0.2-0.6-0.3-0.9
	C758.6,8.6,758.5,8.4,758.7,8.2"/>
<path id="Path_69718" class="st2" d="M758.8,245.6c1.3,0.3,2.5,0.8,3.8,1.2c1.4,0.4,2.9,0.5,4.4,0.9s3.1,0.7,4.7,0.7
	c1.6-0.1,3.2-0.2,4.9-0.4c0.5-0.1,0.6,0.2,0.8,0.5c0.6,1.6,1.2,3.2,1.9,4.7c0,0.1,0.1,0.1,0.1,0.2c0.5,0.9,0.5,0.9-0.5,1.2
	c-1.6,0.3-3.3,0.5-4.9,0.6c-2.7,0.3-5.5,0.1-8.2-0.6c-1.6-0.4-3.2-0.5-4.8-0.9c-0.5-0.1-0.5-0.3-0.6-0.7c-0.1-0.4-0.2-0.9-0.3-1.4
	c-0.3-1.4-0.7-2.9-1.1-4.3c-0.1-0.3-0.2-0.6-0.3-0.9C758.6,245.9,758.5,245.7,758.8,245.6"/>
<path id="Path_69698" class="st2" d="M980.4,350.4c1.3,0.3,2.5,0.8,3.8,1.2c1.4,0.4,2.9,0.5,4.4,0.9s3.1,0.7,4.7,0.7
	c1.6-0.1,3.2-0.2,4.9-0.4c0.5-0.1,0.6,0.2,0.8,0.5c0.6,1.6,1.2,3.2,1.9,4.7c0,0.1,0.1,0.1,0.1,0.2c0.5,0.9,0.5,0.9-0.5,1.2
	c-1.6,0.3-3.3,0.5-4.9,0.6c-2.7,0.3-5.5,0.1-8.2-0.6c-1.6-0.4-3.2-0.5-4.8-0.9c-0.5-0.1-0.5-0.3-0.6-0.7c-0.1-0.4-0.2-0.9-0.3-1.4
	c-0.3-1.4-0.7-2.9-1.1-4.3c-0.1-0.3-0.2-0.6-0.3-0.9C980.2,350.8,980.1,350.6,980.4,350.4"/>
<path id="Path_69575" class="st3" d="M937.2,160.3c3.8,0.2,7.7,0,11.5-0.6c1.3-0.2,2.6-0.5,3.9-0.8c0.6-0.1,1.2-0.2,1.8-0.3
	c0.4-0.1,0.8-0.2,1.2-0.2c0.3,0,0.3,0.6,0.3,0.9c0.1,0.6,0,1.2,0.1,1.8c0.1,1,0.2,1.9,0.2,2.9c0,0.3,0,0.6,0.1,0.9
	c0.1,0.5-0.1,0.6-1,0.7c-1.2,0.2-2.5,0.4-3.7,0.7c-3.5,0.6-7,1-10.5,1.1c-0.6,0-1.3,0-1.9,0.1c-0.4,0-0.6-0.1-0.6-0.5
	c-0.1-0.8-0.3-1.6-0.5-2.4c-0.2-1.3-0.5-2.5-0.8-3.7C937.1,160.6,937.1,160.4,937.2,160.3"/>
<path id="Path_69575_00000179606190119859188200000012656597308616557458_" class="st3" d="M1105.9,21.3c3.8,0.2,7.7,0,11.5-0.6
	c1.3-0.2,2.6-0.5,3.9-0.8c0.6-0.1,1.2-0.2,1.8-0.3c0.4-0.1,0.8-0.2,1.2-0.2c0.3,0,0.3,0.6,0.3,0.9c0.1,0.6,0,1.2,0.1,1.8
	c0.1,1,0.2,1.9,0.2,2.9c0,0.3,0,0.6,0.1,0.9c0.1,0.5-0.1,0.6-1,0.7c-1.2,0.2-2.5,0.4-3.7,0.7c-3.5,0.6-7,1-10.5,1.1
	c-0.6,0-1.3,0-1.9,0.1c-0.4,0-0.6-0.1-0.6-0.5c-0.1-0.8-0.3-1.6-0.5-2.4c-0.2-1.3-0.5-2.5-0.8-3.7
	C1105.8,21.6,1105.8,21.4,1105.9,21.3"/>
<path id="Path_69720" class="st3" d="M1235.9,355.9c3.8,0.2,7.7,0,11.5-0.6c1.3-0.2,2.6-0.5,3.9-0.8c0.6-0.1,1.2-0.2,1.8-0.3
	c0.4-0.1,0.8-0.2,1.2-0.2c0.3,0,0.3,0.6,0.3,0.9c0.1,0.6,0,1.2,0.1,1.8c0.1,1,0.2,1.9,0.2,2.9c0,0.3,0,0.6,0.1,0.9
	c0.1,0.5-0.1,0.6-1,0.7c-1.2,0.2-2.5,0.4-3.7,0.7c-3.5,0.6-7,1-10.6,1.1c-0.6,0-1.3,0-1.9,0.1c-0.4,0-0.6-0.1-0.6-0.5
	c-0.1-0.8-0.3-1.6-0.5-2.4c-0.2-1.3-0.5-2.5-0.8-3.7C1235.9,356.3,1235.9,356.1,1235.9,355.9"/>
<path id="Path_69699" class="st3" d="M844.3,88.7c3.8,0.2,7.7,0,11.5-0.6c1.3-0.2,2.6-0.5,3.9-0.8c0.6-0.1,1.2-0.2,1.8-0.3
	c0.4-0.1,0.8-0.2,1.2-0.2c0.3,0,0.3,0.6,0.3,0.9c0.1,0.6,0,1.2,0.1,1.8c0.1,1,0.2,1.9,0.2,2.9c0,0.3,0,0.6,0.1,0.9
	c0.1,0.5-0.1,0.6-1,0.7c-1.2,0.2-2.5,0.4-3.7,0.7c-3.5,0.6-7,1-10.5,1.1c-0.6,0-1.3,0-1.9,0.1c-0.4,0-0.6-0.1-0.6-0.5
	c-0.1-0.8-0.3-1.6-0.5-2.4c-0.2-1.3-0.5-2.5-0.8-3.7C844.2,89.1,844.2,88.9,844.3,88.7"/>
<path id="Path_69576" class="st3" d="M1203,27.6c-5.3,2.7-10.3,5.9-14.9,9.7c-1.6,1.3-3.2,2.7-4.7,4.1c-0.7,0.6-1.4,1.2-2.1,1.8
	c-0.4,0.5-0.9,0.8-1.4,1.1c-0.4,0.2-0.9-0.6-1.1-0.9c-0.6-0.8-1-1.6-1.5-2.4c-0.8-1.3-1.8-2.5-2.6-3.7c-0.2-0.4-0.5-0.7-0.8-1.1
	c-0.5-0.6-0.3-0.9,0.7-1.7c1.6-1.2,3-2.5,4.4-3.8c4.2-3.6,8.7-6.8,13.3-9.6c0.8-0.5,1.7-1,2.5-1.6c0.3-0.3,0.8-0.3,1.1,0
	c0.1,0.1,0.1,0.1,0.1,0.2c0.8,1,1.6,1.9,2.5,2.9c1.3,1.5,2.7,2.9,4,4.4C1202.7,27.1,1203,27.3,1203,27.6"/>
<path id="Path_69714" class="st3" d="M958.1,304.2c-2.5,3.6-4.5,7.5-6.1,11.5c-0.6,1.4-1.1,2.8-1.5,4.3c-0.2,0.7-0.5,1.3-0.7,1.9
	c-0.1,0.4-0.3,0.9-0.5,1.2c-0.2,0.2-0.8-0.1-1-0.2c-0.6-0.3-1.2-0.7-1.8-1c-1-0.5-2-0.9-3-1.5c-0.3-0.2-0.6-0.3-0.9-0.4
	c-0.5-0.2-0.5-0.5-0.2-1.4c0.6-1.3,1.1-2.7,1.5-4c1.4-3.8,3.1-7.4,5.1-10.9c0.4-0.6,0.7-1.3,1.1-1.9c0.2-0.4,0.4-0.5,0.8-0.3
	c0.9,0.4,1.7,0.6,2.6,1c1.4,0.5,2.7,0.9,4.1,1.4C957.8,304,958,304,958.1,304.2"/>
<path id="Path_69717" class="st3" d="M945.7,483.7c-1.3-4.2-3.1-8.2-5.3-11.9c-0.8-1.3-1.6-2.6-2.5-3.8c-0.4-0.6-0.7-1.2-1-1.8
	c-0.3-0.3-0.5-0.7-0.7-1.2c-0.1-0.3,0.5-0.5,0.8-0.7c0.6-0.3,1.3-0.5,1.9-0.8c1-0.5,2-1,3-1.4c0.3-0.1,0.6-0.3,0.9-0.4
	c0.5-0.3,0.7-0.1,1.2,0.7c0.7,1.3,1.4,2.5,2.3,3.6c2.1,3.4,3.9,7,5.5,10.8c0.3,0.7,0.5,1.3,0.8,2c0.2,0.3,0.1,0.6-0.1,0.8l-0.1,0.1
	c-0.8,0.5-1.6,1-2.4,1.5c-1.2,0.8-2.4,1.6-3.6,2.4C946.1,483.6,945.9,483.7,945.7,483.7"/>
<path id="Path_69701" class="st3" d="M874.3,210.2c-5.3,2.7-10.3,5.9-14.9,9.7c-1.6,1.3-3.2,2.7-4.7,4.1c-0.7,0.6-1.4,1.2-2.1,1.8
	c-0.4,0.5-0.9,0.8-1.4,1.1c-0.4,0.2-0.9-0.6-1.1-0.9c-0.6-0.8-1-1.6-1.5-2.4c-0.8-1.3-1.8-2.5-2.6-3.7c-0.2-0.4-0.5-0.7-0.8-1.1
	c-0.5-0.6-0.3-0.9,0.7-1.7c1.6-1.2,3-2.5,4.4-3.8c4.2-3.6,8.7-6.8,13.3-9.6c0.8-0.5,1.7-1,2.5-1.6c0.3-0.3,0.8-0.3,1.1,0
	c0.1,0.1,0.1,0.1,0.1,0.2c0.8,1,1.6,1.9,2.5,2.9c1.3,1.5,2.7,2.9,4,4.4C874.1,209.7,874.3,209.8,874.3,210.2"/>
<path id="Path_69575-2" class="st3" d="M1044.8,163.8c3.8,0.2,7.7,0,11.5-0.6c1.3-0.2,2.6-0.5,3.9-0.8c0.6-0.1,1.2-0.2,1.8-0.3
	c0.4-0.1,0.8-0.2,1.2-0.2c0.3,0,0.3,0.6,0.3,0.9c0.1,0.6,0,1.2,0.1,1.8c0.1,1,0.2,1.9,0.2,2.9c0,0.3,0,0.6,0.1,0.9
	c0.1,0.5-0.1,0.6-1,0.7c-1.2,0.2-2.5,0.4-3.7,0.7c-3.5,0.6-7,1-10.5,1.1c-0.6,0-1.3,0-1.9,0.1c-0.4,0-0.6-0.1-0.6-0.5
	c-0.1-0.8-0.3-1.6-0.5-2.4c-0.2-1.3-0.5-2.5-0.8-3.7C1044.7,164.2,1044.7,164,1044.8,163.8"/>
<path id="Path_69561-2" class="st1" d="M990,247.1c3.1,2,5.7,4.7,7.8,7.7c3.4,5.2,5.8,11,7.1,17c0.2,0.5,0,1.1-0.5,1.3
	c-2.9,1.7-5.8,3.4-8.8,5.1c-0.5,0.3-0.7,0.3-0.8-0.4c-0.2-2.1-0.5-4.1-1.1-6.1c-1.2-4.2-3.3-8-6-11.4c-1.1-1.2-2.4-2.2-3.8-2.8
	c-1.1-0.5-2.1-1.1-3.2-1.7c-0.4-0.3-0.2-0.5,0.1-0.8c1.6-1.4,3.2-2.7,4.8-4.2c0.8-0.8,1.5-1.5,2.3-2.4
	C988.3,247.9,989.2,246.5,990,247.1"/>
<path id="Path_69577" class="st0" d="M1329.3,155.2c-1,0.2-2.3,0.3-2.5,0.3c-2,0.2-4,0.6-6,1.1c-0.5,0.1-1,0.4-1.3-0.3
	c-2.4-6.8-4.6-13.6-4-21c0-0.4,0.3-0.8,0.7-0.8c0.3,0,0.5-0.1,0.8-0.1c0.6-0.1,1.2-0.3,1.9-0.4c0.7-0.1,1.4-0.3,2.1-0.5
	c1.4-0.4,2.7-0.8,4.1-1.2c0.7-0.2,0.8,0,0.9,0.6c0.1,0.9,0.1,1.8,0.1,2.7c-0.3,4.4,0.4,8.8,2,12.9c0.7,2.2,1.5,4.3,2.4,6.4
	C1330.5,155,1330,155.1,1329.3,155.2"/>
<path id="Path_69580" class="st4" d="M1174.7,331c-0.3-2.4-0.1-4.9,0.5-7.3c1.2-4,3-7.7,5.5-11.1c0.2-0.3,0.6-0.4,0.9-0.3
	c2.1,0.7,4.3,1.5,6.4,2.2c0.4,0.1,0.5,0.2,0.1,0.6c-1,1-1.9,2.1-2.6,3.3c-1.6,2.4-2.6,5.2-3.1,8c-0.1,1.1-0.1,2.1,0.3,3.2
	c0.2,0.8,0.4,1.6,0.5,2.3c0,0.3-0.2,0.3-0.4,0.3c-1.4-0.2-2.8-0.4-4.2-0.6c-0.7-0.1-1.5-0.1-2.2-0.1
	C1175.8,331.5,1174.7,331.6,1174.7,331"/>
<path id="Path_69791" class="st4" d="M1167.8,453.9c-0.3-2.4-0.1-4.9,0.5-7.3c1.2-4,3-7.7,5.5-11.1c0.2-0.3,0.6-0.4,0.9-0.3
	c2.1,0.7,4.3,1.5,6.4,2.2c0.4,0.1,0.5,0.2,0.1,0.6c-1,1-1.9,2.1-2.6,3.3c-1.6,2.4-2.6,5.2-3.1,8c-0.1,1.1-0.1,2.1,0.3,3.2
	c0.2,0.8,0.4,1.6,0.5,2.3c0,0.3-0.2,0.3-0.4,0.3c-1.4-0.2-2.8-0.4-4.2-0.6c-0.7-0.1-1.5-0.1-2.2-0.1
	C1169,454.4,1167.9,454.6,1167.8,453.9"/>
<path id="Path_69790" class="st4" d="M1242.5,504c-0.3-2.4-0.1-4.9,0.5-7.3c1.2-4,3-7.7,5.5-11.1c0.2-0.3,0.6-0.4,0.9-0.3
	c2.1,0.7,4.3,1.5,6.4,2.2c0.4,0.1,0.5,0.2,0.1,0.6c-1,1-1.9,2.1-2.6,3.3c-1.6,2.4-2.6,5.2-3.1,8c-0.1,1.1-0.1,2.1,0.3,3.2
	c0.2,0.8,0.4,1.6,0.5,2.3c0,0.3-0.2,0.3-0.4,0.3c-1.4-0.2-2.8-0.4-4.2-0.6c-0.7-0.1-1.5-0.1-2.2-0.1
	C1243.7,504.5,1242.6,504.7,1242.5,504"/>
<path id="Path_69581" class="st1" d="M1314.3,278.9c-2.7-0.4-5.2-1.2-7.8-1.8c-3.5-0.7-7-0.9-10.6-0.6c-1.7,0.1-3.4,0-5.1,0.1
	c-0.2-0.9,0.4-1.6,0.5-2.4c0.1-0.7,0.5-1.4,0.6-2.2c0.4-1.6,0.8-3.2,1.2-4.8c0.1-0.2,0-0.6,0.4-0.6c1.4,0,2.9,0,4.3-0.1
	c3.3-0.2,6.5,0.1,9.8,0.7c3.4,0.7,6.7,1.5,10.1,2.2c0.5,0.1,0.6,0.5,0.4,1s-0.4,1.1-0.6,1.6c-0.5,1.1-0.9,2.2-1.3,3.4
	c-0.4,0.9-0.7,1.8-1.1,2.7C1315.1,278.7,1314.8,279,1314.3,278.9"/>
<path id="Path_69586" class="st1" d="M1165.7,407.9c0.1-2.8,0.7-5.6,1-8.4c0.3-3.7,0.1-7.5-0.6-11.2c-0.3-1.8-0.4-3.6-0.7-5.3
	c0.9-0.3,1.7,0.2,2.5,0.3c0.8,0.1,1.6,0.3,2.4,0.4c1.7,0.3,3.4,0.5,5.2,0.8c0.3,0,0.6,0,0.7,0.3c0.2,1.5,0.4,3,0.6,4.6
	c0.6,3.4,0.7,6.9,0.3,10.4c-0.3,3.7-0.8,7.3-1.2,10.9c-0.1,0.6-0.5,0.7-1,0.6c-0.6-0.1-1.2-0.3-1.8-0.4c-1.2-0.4-2.5-0.7-3.7-1
	c-1-0.3-2-0.6-3-0.8C1166,408.7,1165.6,408.5,1165.7,407.9"/>
<path id="Path_69785" class="st1" d="M1337.4,190.1c2.5-1.3,5.3-2,7.9-3.1c3.5-1.5,6.7-3.4,9.6-5.8c1.4-1.1,2.9-2.1,4.4-3.1
	c0.7,0.6,0.6,1.6,1,2.4c0.3,0.7,0.4,1.5,0.8,2.3c0.6,1.6,1.2,3.3,1.8,4.9c0.1,0.2,0.3,0.5,0,0.8c-1.2,0.9-2.5,1.8-3.7,2.7
	c-2.8,2.1-5.8,3.9-9,5.2c-3.4,1.4-6.8,2.7-10.2,4.1c-0.6,0.2-0.8-0.1-0.9-0.6c-0.2-0.6-0.3-1.2-0.5-1.8c-0.2-1.3-0.5-2.5-0.8-3.8
	c-0.2-1-0.4-2-0.6-3C1336.9,190.8,1336.8,190.4,1337.4,190.1"/>
<path id="Path_69787" class="st1" d="M999.6,454.3c2.7-1,5.5-1.4,8.2-2.1c3.6-1,7.1-2.6,10.3-4.6c1.5-0.9,3.2-1.7,4.8-2.5
	c0.6,0.7,0.4,1.7,0.7,2.5c0.2,0.8,0.3,1.6,0.5,2.3c0.4,1.7,0.7,3.4,1.1,5.1c0.1,0.3,0.2,0.6-0.1,0.8c-1.3,0.7-2.7,1.4-4,2.2
	c-3,1.8-6.2,3.1-9.6,4c-3.5,1-7.1,1.9-10.7,2.8c-0.6,0.1-0.8-0.2-0.9-0.7c-0.1-0.6-0.2-1.2-0.2-1.8c-0.1-1.3-0.2-2.6-0.4-3.8
	c-0.1-1-0.2-2.1-0.3-3.1C999,454.9,999.1,454.5,999.6,454.3"/>
<path id="Path_69702" class="st1" d="M1281.9,444.3c0.1-2.8,0.7-5.6,1-8.4c0.3-3.7,0.1-7.5-0.6-11.2c-0.3-1.8-0.4-3.6-0.7-5.3
	c0.9-0.3,1.7,0.2,2.5,0.3c0.8,0.1,1.6,0.3,2.4,0.4c1.7,0.3,3.4,0.5,5.2,0.8c0.3,0,0.6,0,0.7,0.3c0.2,1.5,0.4,3,0.6,4.6
	c0.6,3.4,0.7,6.9,0.3,10.4c-0.3,3.7-0.8,7.3-1.2,10.9c-0.1,0.6-0.5,0.7-1,0.6c-0.6-0.1-1.2-0.3-1.8-0.4c-1.2-0.4-2.5-0.7-3.7-1
	c-1-0.3-2-0.6-3-0.8C1282.2,445.1,1281.8,444.9,1281.9,444.3"/>
<path id="Path_69792" class="st1" d="M1164.7,487.4c2.6-1.2,5.4-1.8,8-2.8c3.5-1.4,6.8-3.2,9.8-5.5c1.4-1.1,3-2,4.5-2.9
	c0.7,0.7,0.6,1.6,0.9,2.4c0.3,0.7,0.4,1.5,0.7,2.3c0.5,1.7,1,3.3,1.6,5c0.1,0.2,0.3,0.5,0,0.8c-1.3,0.9-2.6,1.7-3.8,2.6
	c-2.8,2-5.9,3.7-9.2,4.9c-3.4,1.3-6.9,2.5-10.4,3.7c-0.6,0.2-0.8-0.1-0.9-0.6c-0.1-0.6-0.3-1.2-0.4-1.8c-0.2-1.3-0.4-2.5-0.7-3.8
	c-0.2-1-0.4-2-0.5-3C1164.2,488.1,1164.2,487.6,1164.7,487.4"/>
<path id="Path_69710" class="st1" d="M1323.6,406.5c-2.7-0.9-5.1-2.4-7.7-3.5c-3.5-1.5-7.1-2.4-10.9-2.9c-1.8-0.2-3.5-0.7-5.3-1
	c0-0.9,0.7-1.5,1-2.3c0.3-0.7,0.8-1.4,1.1-2.1c0.8-1.6,1.6-3.1,2.3-4.7c0.1-0.2,0.2-0.6,0.5-0.6c1.5,0.3,3,0.6,4.5,0.8
	c3.4,0.5,6.8,1.5,10,2.9c3.4,1.5,6.7,3,10,4.5c0.5,0.3,0.5,0.7,0.2,1.1c-0.3,0.5-0.6,1.1-1,1.6c-0.8,1-1.5,2.1-2.1,3.2
	c-0.6,0.9-1.1,1.7-1.7,2.6C1324.5,406.4,1324.2,406.7,1323.6,406.5"/>
<path id="Path_70048" class="st1" d="M1358.9,254.7c-1.7,2.3-3.8,4.2-5.6,6.4c-2.4,2.9-4.4,6.1-5.9,9.5c-0.8,1.6-1.7,3.2-2.5,4.7
	c-0.9-0.2-1.3-1.1-1.9-1.7c-0.6-0.5-1.1-1.2-1.7-1.7c-1.3-1.2-2.5-2.4-3.8-3.6c-0.2-0.2-0.5-0.3-0.4-0.7c0.7-1.4,1.4-2.7,2.1-4.1
	c1.5-3.1,3.4-6.1,5.7-8.7c2.4-2.8,4.8-5.5,7.3-8.3c0.4-0.4,0.8-0.3,1.1,0.1c0.4,0.4,0.8,0.9,1.2,1.4c0.8,1,1.6,2,2.5,3
	c0.6,0.8,1.3,1.6,1.9,2.4C1359,253.8,1359.3,254.2,1358.9,254.7"/>
<path id="Path_69588" class="st1" d="M1285.7,502.2c-1.5-0.3-3-0.6-4.5-0.8l-1.4-0.3c-0.1,0-0.1,0-0.1-0.1c0,0,0,0,0-0.1
	c1.9,0.1,3.7,0.5,5.5,0.7C1285.4,501.8,1285.7,501.9,1285.7,502.2"/>
<path id="Path_69589" class="st1" d="M1279.6,501L1279.6,501c-1.1,0-2.3-0.2-3.5-0.4c-0.4-0.1-0.8-0.1-1.3-0.1
	c0.1-0.6,0.5-0.2,0.7-0.2C1276.9,500.5,1278.3,500.8,1279.6,501"/>
<path id="Path_69591" class="st2" d="M1320.2,358.2c1.3-1.7,2.9-3.3,4.2-5c1.5-1.9,2.6-4.1,4-6c1.6-2,2.9-4.2,4-6.6
	c0.9-2.5,1.7-5,2.4-7.5c0.2-0.8,0.7-0.9,1.3-0.8c2.7,0.1,5.5,0.2,8.2,0c0.1,0,0.2,0,0.4,0c1.6-0.1,1.6-0.1,1.4,1.5
	c-0.4,2.7-1.5,5.1-2.2,7.7c-1.3,4.3-3.3,8.3-6.1,11.9c-1.5,2.1-2.8,4.5-4.4,6.6c-0.5,0.6-0.7,0.6-1.4,0.4s-1.5-0.3-2.3-0.4
	c-2.4-0.4-4.8-0.7-7.1-1c-0.5-0.1-1-0.1-1.5-0.1C1320.7,358.7,1320.3,358.7,1320.2,358.2"/>
<path id="Path_69793" class="st2" d="M1103,470.5c1.4-0.8,2.9-1.3,4.2-2.1c1.5-0.9,2.9-2,4.4-3c1.7-0.9,3.2-2.1,4.5-3.5
	c1.3-1.6,2.5-3.2,3.7-4.9c0.4-0.5,0.7-0.4,1.1-0.1c1.9,1.2,3.8,2.5,5.7,3.5c0.1,0,0.2,0.1,0.3,0.2c1.2,0.6,1.2,0.6,0.6,1.8
	c-1,1.9-2.4,3.4-3.6,5.1c-1.9,2.8-4.5,5-7.4,6.7c-1.6,1-3.1,2.3-4.8,3.3c-0.5,0.3-0.6,0.1-1.1-0.3s-1-0.9-1.5-1.3
	c-1.5-1.3-3.1-2.6-4.7-3.9c-0.3-0.3-0.7-0.5-1-0.8C1103.2,471.1,1102.9,470.9,1103,470.5"/>
<path id="Path_70045" class="st3" d="M1325,63.8c5.5,2.3,11.3,3.9,17.1,4.9c2,0.4,4.1,0.6,6.2,0.8c0.9,0.1,1.8,0.3,2.7,0.4
	c0.6,0,1.2,0.1,1.8,0.3c0.4,0.2,0.1,1,0,1.4c-0.2,0.9-0.6,1.8-0.8,2.7c-0.4,1.5-0.7,2.9-1.1,4.4c-0.1,0.4-0.2,0.9-0.3,1.3
	c-0.1,0.7-0.5,0.8-1.8,0.6c-1.9-0.4-3.8-0.7-5.8-0.8c-5.4-0.8-10.8-2.1-16-3.7c-0.9-0.3-1.9-0.6-2.8-0.9c-0.6-0.2-0.8-0.4-0.7-1
	c0.2-1.2,0.4-2.5,0.6-3.7c0.3-2,0.5-3.9,0.7-5.9C1324.7,64.4,1324.8,64.1,1325,63.8"/>
<path id="Path_69703" class="st3" d="M1120.5,196.6c3.1,5.1,6.8,9.8,11,14c1.4,1.5,2.9,2.9,4.5,4.3c0.7,0.6,1.3,1.3,2,2
	c0.5,0.4,0.9,0.8,1.2,1.3c0.2,0.4-0.5,0.9-0.8,1.2c-0.7,0.6-1.5,1.1-2.3,1.7c-1.2,0.9-2.3,2-3.5,2.9c-0.4,0.3-0.7,0.5-1,0.8
	c-0.5,0.5-0.9,0.4-1.8-0.6c-1.3-1.4-2.7-2.8-4.2-4.1c-3.9-3.9-7.5-8-10.8-12.5c-0.6-0.8-1.2-1.6-1.8-2.4c-0.3-0.3-0.4-0.8-0.1-1.1
	c0-0.1,0.1-0.1,0.2-0.1c0.9-0.9,1.8-1.8,2.6-2.7c1.4-1.4,2.7-2.9,4-4.3C1120,196.9,1120.2,196.6,1120.5,196.6"/>
<path id="Path_69592" class="st2" d="M1322,225.1c-0.6-1.2-1-2.5-1.6-3.7c-0.7-1.3-1.5-2.6-2.2-3.9c-0.7-1.4-1.5-2.8-2.6-4
	s-2.3-2.3-3.5-3.4c-0.4-0.4-0.3-0.6-0.1-1c0.8-1.5,1.6-3,2.3-4.5c0-0.1,0.1-0.1,0.1-0.2c0.4-0.9,0.4-0.9,1.2-0.3
	c1.3,1,2.5,2.1,3.7,3.3c2,1.9,3.7,4.1,4.9,6.6c0.8,1.4,1.7,2.8,2.4,4.2c0.2,0.4,0.1,0.5-0.2,0.9c-0.3,0.4-0.6,0.8-0.9,1.2
	c-0.9,1.2-1.7,2.4-2.5,3.7c-0.2,0.2-0.3,0.5-0.5,0.8C1322.4,225,1322.3,225.2,1322,225.1"/>
<path id="Path_69711" class="st2" d="M1275.2,200.3c-0.6-1.2-1-2.5-1.6-3.7c-0.7-1.3-1.5-2.6-2.2-3.9c-0.7-1.4-1.5-2.8-2.6-4
	s-2.3-2.3-3.5-3.4c-0.4-0.4-0.3-0.6-0.1-1c0.8-1.5,1.6-3,2.3-4.5c0-0.1,0.1-0.1,0.1-0.2c0.4-0.9,0.4-0.9,1.2-0.3
	c1.3,1,2.5,2.1,3.7,3.3c2,1.9,3.7,4.1,4.9,6.6c0.8,1.4,1.7,2.8,2.4,4.2c0.2,0.4,0.1,0.5-0.2,0.9s-0.6,0.8-0.9,1.2
	c-0.9,1.2-1.7,2.4-2.5,3.7c-0.2,0.2-0.3,0.5-0.5,0.8C1275.6,200.2,1275.5,200.4,1275.2,200.3"/>
<path id="Path_70046" class="st2" d="M1253.1,72.1c-0.6-1.2-1-2.5-1.6-3.7c-0.7-1.3-1.5-2.6-2.2-3.9c-0.7-1.4-1.5-2.8-2.6-4
	s-2.3-2.3-3.5-3.4c-0.4-0.4-0.3-0.6-0.1-1c0.8-1.5,1.6-3,2.3-4.5c0-0.1,0.1-0.1,0.1-0.2c0.4-0.9,0.4-0.9,1.2-0.3
	c1.3,1,2.5,2.1,3.7,3.3c2,1.9,3.7,4.1,4.9,6.6c0.8,1.4,1.7,2.8,2.4,4.2c0.2,0.4,0.1,0.5-0.2,0.9s-0.6,0.8-0.9,1.2
	c-0.9,1.2-1.7,2.4-2.5,3.7c-0.2,0.2-0.3,0.5-0.5,0.8C1253.4,72,1253.3,72.2,1253.1,72.1"/>
<path id="Path_69712" class="st2" d="M900.1,345.4c-0.6-1.2-1-2.5-1.6-3.7c-0.7-1.3-1.5-2.6-2.2-3.9c-0.7-1.4-1.5-2.8-2.6-4
	s-2.3-2.3-3.5-3.4c-0.4-0.4-0.3-0.6-0.1-1c0.8-1.5,1.6-3,2.3-4.5c0-0.1,0.1-0.1,0.1-0.2c0.4-0.9,0.4-0.9,1.2-0.3
	c1.3,1,2.5,2.1,3.7,3.3c2,1.9,3.7,4.1,4.9,6.6c0.8,1.4,1.7,2.8,2.4,4.2c0.2,0.4,0.1,0.5-0.2,0.9s-0.6,0.8-0.9,1.2
	c-0.9,1.2-1.7,2.4-2.5,3.7c-0.2,0.2-0.3,0.5-0.5,0.8C900.4,345.3,900.3,345.5,900.1,345.4"/>
<path id="Path_69708" class="st2" d="M1033,75.4c-0.6-1.2-1-2.5-1.6-3.7c-0.7-1.3-1.5-2.6-2.2-3.9c-0.7-1.4-1.5-2.8-2.6-4
	s-2.3-2.3-3.5-3.4c-0.4-0.4-0.3-0.6-0.1-1c0.8-1.5,1.6-3,2.3-4.5c0-0.1,0.1-0.1,0.1-0.2c0.4-0.9,0.4-0.9,1.2-0.3
	c1.3,1,2.5,2.1,3.7,3.3c2,1.9,3.7,4.1,4.9,6.6c0.8,1.4,1.7,2.8,2.4,4.2c0.2,0.4,0.1,0.5-0.2,0.9s-0.6,0.8-0.9,1.2
	c-0.9,1.2-1.7,2.4-2.5,3.7c-0.2,0.2-0.3,0.5-0.5,0.8C1033.4,75.3,1033.3,75.5,1033,75.4"/>
<path id="Path_69579" class="st1" d="M1242.1,150.5c-0.5-3.7-0.2-7.4,0.7-10.9c1.7-6,4.5-11.6,8.2-16.5c0.3-0.5,0.8-0.7,1.3-0.4
	c3.2,1.1,6.4,2.2,9.6,3.2c0.6,0.2,0.7,0.4,0.2,0.9c-1.5,1.5-2.8,3.1-3.9,4.9c-2.3,3.6-3.9,7.7-4.6,12c-0.2,1.6-0.1,3.2,0.4,4.7
	c0.3,1.1,0.5,2.3,0.8,3.5c0,0.5-0.3,0.5-0.7,0.4c-2.1-0.3-4.2-0.7-6.3-0.8c-1.1-0.1-2.2-0.2-3.3-0.1
	C1243.8,151.2,1242.2,151.5,1242.1,150.5"/>
<path id="Path_69706" class="st1" d="M1181.6,76.6c2.4-2.8,5.3-5.1,8.6-6.8c5.6-2.7,11.6-4.4,17.8-5c0.5-0.1,1,0.2,1.2,0.7
	c1.3,3.1,2.7,6.2,4,9.3c0.2,0.6,0.2,0.8-0.5,0.7c-2.1-0.1-4.2,0-6.2,0.4c-4.3,0.7-8.4,2.3-12,4.6c-1.3,0.9-2.4,2.1-3.3,3.5
	c-0.6,1-1.4,2-2,2.9c-0.4,0.3-0.5,0.1-0.7-0.2c-1.2-1.8-2.3-3.5-3.6-5.2c-0.7-0.9-1.3-1.7-2.1-2.5
	C1182.2,78.4,1180.9,77.3,1181.6,76.6"/>
<path id="Path_69704" class="st3" d="M747.1,97.7c3.8,0.2,7.7,0,11.5-0.6c1.3-0.2,2.6-0.5,3.9-0.8c0.6-0.1,1.2-0.2,1.8-0.3
	c0.4-0.1,0.8-0.2,1.2-0.2c0.3,0,0.3,0.6,0.3,0.9c0.1,0.6,0,1.2,0.1,1.8c0.1,1,0.2,1.9,0.2,2.9c0,0.3,0,0.6,0.1,0.9
	c0.1,0.5-0.1,0.6-1,0.7c-1.2,0.2-2.5,0.4-3.7,0.7c-3.5,0.6-7,1-10.5,1.1c-0.6,0-1.3,0-1.9,0.1c-0.4,0-0.6-0.1-0.6-0.5
	c-0.1-0.8-0.3-1.6-0.5-2.4c-0.2-1.3-0.5-2.5-0.8-3.7C747.1,98,747.1,97.8,747.1,97.7"/>
<path id="Path_69704_00000158013780959821784300000011504026151616083631_" class="st3" d="M953,10.4c3.8,0.2,7.7,0,11.5-0.6
	c1.3-0.2,2.6-0.5,3.9-0.8c0.6-0.1,1.2-0.2,1.8-0.3c0.4-0.1,0.8-0.2,1.2-0.2c0.3,0,0.3,0.6,0.3,0.9c0.1,0.6,0,1.2,0.1,1.8
	c0.1,1,0.2,1.9,0.2,2.9c0,0.3,0,0.6,0.1,0.9c0.1,0.5-0.1,0.6-1,0.7c-1.2,0.2-2.5,0.4-3.7,0.7c-3.5,0.6-7,1-10.5,1.1
	c-0.6,0-1.3,0-1.9,0.1c-0.4,0-0.6-0.1-0.6-0.5c-0.1-0.8-0.3-1.6-0.5-2.4c-0.2-1.3-0.5-2.5-0.8-3.7C953,10.7,953,10.5,953,10.4"/>
<path id="Path_69707" class="st3" d="M1281,90.7c3.8,0.2,7.7,0,11.5-0.6c1.3-0.2,2.6-0.5,3.9-0.8c0.6-0.1,1.2-0.2,1.8-0.3
	c0.4-0.1,0.8-0.2,1.2-0.2c0.3,0,0.3,0.6,0.3,0.9c0.1,0.6,0,1.2,0.1,1.8c0.1,1,0.2,1.9,0.2,2.9c0,0.3,0,0.6,0.1,0.9
	c0.1,0.5-0.1,0.6-1,0.7c-1.2,0.2-2.5,0.4-3.7,0.7c-3.5,0.6-7,1-10.5,1.1c-0.6,0-1.3,0-1.9,0.1c-0.4,0-0.6-0.1-0.6-0.5
	c-0.1-0.8-0.3-1.6-0.5-2.4c-0.2-1.3-0.5-2.5-0.8-3.7C1280.9,91.1,1280.9,90.9,1281,90.7"/>
<path id="Path_69705" class="st3" d="M1096.4,417.5c3.8,0.2,7.7,0,11.5-0.6c1.3-0.2,2.6-0.5,3.9-0.8c0.6-0.1,1.2-0.2,1.8-0.3
	c0.4-0.1,0.8-0.2,1.2-0.2c0.3,0,0.3,0.6,0.3,0.9c0.1,0.6,0,1.2,0.1,1.8c0.1,1,0.2,1.9,0.2,2.9c0,0.3,0,0.6,0.1,0.9
	c0.1,0.5-0.1,0.6-1,0.7c-1.2,0.2-2.5,0.4-3.7,0.7c-3.5,0.6-7,1-10.5,1.1c-0.6,0-1.3,0-1.9,0.1c-0.4,0-0.6-0.1-0.6-0.5
	c-0.1-0.8-0.3-1.6-0.5-2.4c-0.2-1.3-0.5-2.5-0.8-3.7C1096.3,417.9,1096.3,417.7,1096.4,417.5"/>
<path id="Path_69784" class="st3" d="M1044.5,479.6c3.8,0.2,7.7,0,11.5-0.6c1.3-0.2,2.6-0.5,3.9-0.8c0.6-0.1,1.2-0.2,1.8-0.3
	c0.4-0.1,0.8-0.2,1.2-0.2c0.3,0,0.3,0.6,0.3,0.9c0.1,0.6,0,1.2,0.1,1.8c0.1,1,0.2,1.9,0.2,2.9c0,0.3,0,0.6,0.1,0.9
	c0.1,0.5-0.1,0.6-1,0.7c-1.2,0.2-2.5,0.4-3.7,0.7c-3.5,0.6-7,1-10.5,1.1c-0.6,0-1.3,0-1.9,0.1c-0.4,0-0.6-0.1-0.6-0.5
	c-0.1-0.8-0.3-1.6-0.5-2.4c-0.2-1.3-0.5-2.5-0.8-3.7C1044.4,480,1044.4,479.8,1044.5,479.6"/>
<path id="Path_69723" class="st3" d="M1236,309.6c3.8,0.2,7.7,0,11.5-0.6c1.3-0.2,2.6-0.5,3.9-0.8c0.6-0.1,1.2-0.2,1.8-0.3
	c0.4-0.1,0.8-0.2,1.2-0.2c0.3,0,0.3,0.6,0.3,0.9c0.1,0.6,0,1.2,0.1,1.8c0.1,1,0.2,1.9,0.2,2.9c0,0.3,0,0.6,0.1,0.9
	c0.1,0.5-0.1,0.6-1,0.7c-1.2,0.2-2.5,0.4-3.7,0.7c-3.5,0.6-7,1-10.5,1.1c-0.6,0-1.3,0-1.9,0.1c-0.4,0-0.6-0.1-0.6-0.5
	c-0.1-0.8-0.3-1.6-0.5-2.4c-0.2-1.3-0.5-2.5-0.8-3.7C1235.9,310,1235.9,309.8,1236,309.6"/>
<path id="Path_69789" class="st3" d="M1329.1,484.3c-0.7-3.8-1.7-7.5-3.2-11c-0.5-1.2-1.1-2.5-1.7-3.6c-0.3-0.5-0.5-1.1-0.7-1.7
	c-0.2-0.3-0.4-0.7-0.4-1.1c0-0.3,0.5-0.4,0.8-0.5c0.6-0.2,1.2-0.3,1.8-0.5c0.9-0.3,1.8-0.6,2.8-0.9c0.3-0.1,0.5-0.2,0.8-0.3
	c0.4-0.2,0.6,0,0.9,0.8c0.4,1.2,1,2.3,1.5,3.4c1.4,3.2,2.6,6.6,3.5,10c0.2,0.6,0.3,1.2,0.5,1.8c0.1,0.4,0.1,0.6-0.3,0.7
	c-0.7,0.3-1.5,0.6-2.2,1c-1.2,0.5-2.3,1.1-3.5,1.6C1329.5,484.2,1329.3,484.3,1329.1,484.3"/>
<path id="Path_69709" class="st3" d="M1217.5,456.1c3.8,0.2,7.7,0,11.5-0.6c1.3-0.2,2.6-0.5,3.9-0.8c0.6-0.1,1.2-0.2,1.8-0.3
	c0.4-0.1,0.8-0.2,1.2-0.2c0.3,0,0.3,0.6,0.3,0.9c0.1,0.6,0,1.2,0.1,1.8c0.1,1,0.2,1.9,0.2,2.9c0,0.3,0,0.6,0.1,0.9
	c0.1,0.5-0.1,0.6-1,0.7c-1.2,0.2-2.5,0.4-3.7,0.7c-3.5,0.6-7,1-10.5,1.1c-0.6,0-1.3,0-1.9,0.1c-0.4,0-0.6-0.1-0.6-0.5
	c-0.1-0.8-0.3-1.6-0.5-2.4c-0.2-1.3-0.5-2.5-0.8-3.7C1217.4,456.5,1217.4,456.3,1217.5,456.1"/>
<path id="Path_70027" class="st0" d="M381,147.2c-1,0.2-2.3,0.3-2.5,0.3c-2,0.2-4,0.6-6,1.1c-0.5,0.1-1,0.4-1.3-0.3
	c-2.4-6.8-4.6-13.6-4-21c0-0.4,0.3-0.8,0.7-0.8c0.3,0,0.5-0.1,0.8-0.1c0.6-0.1,1.2-0.3,1.9-0.4c0.7-0.1,1.4-0.3,2.1-0.5
	c1.4-0.4,2.7-0.8,4.1-1.2c0.7-0.2,0.8,0,0.9,0.6c0.1,0.9,0.1,1.8,0.1,2.7c-0.3,4.4,0.4,8.8,2,12.9c0.7,2.2,1.5,4.3,2.4,6.4
	C382.2,147,381.7,147.1,381,147.2"/>
<path id="Path_70011" class="st4" d="M266,333.6c-0.3-2.4-0.1-4.9,0.5-7.3c1.2-4,3-7.7,5.5-11.1c0.2-0.3,0.6-0.4,0.9-0.3
	c2.1,0.7,4.3,1.5,6.4,2.2c0.4,0.1,0.5,0.2,0.1,0.6c-1,1-1.9,2.1-2.6,3.3c-1.6,2.4-2.6,5.2-3.1,8c-0.1,1.1-0.1,2.1,0.3,3.2
	c0.2,0.8,0.4,1.6,0.5,2.3c0,0.3-0.2,0.3-0.4,0.3c-1.4-0.2-2.8-0.4-4.2-0.6c-0.7-0.1-1.5-0.1-2.2-0.1
	C267.2,334.1,266.1,334.3,266,333.6"/>
<path id="Path_70011_00000159437309905557443320000013365386707727128984_" class="st4" d="M636.6,500.9c-0.3-2.4-0.1-4.9,0.5-7.3
	c1.2-4,3-7.7,5.5-11.1c0.2-0.3,0.6-0.4,0.9-0.3c2.1,0.7,4.3,1.5,6.4,2.2c0.4,0.1,0.5,0.2,0.1,0.6c-1,1-1.9,2.1-2.6,3.3
	c-1.6,2.4-2.6,5.2-3.1,8c-0.1,1.1-0.1,2.1,0.3,3.2c0.2,0.8,0.4,1.6,0.5,2.3c0,0.3-0.2,0.3-0.4,0.3c-1.4-0.2-2.8-0.4-4.2-0.6
	c-0.7-0.1-1.5-0.1-2.2-0.1C637.8,501.4,636.7,501.6,636.6,500.9"/>
<path id="Path_70003" class="st4" d="M223.3,455.1c-0.3-2.4-0.1-4.9,0.5-7.3c1.2-4,3-7.7,5.5-11.1c0.2-0.3,0.6-0.4,0.9-0.3
	c2.1,0.8,4.3,1.5,6.4,2.2c0.4,0.1,0.5,0.2,0.1,0.6c-1,1-1.9,2.1-2.6,3.3c-1.6,2.4-2.6,5.2-3.1,8c-0.1,1.1-0.1,2.1,0.3,3.2
	c0.2,0.8,0.4,1.6,0.5,2.3c0,0.3-0.2,0.3-0.4,0.3c-1.4-0.2-2.8-0.4-4.2-0.6c-0.7-0.1-1.5-0.1-2.2-0.1
	C224.4,455.7,223.3,455.8,223.3,455.1"/>
<path id="Path_70003_00000029735481575326355070000013514139884450323894_" class="st4" d="M438.3,470.8c-0.3-2.4-0.1-4.9,0.5-7.3
	c1.2-4,3-7.7,5.5-11.1c0.2-0.3,0.6-0.4,0.9-0.3c2.1,0.8,4.3,1.5,6.4,2.2c0.4,0.1,0.5,0.2,0.1,0.6c-1,1-1.9,2.1-2.6,3.3
	c-1.6,2.4-2.6,5.2-3.1,8c-0.1,1.1-0.1,2.1,0.3,3.2c0.2,0.8,0.4,1.6,0.5,2.3c0,0.3-0.2,0.3-0.4,0.3c-1.4-0.2-2.8-0.4-4.2-0.6
	c-0.7-0.1-1.5-0.1-2.2-0.1C439.4,471.4,438.3,471.5,438.3,470.8"/>
<path id="Path_70003_00000042694894897014667340000010805751841223976122_" class="st4" d="M506.5,428.1c-0.3-2.4-0.1-4.9,0.5-7.3
	c1.2-4,3-7.7,5.5-11.1c0.2-0.3,0.6-0.4,0.9-0.3c2.1,0.8,4.3,1.5,6.4,2.2c0.4,0.1,0.5,0.2,0.1,0.6c-1,1-1.9,2.1-2.6,3.3
	c-1.6,2.4-2.6,5.2-3.1,8c-0.1,1.1-0.1,2.1,0.3,3.2c0.2,0.8,0.4,1.6,0.5,2.3c0,0.3-0.2,0.3-0.4,0.3c-1.4-0.2-2.8-0.4-4.2-0.6
	c-0.7-0.1-1.5-0.1-2.2-0.1C507.6,428.7,506.5,428.8,506.5,428.1"/>
<path id="Path_70013" class="st4" d="M454.3,62.6c-0.3-2.4-0.1-4.9,0.5-7.3c1.2-4,3-7.7,5.5-11.1c0.2-0.3,0.6-0.4,0.9-0.3
	c2.1,0.7,4.3,1.5,6.4,2.2c0.4,0.1,0.5,0.2,0.1,0.6c-1,1-1.9,2.1-2.6,3.3c-1.6,2.4-2.6,5.2-3.1,8c-0.1,1.1-0.1,2.1,0.3,3.2
	c0.2,0.8,0.4,1.6,0.5,2.3c0,0.3-0.2,0.3-0.4,0.3c-1.4-0.2-2.8-0.4-4.2-0.6c-0.7-0.1-1.5-0.1-2.2-0.1
	C455.5,63.1,454.4,63.3,454.3,62.6"/>
<path id="Path_70024" class="st1" d="M338.7,268.9c-2.7-0.4-5.2-1.2-7.8-1.8c-3.5-0.7-7-0.9-10.6-0.6c-1.7,0.1-3.4,0-5.1,0.1
	c-0.2-0.9,0.4-1.6,0.5-2.4c0.1-0.7,0.5-1.4,0.6-2.2c0.4-1.6,0.8-3.2,1.2-4.8c0.1-0.2,0-0.6,0.4-0.6c1.4,0,2.9,0,4.3-0.1
	c3.3-0.2,6.5,0.1,9.8,0.7c3.4,0.7,6.7,1.5,10.1,2.2c0.5,0.1,0.6,0.5,0.4,1c-0.2,0.5-0.4,1.1-0.6,1.6c-0.5,1.1-0.9,2.2-1.3,3.4
	c-0.4,0.9-0.7,1.8-1.1,2.7C339.5,268.7,339.2,269,338.7,268.9"/>
<path id="Path_70024_00000044153566648986060380000007687023798576978563_" class="st1" d="M179.8,492.7c-2.7-0.4-5.2-1.2-7.8-1.8
	c-3.5-0.7-7-0.9-10.6-0.6c-1.7,0.1-3.4,0-5.1,0.1c-0.2-0.9,0.4-1.6,0.5-2.4c0.1-0.7,0.5-1.4,0.6-2.2c0.4-1.6,0.8-3.2,1.2-4.8
	c0.1-0.2,0-0.6,0.4-0.6c1.4,0,2.9,0,4.3-0.1c3.3-0.2,6.5,0.1,9.8,0.7c3.4,0.7,6.7,1.5,10.1,2.2c0.5,0.1,0.6,0.5,0.4,1
	c-0.2,0.5-0.4,1.1-0.6,1.6c-0.5,1.1-0.9,2.2-1.3,3.4c-0.4,0.9-0.7,1.8-1.1,2.7C180.6,492.5,180.3,492.8,179.8,492.7"/>
<path id="Path_70002" class="st1" d="M217.3,399.9c0.1-2.8,0.7-5.6,1-8.4c0.3-3.7,0.1-7.5-0.6-11.2c-0.3-1.8-0.4-3.6-0.7-5.3
	c0.9-0.3,1.7,0.2,2.5,0.3c0.8,0.1,1.6,0.3,2.4,0.4c1.7,0.3,3.4,0.5,5.2,0.8c0.3,0,0.6,0,0.7,0.3c0.2,1.5,0.4,3,0.6,4.6
	c0.6,3.4,0.7,6.9,0.3,10.4c-0.3,3.7-0.8,7.3-1.2,10.9c-0.1,0.6-0.5,0.7-1,0.6c-0.6-0.1-1.2-0.3-1.8-0.4c-1.2-0.4-2.5-0.7-3.7-1
	c-1-0.3-2-0.6-3-0.8C217.7,400.7,217.3,400.5,217.3,399.9"/>
<path id="Path_70041" class="st1" d="M419.2,217.7c0.1-2.8,0.7-5.6,1-8.4c0.3-3.7,0.1-7.5-0.6-11.2c-0.3-1.8-0.4-3.6-0.7-5.3
	c0.9-0.3,1.7,0.2,2.5,0.3s1.6,0.3,2.4,0.4c1.7,0.3,3.4,0.5,5.2,0.8c0.3,0,0.6,0,0.7,0.3c0.2,1.5,0.4,3,0.6,4.6
	c0.6,3.4,0.7,6.9,0.3,10.4c-0.3,3.7-0.8,7.3-1.2,10.9c-0.1,0.6-0.5,0.7-1,0.6c-0.6-0.1-1.2-0.3-1.8-0.4c-1.2-0.4-2.5-0.7-3.7-1
	c-1-0.3-2-0.6-3-0.9C419.6,218.4,419.2,218.2,419.2,217.7"/>
<path id="Path_70041_00000135658699703196820970000017756466379531755966_" class="st1" d="M533.1,38c0.1-2.8,0.7-5.6,1-8.4
	c0.3-3.7,0.1-7.5-0.6-11.2c-0.3-1.8-0.4-3.6-0.7-5.3c0.9-0.3,1.7,0.2,2.5,0.3s1.6,0.3,2.4,0.4c1.7,0.3,3.4,0.5,5.2,0.8
	c0.3,0,0.6,0,0.7,0.3c0.2,1.5,0.4,3,0.6,4.6c0.6,3.4,0.7,6.9,0.3,10.4c-0.3,3.7-0.8,7.3-1.2,10.9c-0.1,0.6-0.5,0.7-1,0.6
	c-0.6-0.1-1.2-0.3-1.8-0.4c-1.2-0.4-2.5-0.7-3.7-1c-1-0.3-2-0.6-3-0.9C533.5,38.7,533.1,38.5,533.1,38"/>
<path id="Path_70041_00000152949320475601492530000007240238823643415690_" class="st1" d="M253.4,259.7c0.1-2.8,0.7-5.6,1-8.4
	c0.3-3.7,0.1-7.5-0.6-11.2c-0.3-1.8-0.4-3.6-0.7-5.3c0.9-0.3,1.7,0.2,2.5,0.3c0.8,0.1,1.6,0.3,2.4,0.4c1.7,0.3,3.4,0.5,5.2,0.8
	c0.3,0,0.6,0,0.7,0.3c0.2,1.5,0.4,3,0.6,4.6c0.6,3.4,0.7,6.9,0.3,10.4c-0.3,3.7-0.8,7.3-1.2,10.9c-0.1,0.6-0.5,0.7-1,0.6
	c-0.6-0.1-1.2-0.3-1.8-0.4c-1.2-0.4-2.5-0.7-3.7-1c-1-0.3-2-0.6-3-0.9C253.8,260.4,253.4,260.2,253.4,259.7"/>
<path id="Path_70051" class="st1" d="M578.1,91.6c1.8-2.2,4-4,6-6.1c2.6-2.8,4.7-5.9,6.4-9.2c0.8-1.6,1.8-3.1,2.8-4.6
	c0.9,0.3,1.2,1.2,1.8,1.8c0.6,0.5,1,1.2,1.6,1.8c1.2,1.3,2.4,2.5,3.6,3.8c0.2,0.2,0.5,0.3,0.3,0.7c-0.8,1.3-1.6,2.6-2.3,4
	c-1.7,3.1-3.7,5.9-6.1,8.4c-2.5,2.7-5.1,5.3-7.7,7.9c-0.4,0.4-0.8,0.2-1.1-0.1c-0.4-0.5-0.8-0.9-1.1-1.4c-0.7-1.1-1.5-2.1-2.3-3.1
	c-0.6-0.8-1.2-1.7-1.8-2.5C577.9,92.5,577.7,92.1,578.1,91.6"/>
<path id="Path_70004" class="st1" d="M82.5,456.7c0.9,2.7,1.3,5.5,2,8.3c1,3.6,2.5,7.1,4.4,10.3c0.9,1.5,1.6,3.2,2.4,4.8
	c-0.7,0.6-1.7,0.4-2.5,0.6c-0.8,0.2-1.6,0.2-2.4,0.5c-1.7,0.3-3.4,0.7-5.1,1c-0.3,0.1-0.6,0.2-0.8-0.1c-0.7-1.4-1.4-2.7-2.1-4.1
	c-1.7-3-3-6.3-3.9-9.6c-0.9-3.6-1.7-7.1-2.6-10.7c-0.1-0.6,0.2-0.8,0.7-0.9c0.6-0.1,1.2-0.2,1.8-0.2c1.3,0,2.6-0.1,3.8-0.3
	c1-0.1,2.1-0.2,3.1-0.2C81.8,456.1,82.3,456.2,82.5,456.7"/>
<path id="Path_70005" class="st1" d="M-0.1,461.4c2.7-1,5.5-1.4,8.2-2.1c3.6-1,7.1-2.6,10.3-4.6c1.5-0.9,3.2-1.7,4.8-2.5
	c0.6,0.7,0.4,1.7,0.7,2.5c0.2,0.8,0.3,1.6,0.5,2.3c0.4,1.7,0.7,3.4,1.1,5.1c0.1,0.3,0.2,0.6-0.1,0.8c-1.3,0.7-2.7,1.4-4,2.2
	c-3,1.8-6.2,3.1-9.6,4c-3.5,1-7.1,1.9-10.7,2.8c-0.6,0.1-0.8-0.2-0.9-0.7C0.1,470.6,0,470,0,469.4c-0.1-1.3-0.2-2.6-0.4-3.8
	c-0.1-1-0.2-2.1-0.3-3.1C-0.7,462-0.7,461.6-0.1,461.4"/>
<path id="Path_70016" class="st1" d="M364.6,399.9c0.1-2.8,0.7-5.6,1-8.4c0.3-3.7,0.1-7.5-0.6-11.2c-0.3-1.8-0.4-3.6-0.7-5.3
	c0.9-0.3,1.7,0.2,2.5,0.3c0.8,0.1,1.6,0.3,2.4,0.4c1.7,0.3,3.4,0.5,5.2,0.8c0.3,0,0.6,0,0.7,0.3c0.2,1.5,0.4,3,0.6,4.6
	c0.6,3.4,0.7,6.9,0.3,10.4c-0.3,3.7-0.8,7.3-1.2,10.9c-0.1,0.6-0.5,0.7-1,0.6c-0.6-0.1-1.2-0.3-1.8-0.4c-1.2-0.4-2.5-0.7-3.7-1
	c-1-0.3-2-0.6-3-0.8C365,400.7,364.6,400.5,364.6,399.9"/>
<path id="Path_70016_00000151545556847231644070000006004739872574097796_" class="st1" d="M283.4,481.1c0.1-2.8,0.7-5.6,1-8.4
	c0.3-3.7,0.1-7.5-0.6-11.2c-0.3-1.8-0.4-3.6-0.7-5.3c0.9-0.3,1.7,0.2,2.5,0.3c0.8,0.1,1.6,0.3,2.4,0.4c1.7,0.3,3.4,0.5,5.2,0.8
	c0.3,0,0.6,0,0.7,0.3c0.2,1.5,0.4,3,0.6,4.6c0.6,3.4,0.7,6.9,0.3,10.4c-0.3,3.7-0.8,7.3-1.2,10.9c-0.1,0.6-0.5,0.7-1,0.6
	c-0.6-0.1-1.2-0.3-1.8-0.4c-1.2-0.4-2.5-0.7-3.7-1c-1-0.3-2-0.6-3-0.8C283.8,481.9,283.4,481.7,283.4,481.1"/>
<path id="Path_70042" class="st1" d="M439.8,421.6c2.5-1.4,5.2-2.3,7.7-3.5c3.4-1.7,6.5-3.8,9.3-6.3c1.4-1.2,2.8-2.2,4.2-3.3
	c0.7,0.6,0.7,1.6,1.1,2.3c0.4,0.7,0.5,1.5,0.9,2.2c0.7,1.6,1.3,3.2,2,4.8c0.1,0.2,0.3,0.5,0.1,0.8c-1.2,1-2.4,1.9-3.6,2.9
	c-2.6,2.3-5.6,4.2-8.7,5.6c-3.3,1.6-6.7,3.1-10,4.6c-0.5,0.2-0.8-0.1-1-0.5c-0.2-0.6-0.4-1.2-0.6-1.7c-0.3-1.3-0.6-2.5-1-3.7
	c-0.3-1-0.5-2-0.8-3C439.3,422.3,439.3,421.9,439.8,421.6"/>
<path id="Path_70007" class="st1" d="M167.6,135.3c2.6-1.2,5.4-1.8,8-2.8c3.5-1.4,6.8-3.2,9.8-5.5c1.4-1.1,3-2,4.5-2.9
	c0.7,0.7,0.6,1.6,0.9,2.4c0.3,0.7,0.4,1.6,0.7,2.3c0.5,1.7,1,3.3,1.6,5c0.1,0.2,0.3,0.5,0,0.8c-1.3,0.9-2.6,1.7-3.8,2.6
	c-2.8,2-5.9,3.7-9.2,4.9c-3.4,1.3-6.9,2.5-10.4,3.7c-0.6,0.2-0.8-0.1-0.9-0.6c-0.1-0.6-0.3-1.2-0.4-1.8c-0.2-1.3-0.4-2.5-0.7-3.8
	c-0.2-1-0.4-2-0.5-3C167.1,136,167.1,135.6,167.6,135.3"/>
<path id="Path_70007_00000047053706152589825150000005795925112096057775_" class="st1" d="M119.4,19.6c2.6-1.2,5.4-1.8,8-2.8
	c3.5-1.4,6.8-3.2,9.8-5.5c1.4-1.1,3-2,4.5-2.9c0.7,0.7,0.6,1.6,0.9,2.4c0.3,0.7,0.4,1.6,0.7,2.3c0.5,1.7,1,3.3,1.6,5
	c0.1,0.2,0.3,0.5,0,0.8c-1.3,0.9-2.6,1.7-3.8,2.6c-2.8,2-5.9,3.7-9.2,4.9c-3.4,1.3-6.9,2.5-10.4,3.7c-0.6,0.2-0.8-0.1-0.9-0.6
	c-0.1-0.6-0.3-1.2-0.4-1.8c-0.2-1.3-0.4-2.5-0.7-3.8c-0.2-1-0.4-2-0.5-3C118.9,20.3,118.9,19.9,119.4,19.6"/>
<path id="Path_70025" class="st1" d="M441.3,279.8c-2.7-0.9-5.1-2.4-7.7-3.5c-3.5-1.5-7.1-2.4-10.9-2.9c-1.8-0.2-3.5-0.7-5.3-1
	c0-0.9,0.7-1.5,1-2.3c0.3-0.7,0.8-1.4,1.1-2.1c0.8-1.6,1.6-3.1,2.3-4.7c0.1-0.2,0.2-0.6,0.5-0.6c1.5,0.3,3,0.6,4.5,0.8
	c3.4,0.5,6.8,1.5,10,2.9c3.4,1.5,6.7,3,10,4.5c0.5,0.3,0.5,0.7,0.2,1.1c-0.3,0.5-0.6,1.1-1,1.6c-0.8,1-1.5,2.1-2.1,3.2
	c-0.6,0.9-1.1,1.7-1.7,2.6C442.2,279.6,441.8,279.9,441.3,279.8"/>
<path id="Path_70019" class="st1" d="M327.8,518.3c1,0.2,2,0.5,2.9,0.8c1.2,0.4,2.4,0.8,3.7,1c0.6,0.1,1.2,0.2,1.8,0.4
	c0.4,0.2,0.8,0,0.9-0.4c-0.4,1.5-0.7,1.7-2.5,1.1c-1.1-0.4-2.3-0.6-3.4-0.9c-0.7-0.2-1.4-0.4-2.1-0.7c-0.4-0.2-0.9-0.3-1.3-0.3
	c-1-0.2-1-0.6-1-1.8C327.2,517.3,327.4,518.4,327.8,518.3"/>
<path id="Path_70021" class="st1" d="M337.4,494.2c-1.5-0.3-3-0.6-4.5-0.8c-0.5-0.1-0.9-0.2-1.4-0.3c-0.1,0-0.1,0-0.1-0.1
	c0,0,0,0,0-0.1c1.9,0.1,3.7,0.5,5.5,0.7C337.1,493.8,337.4,493.9,337.4,494.2"/>
<path id="Path_70020" class="st1" d="M331.3,493L331.3,493c-1.1,0-2.3-0.2-3.5-0.4c-0.4-0.1-0.8-0.1-1.3-0.1
	c0.1-0.6,0.5-0.2,0.7-0.2C328.6,492.5,330,492.8,331.3,493"/>
<path id="Path_70022" class="st1" d="M334.4,520.1c-1.3-0.1-2.5-0.4-3.7-1C332,519.3,333.2,519.6,334.4,520.1"/>
<path id="Path_70029" class="st2" d="M397.9,356.2c1.3-1.7,2.9-3.3,4.2-5c1.5-1.9,2.6-4.1,4-6c1.6-2,2.9-4.2,4-6.6
	c0.9-2.5,1.7-5,2.4-7.5c0.2-0.8,0.7-0.9,1.3-0.8c2.7,0.1,5.5,0.2,8.2,0c0.1,0,0.2,0,0.4,0c1.6-0.1,1.6-0.1,1.4,1.5
	c-0.4,2.7-1.5,5.1-2.2,7.7c-1.3,4.3-3.3,8.3-6.1,11.9c-1.5,2.1-2.8,4.5-4.4,6.6c-0.5,0.6-0.7,0.6-1.4,0.4s-1.5-0.3-2.3-0.4
	c-2.4-0.4-4.8-0.7-7.1-1c-0.5-0.1-1-0.1-1.5-0.1C398.3,356.7,398,356.7,397.9,356.2"/>
<path id="Path_70029_00000155147586035358151670000001269239044512677781_" class="st2" d="M487.3,324.1c1.3-1.7,2.9-3.3,4.2-5
	c1.5-1.9,2.6-4.1,4-6c1.6-2,2.9-4.2,4-6.6c0.9-2.5,1.7-5,2.4-7.5c0.2-0.8,0.7-0.9,1.3-0.8c2.7,0.1,5.5,0.2,8.2,0c0.1,0,0.2,0,0.4,0
	c1.6-0.1,1.6-0.1,1.4,1.5c-0.4,2.7-1.5,5.1-2.2,7.7c-1.3,4.3-3.3,8.3-6.1,11.9c-1.5,2.1-2.8,4.5-4.4,6.6c-0.5,0.6-0.7,0.6-1.4,0.4
	s-1.5-0.3-2.3-0.4c-2.4-0.4-4.8-0.7-7.1-1c-0.5-0.1-1-0.1-1.5-0.1C487.7,324.6,487.4,324.6,487.3,324.1"/>
<path id="Path_70009" class="st2" d="M234.2,204.2c1.4-0.8,2.9-1.3,4.2-2.1c1.5-0.9,2.9-2,4.4-3c1.7-0.9,3.2-2.1,4.5-3.5
	c1.3-1.6,2.5-3.2,3.7-4.9c0.4-0.5,0.7-0.4,1.1-0.1c1.9,1.2,3.8,2.5,5.7,3.5c0.1,0,0.2,0.1,0.3,0.2c1.2,0.6,1.2,0.6,0.6,1.8
	c-1,1.9-2.4,3.4-3.6,5.1c-1.9,2.8-4.5,5-7.4,6.7c-1.6,1-3.1,2.3-4.8,3.3c-0.5,0.3-0.6,0.1-1.1-0.3s-1-0.9-1.5-1.3
	c-1.5-1.3-3.1-2.6-4.7-3.9c-0.3-0.3-0.7-0.5-1-0.8C234.4,204.8,234.1,204.6,234.2,204.2"/>
<path id="Path_70009_00000168813809167655109220000011420171543084267197_" class="st2" d="M283,13.8c1.4-0.8,2.9-1.3,4.2-2.1
	c1.5-0.9,2.9-2,4.4-3c1.7-0.9,3.2-2.1,4.5-3.5c1.3-1.6,2.5-3.2,3.7-4.9c0.4-0.5,0.7-0.4,1.1-0.1c1.9,1.2,3.8,2.5,5.7,3.5
	c0.1,0,0.2,0.1,0.3,0.2c1.2,0.6,1.2,0.6,0.6,1.8c-1,1.9-2.4,3.4-3.6,5.1c-1.9,2.8-4.5,5-7.4,6.7c-1.6,1-3.1,2.3-4.8,3.3
	c-0.5,0.3-0.6,0.1-1.1-0.3s-1-0.9-1.5-1.3c-1.5-1.3-3.1-2.6-4.7-3.9c-0.3-0.3-0.7-0.5-1-0.8C283.2,14.4,282.9,14.2,283,13.8"/>
<path id="Path_70009_00000134240081597571410680000017621699176029917323_" class="st2" d="M145.1,75c1.4-0.8,2.9-1.3,4.2-2.1
	c1.5-0.9,2.9-2,4.4-3c1.7-0.9,3.2-2.1,4.5-3.5c1.3-1.6,2.5-3.2,3.7-4.9c0.4-0.5,0.7-0.4,1.1-0.1c1.9,1.2,3.8,2.5,5.7,3.5
	c0.1,0,0.2,0.1,0.3,0.2c1.2,0.6,1.2,0.6,0.6,1.8c-1,1.9-2.4,3.4-3.6,5.1c-1.9,2.8-4.5,5-7.4,6.7c-1.6,1-3.1,2.3-4.8,3.3
	c-0.5,0.3-0.6,0.1-1.1-0.3s-1-0.9-1.5-1.3c-1.5-1.3-3.1-2.6-4.7-3.9c-0.3-0.3-0.7-0.5-1-0.8C145.3,75.6,145,75.4,145.1,75"/>
<path id="Path_70012" class="st3" d="M334.2,312.4c5.5,2.3,11.3,3.9,17.1,4.9c2,0.4,4.1,0.6,6.2,0.8c0.9,0.1,1.8,0.3,2.7,0.4
	c0.6,0,1.2,0.1,1.8,0.3c0.4,0.2,0.1,1,0,1.4c-0.2,0.9-0.6,1.8-0.8,2.7c-0.4,1.5-0.7,2.9-1.1,4.4c-0.1,0.4-0.2,0.9-0.3,1.3
	c-0.1,0.7-0.5,0.8-1.8,0.6c-1.9-0.4-3.8-0.7-5.8-0.8c-5.4-0.8-10.8-2.1-16-3.7c-0.9-0.3-1.9-0.6-2.8-0.9c-0.6-0.2-0.8-0.4-0.7-1
	c0.2-1.2,0.4-2.5,0.6-3.7c0.3-2,0.5-3.9,0.7-5.9C334,312.9,334.1,312.6,334.2,312.4"/>
<path id="Path_70000" class="st3" d="M148.7,327.4c3.1,5.1,6.8,9.8,11,14c1.4,1.5,2.9,2.9,4.5,4.3c0.7,0.6,1.3,1.3,2,2
	c0.5,0.4,0.9,0.8,1.2,1.3c0.2,0.4-0.5,0.9-0.8,1.2c-0.7,0.6-1.5,1.1-2.3,1.7c-1.2,0.9-2.3,2-3.5,2.9c-0.4,0.3-0.7,0.5-1,0.8
	c-0.5,0.5-0.9,0.4-1.8-0.6c-1.3-1.4-2.7-2.8-4.2-4.1c-3.9-3.9-7.5-8-10.8-12.5c-0.6-0.8-1.2-1.6-1.8-2.4c-0.3-0.3-0.4-0.8-0.1-1.1
	c0-0.1,0.1-0.1,0.2-0.1c0.9-0.9,1.8-1.8,2.6-2.7c1.4-1.4,2.7-2.9,4-4.3C148.2,327.7,148.3,327.4,148.7,327.4"/>
<path id="Path_70028" class="st2" d="M373.7,217.1c-0.6-1.2-1-2.5-1.6-3.7c-0.7-1.3-1.5-2.6-2.2-3.9c-0.7-1.4-1.5-2.8-2.6-4
	s-2.3-2.3-3.5-3.4c-0.4-0.4-0.3-0.6-0.1-1c0.8-1.5,1.6-3,2.3-4.5c0-0.1,0.1-0.1,0.1-0.2c0.4-0.9,0.4-0.9,1.2-0.3
	c1.3,1,2.5,2.1,3.7,3.3c2,1.9,3.7,4.1,4.9,6.6c0.8,1.4,1.7,2.8,2.4,4.2c0.2,0.4,0.1,0.5-0.2,0.9s-0.6,0.8-0.9,1.2
	c-0.9,1.2-1.7,2.4-2.5,3.7c-0.2,0.2-0.3,0.5-0.5,0.8C374.1,217,374,217.2,373.7,217.1"/>
<path id="Path_70040" class="st2" d="M351,45.4c-0.6-1.2-1-2.5-1.6-3.7c-0.7-1.3-1.5-2.6-2.2-3.9c-0.7-1.4-1.5-2.8-2.6-4
	s-2.3-2.3-3.5-3.4c-0.4-0.4-0.3-0.6-0.1-1c0.8-1.5,1.6-3,2.3-4.5c0-0.1,0.1-0.1,0.1-0.2c0.4-0.9,0.4-0.9,1.2-0.3
	c1.3,1,2.5,2.1,3.7,3.3c2,1.9,3.7,4.1,4.9,6.6c0.8,1.4,1.7,2.8,2.4,4.2c0.2,0.4,0.1,0.5-0.2,0.9s-0.6,0.8-0.9,1.2
	c-0.9,1.2-1.7,2.4-2.5,3.7c-0.2,0.2-0.3,0.5-0.5,0.8C351.4,45.3,351.3,45.5,351,45.4"/>
<path id="Path_70035" class="st2" d="M199.8,316.6c-0.6-1.2-1-2.5-1.6-3.7c-0.7-1.3-1.5-2.6-2.2-3.9c-0.7-1.4-1.5-2.8-2.6-4
	s-2.3-2.3-3.5-3.4c-0.4-0.4-0.3-0.6-0.1-1c0.8-1.5,1.6-3,2.3-4.5c0-0.1,0.1-0.1,0.1-0.2c0.4-0.9,0.4-0.9,1.2-0.3
	c1.3,1,2.5,2.1,3.7,3.3c2,1.9,3.7,4.1,4.9,6.6c0.8,1.4,1.7,2.8,2.4,4.2c0.2,0.4,0.1,0.5-0.2,0.9s-0.6,0.8-0.9,1.2
	c-0.9,1.2-1.7,2.4-2.5,3.7c-0.2,0.2-0.3,0.5-0.5,0.8C200.1,316.5,200,316.7,199.8,316.6"/>
<path id="Path_70044" class="st2" d="M90.1,252.2c-0.6-1.2-1-2.5-1.6-3.7c-0.7-1.3-1.5-2.6-2.2-3.9c-0.7-1.4-1.5-2.8-2.6-4
	s-2.3-2.3-3.5-3.4c-0.4-0.4-0.3-0.6-0.1-1c0.8-1.5,1.6-3,2.3-4.5c0-0.1,0.1-0.1,0.1-0.2c0.4-0.9,0.4-0.9,1.2-0.3
	c1.3,1,2.5,2.1,3.7,3.3c2,1.9,3.7,4.1,4.9,6.6c0.8,1.4,1.7,2.8,2.4,4.2c0.2,0.4,0.1,0.5-0.2,0.9s-0.6,0.8-0.9,1.2
	c-0.9,1.2-1.7,2.4-2.5,3.7c-0.2,0.2-0.3,0.5-0.5,0.8C90.5,252.1,90.4,252.3,90.1,252.2"/>
<path id="Path_70017" class="st2" d="M310.7,212.5c-0.6-1.2-1-2.5-1.6-3.7c-0.7-1.3-1.5-2.6-2.2-3.9c-0.7-1.4-1.5-2.8-2.6-4
	s-2.3-2.3-3.5-3.4c-0.4-0.4-0.3-0.6-0.1-1c0.8-1.5,1.6-3,2.3-4.5c0-0.1,0.1-0.1,0.1-0.2c0.4-0.9,0.4-0.9,1.2-0.3
	c1.3,1,2.5,2.1,3.7,3.3c2,1.9,3.7,4.1,4.9,6.6c0.8,1.4,1.7,2.8,2.4,4.2c0.2,0.4,0.1,0.5-0.2,0.9s-0.6,0.8-0.9,1.2
	c-0.9,1.2-1.7,2.4-2.5,3.7c-0.2,0.2-0.3,0.5-0.5,0.8C311,212.4,310.9,212.6,310.7,212.5"/>
<path id="Path_70050" class="st2" d="M440.4,151c-0.6-1.2-1-2.5-1.6-3.7c-0.7-1.3-1.5-2.6-2.2-3.9c-0.7-1.4-1.5-2.8-2.6-4
	s-2.3-2.3-3.5-3.4c-0.4-0.4-0.3-0.6-0.1-1c0.8-1.5,1.6-3,2.3-4.5c0-0.1,0.1-0.1,0.1-0.2c0.4-0.9,0.4-0.9,1.2-0.3
	c1.3,1,2.5,2.1,3.7,3.3c2,1.9,3.7,4.1,4.9,6.6c0.8,1.4,1.7,2.8,2.4,4.2c0.2,0.4,0.1,0.5-0.2,0.9s-0.6,0.8-0.9,1.2
	c-0.9,1.2-1.7,2.4-2.5,3.7c-0.2,0.2-0.3,0.5-0.5,0.8C440.7,150.9,440.6,151.1,440.4,151"/>
<path id="Path_70031" class="st2" d="M256.8,97.7c-0.6-1.2-1-2.5-1.6-3.7c-0.7-1.3-1.5-2.6-2.2-3.9c-0.7-1.4-1.5-2.8-2.6-4
	s-2.3-2.3-3.5-3.4c-0.4-0.4-0.3-0.6-0.1-1c0.8-1.5,1.6-3,2.3-4.5c0-0.1,0.1-0.1,0.1-0.2c0.4-0.9,0.4-0.9,1.2-0.3
	c1.3,1,2.5,2.1,3.7,3.3c2,1.9,3.7,4.1,4.9,6.6c0.8,1.4,1.7,2.8,2.4,4.2c0.2,0.4,0.1,0.5-0.2,0.9c-0.3,0.4-0.6,0.8-0.9,1.2
	c-0.9,1.2-1.7,2.4-2.5,3.7c-0.2,0.2-0.3,0.5-0.5,0.8C257.2,97.6,257.1,97.8,256.8,97.7"/>
<path id="Path_69999" class="st2" d="M37.7,340.9c-0.6-1.2-1-2.5-1.6-3.7c-0.7-1.3-1.5-2.6-2.2-3.9c-0.7-1.4-1.5-2.8-2.6-4
	s-2.3-2.3-3.5-3.4c-0.4-0.4-0.3-0.6-0.1-1c0.8-1.5,1.6-3,2.3-4.5c0-0.1,0.1-0.1,0.1-0.2c0.4-0.9,0.4-0.9,1.2-0.3
	c1.3,1,2.5,2.1,3.7,3.3c2,1.9,3.7,4.1,4.9,6.6c0.8,1.4,1.7,2.8,2.4,4.2c0.2,0.4,0.1,0.5-0.2,0.9s-0.6,0.8-0.9,1.2
	c-0.9,1.2-1.7,2.4-2.5,3.7c-0.2,0.2-0.3,0.5-0.5,0.8C38.1,340.8,38,341,37.7,340.9"/>
<path id="Path_70010" class="st2" d="M15.1,217.1c-0.6-1.2-1-2.5-1.6-3.7c-0.7-1.3-1.5-2.6-2.2-3.9c-0.7-1.4-1.5-2.8-2.6-4
	s-2.3-2.3-3.5-3.4c-0.4-0.4-0.3-0.6-0.1-1c0.8-1.5,1.6-3,2.3-4.5c0-0.1,0.1-0.1,0.1-0.2c0.4-0.9,0.4-0.9,1.2-0.3
	c1.3,1,2.5,2.1,3.7,3.3c2,1.9,3.7,4.1,4.9,6.6c0.8,1.4,1.7,2.8,2.4,4.2c0.2,0.4,0.1,0.5-0.2,0.9c-0.3,0.4-0.6,0.8-0.9,1.2
	c-0.9,1.2-1.7,2.4-2.5,3.7c-0.2,0.2-0.3,0.5-0.5,0.8C15.4,217,15.3,217.2,15.1,217.1"/>
<path id="Path_69998" class="st2" d="M84.7,67.4c-0.6-1.2-1-2.5-1.6-3.7c-0.7-1.3-1.5-2.6-2.2-3.9c-0.7-1.4-1.5-2.8-2.6-4
	s-2.3-2.3-3.5-3.4c-0.4-0.4-0.3-0.6-0.1-1c0.8-1.5,1.6-3,2.3-4.5c0-0.1,0.1-0.1,0.1-0.2c0.4-0.9,0.4-0.9,1.2-0.3
	c1.3,1,2.5,2.1,3.7,3.3c2,1.9,3.7,4.1,4.9,6.6c0.8,1.4,1.7,2.8,2.4,4.2c0.2,0.4,0.1,0.5-0.2,0.9s-0.6,0.8-0.9,1.2
	c-0.9,1.2-1.7,2.4-2.5,3.7c-0.2,0.2-0.3,0.5-0.5,0.8C85,67.3,84.9,67.5,84.7,67.4"/>
<path id="Path_70015" class="st1" d="M293.8,142.5c-0.5-3.7-0.2-7.4,0.7-10.9c1.7-6,4.5-11.6,8.2-16.5c0.3-0.5,0.8-0.7,1.3-0.4
	c3.2,1.1,6.4,2.2,9.6,3.2c0.6,0.2,0.7,0.4,0.2,0.9c-1.5,1.5-2.8,3.1-3.9,4.9c-2.3,3.6-3.9,7.7-4.6,12c-0.2,1.6-0.1,3.2,0.4,4.7
	c0.3,1.1,0.5,2.3,0.8,3.5c0,0.5-0.3,0.5-0.7,0.4c-2.1-0.3-4.2-0.7-6.3-0.8c-1.1-0.1-2.2-0.2-3.3-0.1
	C295.5,143.2,293.9,143.5,293.8,142.5"/>
<path id="Path_70032" class="st1" d="M81.2,157.4c-0.5-3.7-0.2-7.4,0.7-10.9c1.7-6,4.5-11.6,8.2-16.5c0.3-0.5,0.8-0.7,1.3-0.4
	c3.2,1.1,6.4,2.2,9.6,3.2c0.6,0.2,0.7,0.4,0.2,0.9c-1.5,1.5-2.8,3.1-3.9,4.9c-2.3,3.6-3.9,7.7-4.6,12c-0.2,1.6-0.1,3.2,0.4,4.7
	c0.3,1.1,0.5,2.3,0.8,3.5c0,0.5-0.3,0.5-0.6,0.4c-2.1-0.3-4.2-0.7-6.3-0.8c-1.1-0.1-2.2-0.2-3.3-0.1C83,158.2,81.4,158.4,81.2,157.4
	"/>
<path id="Path_70008" class="st1" d="M222.2,42c2.4-2.8,5.3-5.1,8.6-6.8c5.6-2.7,11.6-4.4,17.8-5c0.5-0.1,1,0.2,1.2,0.7
	c1.3,3.1,2.7,6.2,4,9.3c0.2,0.6,0.2,0.8-0.5,0.7c-2.1-0.1-4.2,0-6.2,0.4c-4.3,0.7-8.4,2.3-12,4.6c-1.3,0.9-2.4,2.1-3.3,3.5
	c-0.6,1-1.4,2-2,2.9c-0.4,0.3-0.5,0.1-0.7-0.2c-1.2-1.8-2.3-3.5-3.6-5.2c-0.7-0.9-1.3-1.7-2.1-2.5C222.8,43.8,221.5,42.7,222.2,42"
	/>
<path id="Path_70023" class="st3" d="M332.7,82.7c3.8,0.2,7.7,0,11.5-0.6c1.3-0.2,2.6-0.5,3.9-0.8c0.6-0.1,1.2-0.2,1.8-0.3
	c0.4-0.1,0.8-0.2,1.2-0.2c0.3,0,0.3,0.6,0.3,0.9c0.1,0.6,0,1.2,0.1,1.8c0.1,1,0.2,1.9,0.2,2.9c0,0.3,0,0.6,0.1,0.9
	c0.1,0.5-0.1,0.6-1,0.7c-1.2,0.2-2.5,0.4-3.7,0.7c-3.5,0.6-7,1-10.5,1.1c-0.6,0-1.3,0-1.9,0.1c-0.4,0-0.6-0.1-0.6-0.5
	c-0.1-0.8-0.3-1.6-0.5-2.4c-0.2-1.3-0.5-2.5-0.8-3.7C332.6,83.1,332.6,82.9,332.7,82.7"/>
<path id="Path_70052" class="st3" d="M442.8,92.5c3.8,0.2,7.7,0,11.5-0.6c1.3-0.2,2.6-0.5,3.9-0.8c0.6-0.1,1.2-0.2,1.8-0.3
	c0.4-0.1,0.8-0.2,1.2-0.2c0.3,0,0.3,0.6,0.3,0.9c0.1,0.6,0,1.2,0.1,1.8c0.1,1,0.2,1.9,0.2,2.9c0,0.3,0,0.6,0.1,0.9
	c0.1,0.5-0.1,0.6-1,0.7c-1.2,0.2-2.5,0.4-3.7,0.7c-3.5,0.6-7,1-10.6,1.1c-0.6,0-1.3,0-1.9,0.1c-0.4,0-0.6-0.1-0.6-0.5
	c-0.1-0.8-0.3-1.6-0.5-2.4c-0.2-1.3-0.5-2.5-0.8-3.7C442.7,92.9,442.7,92.7,442.8,92.5"/>
<path id="Path_70001" class="st3" d="M68.3,381.8c3.8,0.2,7.7,0,11.5-0.6c1.3-0.2,2.6-0.5,3.9-0.8c0.6-0.1,1.2-0.2,1.8-0.3
	c0.4-0.1,0.8-0.2,1.2-0.2c0.3,0,0.3,0.6,0.3,0.9c0.1,0.6,0,1.2,0.1,1.8c0.1,1,0.2,1.9,0.2,2.9c0,0.3,0,0.6,0.1,0.9
	c0.1,0.5-0.1,0.6-1,0.7c-1.2,0.2-2.5,0.4-3.7,0.7c-3.5,0.6-7,1-10.6,1.1c-0.6,0-1.3,0-1.9,0.1c-0.4,0-0.6-0.1-0.6-0.5
	c-0.1-0.8-0.3-1.6-0.5-2.4c-0.2-1.3-0.5-2.5-0.8-3.7C68.2,382.2,68.2,382,68.3,381.8"/>
<path id="Path_70006" class="st3" d="M157.6,417.5c3.8,0.2,7.7,0,11.5-0.6c1.3-0.2,2.6-0.5,3.9-0.8c0.6-0.1,1.2-0.2,1.8-0.3
	c0.4-0.1,0.8-0.2,1.2-0.2c0.3,0,0.3,0.6,0.3,0.9c0.1,0.6,0,1.2,0.1,1.8c0.1,1,0.2,1.9,0.2,2.9c0,0.3,0,0.6,0.1,0.9
	c0.1,0.5-0.1,0.6-1,0.7c-1.2,0.2-2.5,0.4-3.7,0.7c-3.5,0.6-7,1-10.5,1.1c-0.6,0-1.3,0-1.9,0.1c-0.4,0-0.6-0.1-0.6-0.5
	c-0.1-0.8-0.3-1.6-0.5-2.4c-0.2-1.3-0.5-2.5-0.8-3.7C157.5,417.9,157.5,417.7,157.6,417.5"/>
<path id="Path_70018" class="st3" d="M155.8,262.1c3.8,0.2,7.7,0,11.5-0.6c1.3-0.2,2.6-0.5,3.9-0.8c0.6-0.1,1.2-0.2,1.8-0.3
	c0.4-0.1,0.8-0.2,1.2-0.2c0.3,0,0.3,0.6,0.3,0.9c0.1,0.6,0,1.2,0.1,1.8c0.1,1,0.2,1.9,0.2,2.9c0,0.3,0,0.6,0.1,0.9
	c0.1,0.5-0.1,0.6-1,0.7c-1.2,0.2-2.5,0.4-3.7,0.7c-3.5,0.6-7,1-10.5,1.1c-0.6,0-1.3,0-1.9,0.1c-0.4,0-0.6-0.1-0.6-0.5
	c-0.1-0.8-0.3-1.6-0.5-2.4c-0.2-1.3-0.5-2.5-0.8-3.7C155.7,262.5,155.7,262.3,155.8,262.1"/>
<path id="Path_70026" class="st2" d="M347.2,462c-0.7-3.8-1.7-7.5-3.2-11c-0.5-1.2-1.1-2.5-1.7-3.6c-0.3-0.5-0.5-1.1-0.7-1.7
	c-0.2-0.3-0.4-0.7-0.4-1.1c0-0.3,0.5-0.4,0.8-0.5c0.6-0.2,1.2-0.3,1.8-0.5c0.9-0.3,1.8-0.6,2.8-0.9c0.3-0.1,0.5-0.2,0.8-0.3
	c0.4-0.2,0.6,0,0.9,0.8c0.4,1.2,1,2.3,1.5,3.4c1.4,3.2,2.6,6.6,3.5,10c0.2,0.6,0.3,1.2,0.5,1.8c0.1,0.4,0.1,0.6-0.3,0.7
	c-0.7,0.3-1.5,0.6-2.2,1c-1.2,0.5-2.3,1.1-3.5,1.6C347.6,461.9,347.4,462,347.2,462"/>
<path id="Path_70014" class="st3" d="M298.5,408.7c3.8,0.2,7.7,0,11.5-0.6c1.3-0.2,2.6-0.5,3.9-0.8c0.6-0.1,1.2-0.2,1.8-0.3
	c0.4-0.1,0.8-0.2,1.2-0.2c0.3,0,0.3,0.6,0.3,0.9c0.1,0.6,0,1.2,0.1,1.8c0.1,1,0.2,1.9,0.2,2.9c0,0.3,0,0.6,0.1,0.9
	c0.1,0.5-0.1,0.6-1,0.7c-1.2,0.2-2.5,0.4-3.7,0.7c-3.5,0.6-7,1-10.5,1.1c-0.6,0-1.3,0-1.9,0.1c-0.4,0-0.6-0.1-0.6-0.5
	c-0.1-0.8-0.3-1.6-0.5-2.4c-0.2-1.3-0.5-2.5-0.8-3.7C298.4,409.1,298.4,408.9,298.5,408.7"/>
<path id="Path_70049" class="st3" d="M458.7,226.4c3.8,0.2,7.7,0,11.5-0.6c1.3-0.2,2.6-0.5,3.9-0.8c0.6-0.1,1.2-0.2,1.8-0.3
	c0.4-0.1,0.8-0.2,1.2-0.2c0.3,0,0.3,0.6,0.3,0.9c0.1,0.6,0,1.2,0.1,1.8c0.1,1,0.2,1.9,0.2,2.9c0,0.3,0,0.6,0.1,0.9
	c0.1,0.5-0.1,0.6-1,0.7c-1.2,0.2-2.5,0.4-3.7,0.7c-3.5,0.6-7,1-10.5,1.1c-0.6,0-1.3,0-1.9,0.1c-0.4,0-0.6-0.1-0.6-0.5
	c-0.1-0.8-0.3-1.6-0.5-2.4c-0.2-1.3-0.5-2.5-0.8-3.7C458.6,226.8,458.6,226.6,458.7,226.4"/>
<path id="Path_69997" class="st3" d="M25.5,81.1c3.8,0.2,7.7,0,11.5-0.6c1.3-0.2,2.6-0.5,3.9-0.8c0.6-0.1,1.2-0.2,1.8-0.3
	c0.4-0.1,0.8-0.2,1.2-0.2c0.3,0,0.3,0.6,0.3,0.9c0.1,0.6,0,1.2,0.1,1.8c0.1,1,0.2,1.9,0.2,2.9c0,0.3,0,0.6,0.1,0.9
	c0.1,0.5-0.1,0.6-1,0.7c-1.2,0.2-2.5,0.4-3.7,0.7c-3.5,0.6-7,1-10.6,1.1c-0.6,0-1.3,0-1.9,0.1c-0.4,0-0.6-0.1-0.6-0.5
	c-0.1-0.8-0.3-1.6-0.5-2.4c-0.2-1.3-0.5-2.5-0.8-3.7C25.5,81.4,25.5,81.2,25.5,81.1"/>
<path id="Path_70044-2" class="st3" d="M144.6,188.4c1-0.8,2.2-1.6,3.2-2.4c1.2-0.9,2.2-2.1,3.3-3c1.3-1,2.4-2.1,3.3-3.4
	c0.9-1.4,1.7-2.8,2.5-4.2c0.3-0.5,0.5-0.4,0.9-0.3c1.6,0.4,3.2,0.9,4.9,1.2c0.1,0,0.1,0,0.2,0.1c1,0.2,1,0.1,0.6,1.1
	c-0.7,1.5-1.5,2.9-2.4,4.3c-1.4,2.4-3.2,4.5-5.3,6.3c-1.2,1.1-2.3,2.3-3.6,3.3c-0.4,0.3-0.5,0.2-0.9,0s-0.9-0.4-1.3-0.6
	c-1.4-0.6-2.8-1.1-4.1-1.6c-0.3-0.1-0.6-0.2-0.9-0.3C144.7,188.8,144.5,188.7,144.6,188.4"/>
<path id="Path_70044-2_00000053525998600155200750000007721441335624540343_" class="st3" d="M18,24.5c1-0.8,2.2-1.6,3.2-2.4
	c1.2-0.9,2.2-2.1,3.3-3c1.3-1,2.4-2.1,3.3-3.4c0.9-1.4,1.7-2.8,2.5-4.2c0.3-0.5,0.5-0.4,0.9-0.3c1.6,0.4,3.2,0.9,4.9,1.2
	c0.1,0,0.1,0,0.2,0.1c1,0.2,1,0.1,0.6,1.1c-0.7,1.5-1.5,2.9-2.4,4.3c-1.4,2.4-3.2,4.5-5.3,6.3c-1.2,1.1-2.3,2.3-3.6,3.3
	c-0.4,0.3-0.5,0.2-0.9,0s-0.9-0.4-1.3-0.6c-1.4-0.6-2.8-1.1-4.1-1.6c-0.3-0.1-0.6-0.2-0.9-0.3C18.1,24.9,17.9,24.8,18,24.5"/>
<path id="Path_70051-2" class="st1" d="M466.6,140.6c1.8-2.2,4-4,6-6.1c2.6-2.8,4.7-5.9,6.4-9.2c0.8-1.6,1.8-3.1,2.8-4.6
	c0.9,0.3,1.2,1.2,1.8,1.8c0.6,0.5,1,1.2,1.6,1.8c1.2,1.3,2.4,2.5,3.6,3.8c0.2,0.2,0.5,0.3,0.3,0.7c-0.8,1.3-1.6,2.6-2.3,4
	c-1.7,3.1-3.7,5.9-6.1,8.4c-2.5,2.7-5.1,5.3-7.7,7.9c-0.4,0.4-0.8,0.2-1.1-0.1c-0.4-0.5-0.8-0.9-1.1-1.4c-0.7-1.1-1.5-2.1-2.3-3.1
	c-0.6-0.8-1.2-1.7-1.8-2.5C466.4,141.4,466.2,141,466.6,140.6"/>
<path id="Path_70013-2" class="st4" d="M550.4,163.9c-0.3-2.4-0.1-4.9,0.5-7.3c1.2-4,3-7.7,5.5-11.1c0.2-0.3,0.6-0.4,0.9-0.3
	c2.1,0.7,4.3,1.5,6.4,2.2c0.4,0.1,0.5,0.2,0.1,0.6c-1,1-1.9,2.1-2.6,3.3c-1.6,2.4-2.6,5.2-3.1,8c-0.1,1.1-0.1,2.1,0.3,3.2
	c0.2,0.8,0.4,1.6,0.5,2.3c0,0.3-0.2,0.3-0.4,0.3c-1.4-0.2-2.8-0.4-4.2-0.6c-0.7-0.1-1.5-0.1-2.2-0.1
	C551.5,164.4,550.4,164.5,550.4,163.9"/>
<path id="Path_70050-2" class="st2" d="M536.5,252.2c-0.6-1.2-1-2.5-1.6-3.7c-0.7-1.3-1.5-2.6-2.2-3.9c-0.7-1.4-1.5-2.8-2.6-4
	s-2.3-2.3-3.5-3.4c-0.4-0.4-0.3-0.6-0.1-1c0.8-1.5,1.6-3,2.3-4.5c0-0.1,0.1-0.1,0.1-0.2c0.4-0.9,0.4-0.9,1.2-0.3
	c1.3,1,2.5,2.1,3.7,3.3c2,1.9,3.7,4.1,4.9,6.6c0.8,1.4,1.7,2.8,2.4,4.2c0.2,0.4,0.1,0.5-0.2,0.9s-0.6,0.8-0.9,1.2
	c-0.9,1.2-1.7,2.4-2.5,3.7c-0.2,0.2-0.3,0.5-0.5,0.8C536.8,252.1,536.7,252.3,536.5,252.2"/>
<path id="Path_70052-2" class="st3" d="M538.9,193.7c3.8,0.2,7.7,0,11.5-0.6c1.3-0.2,2.6-0.5,3.9-0.8c0.6-0.1,1.2-0.2,1.8-0.3
	c0.4-0.1,0.8-0.2,1.2-0.2c0.3,0,0.3,0.6,0.3,0.9c0.1,0.6,0,1.2,0.1,1.8c0.1,1,0.2,1.9,0.2,2.9c0,0.3,0,0.6,0.1,0.9
	c0.1,0.5-0.1,0.6-1,0.7c-1.2,0.2-2.5,0.4-3.7,0.7c-3.5,0.6-7,1-10.6,1.1c-0.6,0-1.3,0-1.9,0.1c-0.4,0-0.6-0.1-0.6-0.5
	c-0.1-0.8-0.3-1.6-0.5-2.4c-0.2-1.3-0.5-2.5-0.8-3.7C538.8,194.1,538.8,193.9,538.9,193.7"/>
<path id="Path_70049-2" class="st3" d="M554.8,327.7c3.8,0.2,7.7,0,11.5-0.6c1.3-0.2,2.6-0.5,3.9-0.8c0.6-0.1,1.2-0.2,1.8-0.3
	c0.4-0.1,0.8-0.2,1.2-0.2c0.3,0,0.3,0.6,0.3,0.9c0.1,0.6,0,1.2,0.1,1.8c0.1,1,0.2,1.9,0.2,2.9c0,0.3,0,0.6,0.1,0.9
	c0.1,0.5-0.1,0.6-1,0.7c-1.2,0.2-2.5,0.4-3.7,0.7c-3.5,0.6-7,1-10.5,1.1c-0.6,0-1.3,0-1.9,0.1c-0.4,0-0.6-0.1-0.6-0.5
	c-0.1-0.8-0.3-1.6-0.5-2.4c-0.2-1.3-0.5-2.5-0.8-3.7C554.7,328,554.7,327.8,554.8,327.7"/>
<path id="Path_69703-2" class="st3" d="M1094.1,351.2c3.1,5.1,6.8,9.8,11,14c1.4,1.5,2.9,2.9,4.5,4.3c0.7,0.6,1.3,1.3,2,2
	c0.5,0.4,0.9,0.8,1.2,1.3c0.2,0.4-0.5,0.9-0.8,1.2c-0.7,0.6-1.5,1.1-2.3,1.7c-1.2,0.9-2.3,2-3.5,2.9c-0.4,0.3-0.7,0.5-1,0.8
	c-0.5,0.5-0.9,0.4-1.8-0.6c-1.3-1.4-2.7-2.8-4.2-4.1c-3.9-3.9-7.5-8-10.8-12.5c-0.6-0.8-1.2-1.6-1.8-2.4c-0.3-0.3-0.4-0.8-0.1-1.1
	c0-0.1,0.1-0.1,0.2-0.1c0.9-0.9,1.8-1.8,2.6-2.7c1.4-1.4,2.7-2.9,4-4.3C1093.6,351.5,1093.8,351.2,1094.1,351.2"/>
<path id="Path_69703-2_00000022526110137985565670000006028180977027365028_" class="st3" d="M1046.1,198.2c3.1,5.1,6.8,9.8,11,14
	c1.4,1.5,2.9,2.9,4.5,4.3c0.7,0.6,1.3,1.3,2,2c0.5,0.4,0.9,0.8,1.2,1.3c0.2,0.4-0.5,0.9-0.8,1.2c-0.7,0.6-1.5,1.1-2.3,1.7
	c-1.2,0.9-2.3,2-3.5,2.9c-0.4,0.3-0.7,0.5-1,0.8c-0.5,0.5-0.9,0.4-1.8-0.6c-1.3-1.4-2.7-2.8-4.2-4.1c-3.9-3.9-7.5-8-10.8-12.5
	c-0.6-0.8-1.2-1.6-1.8-2.4c-0.3-0.3-0.4-0.8-0.1-1.1c0-0.1,0.1-0.1,0.2-0.1c0.9-0.9,1.8-1.8,2.6-2.7c1.4-1.4,2.7-2.9,4-4.3
	C1045.6,198.5,1045.8,198.2,1046.1,198.2"/>
<path id="Path_69580-2" class="st4" d="M1203.8,255.1c-0.3-2.4-0.1-4.9,0.5-7.3c1.2-4,3-7.7,5.5-11.1c0.2-0.3,0.6-0.4,0.9-0.3
	c2.1,0.7,4.3,1.5,6.4,2.2c0.4,0.1,0.5,0.2,0.1,0.6c-1,1-1.9,2.1-2.6,3.3c-1.6,2.4-2.6,5.2-3.1,8c-0.1,1.1-0.1,2.1,0.3,3.2
	c0.2,0.8,0.4,1.6,0.5,2.3c0,0.3-0.2,0.3-0.4,0.3c-1.4-0.2-2.8-0.4-4.2-0.6c-0.7-0.1-1.5-0.1-2.2-0.1
	C1205,255.6,1203.9,255.8,1203.8,255.1"/>
<path id="Path_69580-2_00000179617044288515330900000009156279150897300871_" class="st4" d="M1305,36c-0.3-2.4-0.1-4.9,0.5-7.3
	c1.2-4,3-7.7,5.5-11.1c0.2-0.3,0.6-0.4,0.9-0.3c2.1,0.7,4.3,1.5,6.4,2.2c0.4,0.1,0.5,0.2,0.1,0.6c-1,1-1.9,2.1-2.6,3.3
	c-1.6,2.4-2.6,5.2-3.1,8c-0.1,1.1-0.1,2.1,0.3,3.2c0.2,0.8,0.4,1.6,0.5,2.3c0,0.3-0.2,0.3-0.4,0.3c-1.4-0.2-2.8-0.4-4.2-0.6
	c-0.7-0.1-1.5-0.1-2.2-0.1C1306.2,36.5,1305.1,36.7,1305,36"/>
<path id="Path_69580-2_00000052800097421950828650000018413204100705807768_" class="st4" d="M1143,153.1c-0.3-2.4-0.1-4.9,0.5-7.3
	c1.2-4,3-7.7,5.5-11.1c0.2-0.3,0.6-0.4,0.9-0.3c2.1,0.7,4.3,1.5,6.4,2.2c0.4,0.1,0.5,0.2,0.1,0.6c-1,1-1.9,2.1-2.6,3.3
	c-1.6,2.4-2.6,5.2-3.1,8c-0.1,1.1-0.1,2.1,0.3,3.2c0.2,0.8,0.4,1.6,0.5,2.3c0,0.3-0.2,0.3-0.4,0.3c-1.4-0.2-2.8-0.4-4.2-0.6
	c-0.7-0.1-1.5-0.1-2.2-0.1C1144.2,153.6,1143.1,153.8,1143,153.1"/>
<path id="Path_69706-2" class="st1" d="M1086.2,115c2.4-2.8,5.3-5.1,8.6-6.8c5.6-2.7,11.6-4.4,17.8-5c0.5-0.1,1,0.2,1.2,0.7
	c1.3,3.1,2.7,6.2,4,9.3c0.2,0.6,0.2,0.8-0.5,0.7c-2.1-0.1-4.2,0-6.2,0.4c-4.3,0.7-8.4,2.3-12,4.6c-1.3,0.9-2.4,2.1-3.3,3.5
	c-0.6,1-1.4,2-2,2.9c-0.4,0.3-0.5,0.1-0.7-0.2c-1.2-1.8-2.3-3.5-3.6-5.2c-0.7-0.9-1.3-1.7-2.1-2.5
	C1086.8,116.8,1085.5,115.7,1086.2,115"/>
<path id="Path_70011-2" class="st4" d="M764.3,331.2c1.6,1.9,2.7,4.1,3.5,6.5c1.1,4,1.6,8.2,1.2,12.3c0,0.4-0.2,0.7-0.6,0.7
	c-2.2,0.5-4.4,1-6.6,1.6c-0.4,0.1-0.5,0-0.4-0.4c0.3-1.4,0.5-2.8,0.5-4.1c0-2.9-0.5-5.8-1.6-8.5c-0.4-1-1.1-1.9-1.9-2.6
	c-0.6-0.5-1.1-1.1-1.7-1.7c-0.2-0.3,0-0.4,0.2-0.5c1.3-0.6,2.6-1.1,3.9-1.8c0.7-0.3,1.3-0.7,1.9-1.1
	C763,331.4,763.9,330.6,764.3,331.2"/>
<path id="Path_70012-2" class="st3" d="M707.6,290c-5.9,1-11.6,2.7-17.1,4.9c-1.9,0.8-3.8,1.6-5.7,2.6c-0.8,0.4-1.7,0.7-2.6,1.1
	c-0.5,0.3-1.1,0.5-1.7,0.7c-0.4,0-0.6-0.8-0.8-1.2c-0.3-0.9-0.5-1.8-0.7-2.8c-0.4-1.4-1-2.9-1.4-4.3c-0.1-0.4-0.2-0.9-0.4-1.3
	c-0.3-0.7,0-0.9,1.2-1.4c1.8-0.7,3.6-1.5,5.3-2.4c5-2.2,10.3-4,15.6-5.3c1-0.2,1.9-0.5,2.9-0.8c0.6-0.2,0.9-0.1,1.1,0.5
	c0.5,1.2,1,2.3,1.5,3.5c0.8,1.8,1.7,3.6,2.5,5.4C707.6,289.4,707.7,289.7,707.6,290"/>
<path id="Path_70026-2" class="st2" d="M644.9,208.4c2.6,2.9,5.4,5.4,8.5,7.7c1.1,0.8,2.2,1.5,3.4,2.2c0.5,0.3,1,0.7,1.5,1
	c0.4,0.2,0.7,0.4,0.9,0.7c0.2,0.2-0.2,0.6-0.4,0.8c-0.4,0.5-0.8,0.9-1.3,1.4c-0.6,0.7-1.2,1.5-1.9,2.2c-0.2,0.2-0.4,0.4-0.6,0.7
	c-0.3,0.4-0.5,0.3-1.2-0.2c-1-0.8-2-1.5-3.1-2.1c-2.9-2-5.7-4.2-8.2-6.7c-0.5-0.4-0.9-0.9-1.4-1.3c-0.3-0.2-0.3-0.5-0.1-0.8
	c0.5-0.7,0.9-1.3,1.4-2c0.7-1.1,1.4-2.1,2.1-3.2C644.6,208.6,644.7,208.4,644.9,208.4"/>
<path id="Path_70014-2" class="st3" d="M692.4,38.2c-3.4,1.9-6.5,4.1-9.4,6.6c-1,0.9-2,1.8-2.9,2.8c-0.4,0.4-0.9,0.8-1.3,1.2
	c-0.2,0.3-0.6,0.6-0.9,0.8c-0.3,0.1-0.6-0.4-0.7-0.6c-0.4-0.5-0.7-1-1-1.5c-0.6-0.8-1.2-1.5-1.8-2.3c-0.2-0.2-0.3-0.5-0.5-0.7
	c-0.3-0.4-0.2-0.6,0.4-1.1c1-0.8,1.9-1.7,2.7-2.6c2.6-2.4,5.4-4.6,8.4-6.5c0.5-0.4,1.1-0.7,1.6-1.1c0.3-0.2,0.5-0.2,0.8,0.1
	c0.5,0.6,1.1,1.2,1.6,1.8c0.9,0.9,1.8,1.8,2.7,2.7C692.3,37.8,692.4,38,692.4,38.2"/>
</svg>
