<svg width="150" height="150" viewBox="0 0 150 150" fill="none" xmlns="http://www.w3.org/2000/svg">
<rect width="150" height="150" fill="#D3D3D3"/>
<g id="Choose card - Confirmation" opacity="0.8" clip-path="url(#clip0_0_1)">
<rect width="1728" height="1117" transform="translate(-829 -423)" fill="#F1F2F5"/>
<g id="Rectangle 20" filter="url(#filter0_d_0_1)">
<rect x="-470" y="-252" width="923" height="234" fill="white"/>
</g>
<rect id="Rectangle 79" opacity="0.9" x="-829" y="-423" width="1728" height="1117" fill="black"/>
<g id="Group 103">
<rect id="Rectangle 37" x="-383" y="-177" width="894" height="562" rx="8" fill="white"/>
</g>
<path id="Vector" d="M75 150C33.645 150 0 116.355 0 75C0 33.645 33.645 0 75 0C116.355 0 150 33.645 150 75C150 116.355 116.355 150 75 150ZM75 10C39.16 10 10 39.16 10 75C10 110.84 39.16 140 75 140C110.84 140 140 110.84 140 75C140 39.16 110.84 10 75 10ZM68.535 98.535L113.535 53.535C115.49 51.58 115.49 48.42 113.535 46.465C111.58 44.51 108.42 44.51 106.465 46.465L65 87.93L48.535 71.465C46.58 69.51 43.42 69.51 41.465 71.465C39.51 73.42 39.51 76.58 41.465 78.535L61.465 98.535C62.44 99.51 63.72 100 65 100C66.28 100 67.56 99.51 68.535 98.535Z" fill="#70F2B8"/>
</g>
<defs>
<filter id="filter0_d_0_1" x="-486" y="-262" width="955" height="266" filterUnits="userSpaceOnUse" color-interpolation-filters="sRGB">
<feFlood flood-opacity="0" result="BackgroundImageFix"/>
<feColorMatrix in="SourceAlpha" type="matrix" values="0 0 0 0 0 0 0 0 0 0 0 0 0 0 0 0 0 0 127 0" result="hardAlpha"/>
<feOffset dy="6"/>
<feGaussianBlur stdDeviation="8"/>
<feComposite in2="hardAlpha" operator="out"/>
<feColorMatrix type="matrix" values="0 0 0 0 0 0 0 0 0 0 0 0 0 0 0 0 0 0 0.1 0"/>
<feBlend mode="normal" in2="BackgroundImageFix" result="effect1_dropShadow_0_1"/>
<feBlend mode="normal" in="SourceGraphic" in2="effect1_dropShadow_0_1" result="shape"/>
</filter>
<clipPath id="clip0_0_1">
<rect width="1728" height="1117" fill="white" transform="translate(-829 -423)"/>
</clipPath>
</defs>
</svg>
