<svg width="21" height="21" viewBox="0 0 21 21" fill="none" xmlns="http://www.w3.org/2000/svg">
<path id="Vector" d="M10.5 0C7.71523 0 5.04451 1.10625 3.07538 3.07538C1.10625 5.04451 0 7.71523 0 10.5C0 13.2848 1.10625 15.9555 3.07538 17.9246C5.04451 19.8938 7.71523 21 10.5 21C13.2848 21 15.9555 19.8938 17.9246 17.9246C19.8938 15.9555 21 13.2848 21 10.5C21 7.71523 19.8938 5.04451 17.9246 3.07538C15.9555 1.10625 13.2848 0 10.5 0ZM15.75 10.521C15.7518 10.634 15.7307 10.7461 15.6882 10.8508C15.6456 10.9554 15.5823 11.0504 15.5022 11.13L12.0456 14.5761C11.9671 14.6547 11.874 14.7171 11.7714 14.7597C11.6688 14.8022 11.5589 14.8242 11.4478 14.8243C11.3368 14.8244 11.2268 14.8026 11.1242 14.7602C11.0215 14.7178 10.9282 14.6556 10.8496 14.5771C10.7711 14.4987 10.7087 14.4055 10.6661 14.303C10.6235 14.2004 10.6015 14.0904 10.6014 13.9794C10.6013 13.8683 10.6231 13.7584 10.6655 13.6557C10.7079 13.5531 10.7701 13.4598 10.8486 13.3812L12.873 11.3547H6.09C5.86722 11.3547 5.65356 11.2662 5.49603 11.1087C5.3385 10.9511 5.25 10.7375 5.25 10.5147C5.25 10.2919 5.3385 10.0783 5.49603 9.92073C5.65356 9.7632 5.86722 9.6747 6.09 9.6747H12.8919L10.8486 7.6314C10.6899 7.47267 10.6007 7.25738 10.6007 7.0329C10.6007 6.92175 10.6226 6.81169 10.6651 6.70899C10.7077 6.6063 10.77 6.513 10.8486 6.4344C10.9272 6.3558 11.0205 6.29346 11.1232 6.25092C11.2259 6.20839 11.3359 6.18649 11.4471 6.18649C11.6716 6.18649 11.8869 6.27567 12.0456 6.4344L15.5022 9.8805C15.5811 9.95889 15.6436 10.0522 15.6861 10.1549C15.7286 10.2576 15.7504 10.3678 15.75 10.479V10.521Z" fill="#7B7878"/>
</svg>
