<svg xmlns="http://www.w3.org/2000/svg" width="97.725" height="21.098" viewBox="0 0 97.725 21.098">
    <defs>
        <linearGradient id="a" x1=".143" y1=".989" x2=".722" y2=".085" gradientUnits="objectBoundingBox">
            <stop offset="0" stop-color="#9a00f0"/>
            <stop offset="1" stop-color="#ff3fbf"/>
        </linearGradient>
    </defs>
    <path d="M56.611 9.623a5.825 5.825 0 0 1 5.768-6c3.44 0 5.576 2.592 5.576 6.763a.3.3 0 0 1-.3.3H59.4a3.127 3.127 0 0 0 3.128 2.53 4.48 4.48 0 0 0 2.918-1.094.312.312 0 0 1 .434 0l1.313 1.356a.3.3 0 0 1 0 .418 6.909 6.909 0 0 1-4.647 1.79 5.938 5.938 0 0 1-5.935-6.063zm2.825-1.214h5.823a2.7 2.7 0 0 0-2.8-2.318 3.074 3.074 0 0 0-3.023 2.318zm-39.507 3.48c0-2.287 1.954-3.946 4.645-3.946a12.142 12.142 0 0 1 3.362.547v-.033c0-1.144-.374-3.065-2.875-3.065a6.616 6.616 0 0 0-3.094.936.3.3 0 0 1-.418-.132l-.529-1.08a.3.3 0 0 1 .13-.4 8.619 8.619 0 0 1 4.018-1.094c2.891 0 4.687 1.853 4.687 4.835v6.673a.3.3 0 0 1-.3.3h-1.317a.3.3 0 0 1-.3-.3v-.882a5.5 5.5 0 0 1-3.722 1.438c-2.525 0-4.287-1.562-4.287-3.797zm1.9-.064c0 1.219 1.068 2.07 2.6 2.07 1.455 0 3.121-.767 3.51-2.235v-1.494a11.662 11.662 0 0 0-3.171-.474c-1.679 0-2.942.917-2.942 2.133zm-7.742.763v-6.9h-1.48a.3.3 0 0 1-.3-.3v-1.21a.3.3 0 0 1 .3-.3h1.477V1.171a.3.3 0 0 1 .3-.3H15.7a.3.3 0 0 1 .3.3v2.705h2.451a.3.3 0 0 1 .3.3v1.21a.3.3 0 0 1-.3.3H16v6.9c0 .733.434 1.287 1.011 1.287a1.593 1.593 0 0 0 1.065-.385.3.3 0 0 1 .454.049l.678.974a.3.3 0 0 1-.062.411 3.681 3.681 0 0 1-2.219.763 2.882 2.882 0 0 1-2.843-3.098zM.09 13.269a.3.3 0 0 1-.024-.4l.847-1.059a.3.3 0 0 1 .45-.025 6.5 6.5 0 0 0 4.722 2.03c1.967 0 3.341-1.008 3.341-2.451 0-1.3-1.008-1.993-3.854-2.649-3-.7-5-1.7-5-4.256C.572 1.914 2.768 0 5.682 0a7.716 7.716 0 0 1 5.288 2.154.3.3 0 0 1 .03.413l-.847 1.059a.3.3 0 0 1-.449.027 5.882 5.882 0 0 0-4.088-1.8c-1.747 0-3.066 1.071-3.066 2.493 0 1.139.968 1.759 3.836 2.459 2.48.58 5.018 1.56 5.018 4.425 0 2.652-2.157 4.432-5.365 4.432A8.3 8.3 0 0 1 .09 13.269zm52.335 2.163a.3.3 0 0 1-.3-.3V5.975l-4.536 8.45a.315.315 0 0 1-.533 0l-4.536-8.45v9.155a.3.3 0 0 1-.3.3h-2.143a.3.3 0 0 1-.3-.3V.578a.3.3 0 0 1 .3-.3h2.139a.3.3 0 0 1 .267.159l4.837 9.011L52.159.434a.3.3 0 0 1 .266-.159h2.139a.3.3 0 0 1 .3.3V15.13a.3.3 0 0 1-.3.3zm-19.91 0a.3.3 0 0 1-.3-.3V4.178a.3.3 0 0 1 .3-.3h1.313a.3.3 0 0 1 .3.3v1.16a5.035 5.035 0 0 1 3.934-1.716.3.3 0 0 1 .3.3v1.21a.3.3 0 0 1-.3.3c-2.317 0-3.934 1.469-3.934 3.574v6.124a.3.3 0 0 1-.3.3z" transform="translate(.535 4.912)" style="fill:#14145a;stroke:transparent;stroke-miterlimit:10"/>
    <path data-name="Path" d="M1544.7 249.4h-5.747a.71.71 0 0 0-.71.71v13.66a.71.71 0 0 0 .71.71h2.009a.71.71 0 0 0 .71-.71v-4.042h3.028c3.3 0 5.78-2.22 5.78-5.164s-2.48-5.164-5.78-5.164zm-.279 7.039h-2.75v-3.75h2.75c.608 0 2.591.135 2.591 1.875s-1.981 1.879-2.589 1.879zm-7.691-6.115a.3.3 0 0 1 .154.264v7.436a6.746 6.746 0 0 1-1.859 4.8 6.5 6.5 0 0 1-4.717 1.893 7.033 7.033 0 0 1-.886-.056 7.363 7.363 0 0 1-.841-.158 6.223 6.223 0 0 0 3.392-2.144 6.766 6.766 0 0 0 1.438-3.924 5.485 5.485 0 0 0 .024-.454v-7.4a.3.3 0 0 1 .147-.26l1.526-.87zm-9.218 13.814a6.368 6.368 0 0 1-3.75-5.444 8.154 8.154 0 0 1-.03-.669v-7.914a.71.71 0 0 1 .71-.71h2.008a.71.71 0 0 1 .71.71v7.874a3.467 3.467 0 0 0 1.415 2.974 3.179 3.179 0 0 0 3.37.056 6.778 6.778 0 0 1-3.528 2.83 4.4 4.4 0 0 1-.903.297zm10.068-17.934-1.164 1.135.275 1.6a.1.1 0 0 1-.041.1.1.1 0 0 1-.108.008l-1.439-.757-1.439.757a.1.1 0 0 1-.048.012.1.1 0 0 1-.1-.12l.275-1.6-1.164-1.135a.1.1 0 0 1 .057-.175l1.609-.234.719-1.458a.1.1 0 0 1 .185 0l.719 1.458 1.609.234a.1.1 0 0 1 .057.175z" transform="translate(-1452.756 -244.283)" style="fill:url(#a)"/>
</svg>
