<svg xmlns="http://www.w3.org/2000/svg" width="62.993" height="30.5" viewBox="0 0 62.993 30.5">
    <defs>
        <style>
            .cls-3{fill:#fff}
        </style>
    </defs>
    <g id="Image_survey" transform="translate(-24.098 -119.394)">
        <path id="Union_14" fill="#4b4eff" stroke="rgba(0,0,0,0)" stroke-miterlimit="10" d="M4.377 16.16H2.312A2.312 2.312 0 0 1 0 13.848V2.312A2.313 2.313 0 0 1 2.312 0H21.66a2.313 2.313 0 0 1 2.313 2.312v11.536a2.313 2.313 0 0 1-2.313 2.312H8.417l1.616 4.625z" transform="translate(24.598 121.686)"/>
        <path id="Path_11512" d="M150.377 203.544a2.155 2.155 0 0 0-2.155 2.155v6.47h5.3a2.155 2.155 0 0 0 2.155-2.155v-6.47z" transform="translate(-107.104 -74.323)" style="mix-blend-mode:multiply;isolation:isolate" fill="#00b8d4"/>
        <path id="Path_11537" d="M3.073-64.877h2.2c0-1.543 2.446-1.805 2.446-4.135 0-1.718-1.514-2.693-3.7-2.693A4.639 4.639 0 0 0-.1-69.755l1.762 1.034a2.466 2.466 0 0 1 2.11-1.079c.946 0 1.572.451 1.572 1.165 0 1.268-2.271 1.719-2.271 3.758zm1.107 3.654a1.338 1.338 0 0 0 1.4-1.325 1.307 1.307 0 0 0-1.4-1.3 1.307 1.307 0 0 0-1.4 1.3 1.338 1.338 0 0 0 1.4 1.325z" class="cls-3" transform="translate(32.481 196.185)"/>
        <path id="Path_11515" fill="#01d2d2" d="M158.754 214.519l6.072-4.963h14.364a2.313 2.313 0 0 0 2.313-2.313v-12.722a2.313 2.313 0 0 0-2.313-2.313h-21.106a2.313 2.313 0 0 0-2.313 2.313v12.722a2.313 2.313 0 0 0 2.313 2.313h2.4l-1.735 4.963" transform="translate(-113.561 -64.625)"/>
        <path id="Path_11530" d="M3.3-69.639h2.36c0-1.657 2.625-1.938 2.625-4.438 0-1.844-1.625-2.891-3.969-2.891a4.98 4.98 0 0 0-4.424 2.094l1.891 1.11a2.646 2.646 0 0 1 2.266-1.156c1.016 0 1.688.484 1.688 1.25 0 1.359-2.437 1.843-2.437 4.031zm1.188 3.923a1.436 1.436 0 0 0 1.5-1.422 1.4 1.4 0 0 0-1.5-1.391 1.4 1.4 0 0 0-1.5 1.391 1.436 1.436 0 0 0 1.498 1.422z" class="cls-3" transform="translate(50.671 207.551)"/>
        <path id="Path_11523" d="M307.644 192.208h-1.711v6.185a1.788 1.788 0 0 0 1.788 1.788h2.236v-5.66a2.313 2.313 0 0 0-2.313-2.313z" transform="translate(-242.015 -64.625)" style="mix-blend-mode:multiply;isolation:isolate" fill="#c73265" opacity="0.5"/>
        <path id="Union_13" fill="#cf21d6" stroke="rgba(0,0,0,0)" stroke-miterlimit="10" d="M7.132 14.506H1.788A1.788 1.788 0 0 1 0 12.718V1.788A1.788 1.788 0 0 1 1.788 0h17.941a1.788 1.788 0 0 1 1.788 1.788v10.93a1.788 1.788 0 0 1-1.788 1.788h-8.971l-5.077 4.15z" transform="translate(65.074 119.894)"/>
        <path id="Path_11532" d="M2.758-58.23h1.973c0-1.385 2.2-1.62 2.2-3.711 0-1.542-1.359-2.417-3.319-2.417a4.164 4.164 0 0 0-3.7 1.751l1.581.928a2.213 2.213 0 0 1 1.895-.967c.849 0 1.411.405 1.411 1.045.001 1.137-2.041 1.542-2.041 3.371zm.993 3.28a1.2 1.2 0 0 0 1.254-1.189A1.173 1.173 0 0 0 3.751-57.3 1.173 1.173 0 0 0 2.5-56.139a1.2 1.2 0 0 0 1.251 1.189z" class="cls-3" transform="translate(72.15 186.76)"/>
    </g>
</svg>
